<?xml version="1.0" encoding="UTF-8"?>
<svg id="Layer_1" data-name="Layer 1" xmlns="http://www.w3.org/2000/svg" viewBox="0 0 358.94 635.26">
  <defs>
    <style>
      .cls-1 {
        fill: #e04a4f;
      }
    </style>
  </defs>
  <polygon class="cls-1" points="0 207.99 6.88 191.48 15.82 191.48 15.82 182.54 21.71 182.54 27.52 172.07 40.66 175.43 66.35 155.25 62.98 147.61 66.35 147.61 88.66 133.24 93.86 143.94 125.05 174.21 129.94 170.61 136.36 169.31 136.36 161.67 156.84 149.14 156.84 143.33 185.28 144.24 192.61 151.28 212.79 164.73 314.6 175.73 297.18 210.59 264.77 244.83 257.43 262.56 262.63 262.56 260.18 266.23 265.99 268.98 265.38 272.04 269.66 273.88 268.74 308.12 274.55 320.04 280.06 316.99 280.36 323.41 307.57 353.06 309.41 382.41 326.83 401.98 326.83 413.6 338.76 420.94 303.6 454.26 306.65 461.9 299.93 464.66 291.37 464.66 286.17 468.02 309.1 501.34 327.44 527.33 334.78 527.33 328.67 548.73 335.7 554.54 329.89 569.22 335.39 586.65 353.74 594.59 347.62 600.71 350.99 605.91 353.74 621.5 358.94 629.14 351.29 635.26 345.18 627.61 340.9 630.06 328.06 611.72 330.81 609.27 328.36 605.91 332.34 602.85 313.08 578.7 295.95 579.31 293.05 576.59 298.9 557.45 270 537.38 268.74 532.91 261.18 527.98 254.53 528.44 255.1 524.54 218.87 494.27 202.7 458.96 168.42 402.09 121.07 333.19 90.19 287.33 81.94 281.21 82.24 271.74 58.09 248.19 23.24 233.21 25.68 227.4 35.47 224.65 25.68 215.79 12.84 218.84 0 207.99"/>
  <g>
    <path class="cls-1" d="M33.16,25.47c-.06-2.08-.25-10.33-.58-24.73,2.08,0,4.96-.07,8.63-.21,3.67-.14,5.78-.18,6.33-.12.77,11.12,1.15,18.13,1.15,21.04,1.2,0,3.14-.07,5.79-.21,2.66-.14,4.04-.21,4.15-.21.77-11.28,1.15-17.67,1.15-19.15,1.53-.38,4.01-.6,7.44-.66,3.42-.05,5.52-.03,6.29.08.66,6.79.93,16,.82,27.61,0,2.74.08,7.77.25,15.08.16,7.31.25,11.13.25,11.46-1.43.33-6.44.49-15.04.49,0-1.31-.01-3.57-.04-6.78-.03-3.2-.06-5.77-.08-7.68-.03-1.92.01-3.59.12-5.01-1.59-.05-2.68-.07-3.29-.04-.6.03-1.66.15-3.16.37-1.51.22-2.31.33-2.42.33-.33,4.38-.49,10.41-.49,18.08-1.92.11-5.05.38-9.41.82-4.36.44-6.81.68-7.35.74,0-3.5-.04-7.4-.12-11.67-.08-4.27-.16-8.31-.25-12.12-.08-3.81-.12-6.31-.12-7.52Z"/>
    <path class="cls-1" d="M83.45,55.54c0-1.1-.07-6.33-.21-15.7-.14-9.37-.21-16.74-.21-22.1s.14-10.49.41-15.37c.88,0,3.92-.12,9.12-.37,5.2-.25,9.67-.41,13.39-.49,3.72-.08,7.2.01,10.44.29v12.24c-1.31,0-4.59.1-9.82.29-5.23.19-8.15.26-8.75.21-.06,1.1-.01,2.29.12,3.57.14,1.29.18,1.99.12,2.1.71,0,1.66.03,2.83.08,1.18.06,2.37.12,3.57.21,1.2.08,1.97.12,2.3.12.11,1.1.21,3,.29,5.71.08,2.71.12,4.1.12,4.15h-8.63c0,1.04.05,2.36.16,3.94.11,1.59.16,2.49.16,2.71,1.64,0,4.53.14,8.67.41,4.14.27,6.94.49,8.42.66.27,3.01.41,8.71.41,17.09-.44,0-2.31-.03-5.63-.08-3.32-.05-6.49-.08-9.53-.08s-6.31.03-9.82.08c-3.51.06-6.16.16-7.97.33Z"/>
    <path class="cls-1" d="M125.03,55.54c0-1.1-.07-6.33-.21-15.7-.14-9.37-.21-16.74-.21-22.1s.14-10.49.41-15.37c.88,0,3.92-.12,9.12-.37,5.2-.25,9.67-.41,13.39-.49,3.72-.08,7.2.01,10.44.29v12.24c-1.31,0-4.59.1-9.82.29-5.23.19-8.15.26-8.75.21-.06,1.1-.01,2.29.12,3.57.14,1.29.18,1.99.12,2.1.71,0,1.66.03,2.83.08,1.18.06,2.37.12,3.57.21,1.2.08,1.97.12,2.3.12.11,1.1.21,3,.29,5.71.08,2.71.12,4.1.12,4.15h-8.63c0,1.04.05,2.36.16,3.94.11,1.59.16,2.49.16,2.71,1.64,0,4.53.14,8.67.41,4.14.27,6.94.49,8.42.66.27,3.01.41,8.71.41,17.09-.44,0-2.31-.03-5.63-.08-3.32-.05-6.49-.08-9.53-.08s-6.31.03-9.82.08c-3.51.06-6.16.16-7.97.33Z"/>
    <path class="cls-1" d="M166.2,25.22c.22-13.09.22-21.31,0-24.65,2.41-.27,4.7-.45,6.86-.53,2.16-.08,4.63-.01,7.4.21,2.77.22,5.19.64,7.27,1.27,2.08.63,3.97,1.64,5.67,3.04,1.7,1.4,2.85,3.11,3.45,5.14,1.53,5.37,1.86,10.44.99,15.2-.88,4.77-2.68,7.64-5.42,8.63.82,2.14,2.62,5.97,5.38,11.5,2.77,5.53,4.31,8.96,4.64,10.27-.38,0-1.78-.03-4.19-.08-2.41-.05-4.67-.08-6.78-.08s-3.58.06-4.4.16c-1.04-1.81-2.49-4.9-4.36-9.29-1.86-4.38-2.96-6.87-3.29-7.48-.16,1.26-.27,2.85-.33,4.77-.06,1.92-.07,3.62-.04,5.09.03,1.48.05,2.99.08,4.52.03,1.53.04,2.33.04,2.38-.88.16-2.11.25-3.7.25s-4.44-.08-8.55-.25c-.55-17.8-.79-27.83-.74-30.08ZM179.76,15.44c0,.27.05,1.47.16,3.57.11,2.11.05,3.6-.16,4.48,1.15.22,2.27-.11,3.37-.99,1.09-.88,1.64-1.78,1.64-2.71,0-1.2-.41-2.3-1.23-3.29-.82-.99-2.08-1.34-3.78-1.07Z"/>
    <path class="cls-1" d="M210.16,24.15c0-1.04.14-4.79.41-11.26.27-6.46.36-10.65.25-12.57.55,0,1.83.01,3.86.04,2.03.03,3.85.04,5.46.04s2.78-.03,3.49-.08c0,1.31.01,5.29.04,11.92.03,6.63.04,12.44.04,17.42s-.03,7.92-.08,8.79c6.35.88,10.57,1.37,12.66,1.48,0,.66.03,2.3.08,4.93.05,2.63.08,4.93.08,6.9s-.05,3.23-.16,3.78c-.6,0-2.97-.03-7.11-.08-4.14-.05-8-.08-11.59-.08s-6.07.06-7.44.16c-.16-1.7-.27-4.14-.33-7.31-.05-3.18-.05-6,0-8.46.05-2.46.12-5.56.21-9.29.08-3.72.12-5.83.12-6.33Z"/>
    <path class="cls-1" d="M243.52,55.54c0-1.1-.07-6.33-.21-15.7-.14-9.37-.21-16.74-.21-22.1s.14-10.49.41-15.37c.88,0,3.92-.12,9.12-.37,5.2-.25,9.67-.41,13.39-.49,3.73-.08,7.2.01,10.44.29v12.24c-1.31,0-4.59.1-9.82.29-5.23.19-8.15.26-8.75.21-.06,1.1-.01,2.29.12,3.57.14,1.29.18,1.99.12,2.1.71,0,1.66.03,2.83.08,1.18.06,2.37.12,3.58.21,1.2.08,1.97.12,2.3.12.11,1.1.21,3,.29,5.71.08,2.71.12,4.1.12,4.15h-8.63c0,1.04.05,2.36.16,3.94.11,1.59.17,2.49.17,2.71,1.64,0,4.53.14,8.67.41,4.14.27,6.94.49,8.42.66.27,3.01.41,8.71.41,17.09-.44,0-2.31-.03-5.63-.08-3.32-.05-6.49-.08-9.53-.08s-6.31.03-9.82.08c-3.51.06-6.16.16-7.97.33Z"/>
    <path class="cls-1" d="M285.19,55.54c-.27-5.75-.45-14.72-.53-26.91-.08-12.19.1-21.35.53-27.49,4.44,0,9.53.16,15.29.49,4.11,11.23,8.19,20.46,12.24,27.69,0-4.27.09-9.46.29-15.57.19-6.11.34-9.96.45-11.55,1.26,0,3.59-.05,6.98-.16,3.4-.11,5.37-.16,5.92-.16-.33,5.53-.7,15.3-1.11,29.3-.41,14-.53,21.95-.37,23.87-2.3.27-7.12.14-14.46-.41-5.42-13.97-8.96-21.99-10.6-24.08-.33,3.62-.52,8.57-.58,14.87-.05,6.3-.03,9.56.08,9.78-2.69,0-7.4.11-14.13.33Z"/>
  </g>
</svg>