<?xml version="1.0" encoding="UTF-8"?>
<svg id="Layer_1" data-name="Layer 1" xmlns="http://www.w3.org/2000/svg" viewBox="0 0 182.33 165.02">
  <defs>
    <style>
      .cls-1 {
        fill: #ffeb00;
      }
    </style>
  </defs>
  <polygon class="cls-1" points="113.75 102.28 163.73 149.94 151.02 165.02 89.89 102.93 31.81 163.12 18.6 147.21 49.72 118.01 51.73 118.39 51.44 116.48 77.77 90.62 41.58 53.86 21.98 78.42 0 60.32 9.52 50.52 11.04 51.08 10.61 49.41 58.6 0 76.91 21.76 55.88 40.23 54.51 40.03 54.51 41.44 52.14 43.52 89.48 79.13 125.93 43.33 116.26 33.27 117.03 30.88 114.45 31.74 103.63 22.17 123.92 2.54 144.89 24.27 148.82 20.44 159.16 30.88 156.1 34.61 168.47 50.18 166.05 56.16 170.84 54.24 182.33 80.29 145.56 63.34 137.52 53.57 101.65 90.74 113.07 101.63 112.85 102.62 113.75 102.28"/>
</svg>