<?xml version="1.0" encoding="UTF-8"?>
<svg id="Layer_1" data-name="Layer 1" xmlns="http://www.w3.org/2000/svg" viewBox="0 0 109.69 161.73">
  <defs>
    <style>
      .cls-1 {
        fill: #7b7b7d;
      }

      .cls-2 {
        fill: #231f20;
      }

      .cls-3 {
        fill: #a7a9ac;
      }

      .cls-4 {
        fill: #4f4d4f;
      }
    </style>
  </defs>
  <polygon class="cls-2" points="0 51.06 5.91 120.13 42.84 161.73 79.76 157.15 102.64 125.33 94.32 96.21 102.64 65.52 81.83 2.08 32.95 0 0 51.06"/>
  <polygon class="cls-4" points="5.01 52.21 10.77 118.61 46.74 158.6 82.7 154.19 104.99 123.6 96.88 95.61 104.99 66.12 84.72 5.13 37.11 3.13 5.01 52.21"/>
  <polygon class="cls-1" points="10.02 53.37 15.63 117.09 50.64 155.47 85.65 151.23 107.34 121.88 99.45 95.02 107.34 66.71 87.61 8.18 41.26 6.27 10.02 53.37"/>
  <polygon class="cls-3" points="15.03 54.52 20.49 115.57 54.54 152.33 88.59 148.28 109.69 120.16 102.02 94.42 109.69 67.3 90.5 11.24 45.42 9.4 15.03 54.52"/>
</svg>