<svg xmlns:xlink="http://www.w3.org/1999/xlink" version="1.1" class="highcharts-root" style="font-family:&quot;Akko W01 Regular&quot;, &quot;Soho W01 Medium Light&quot;, sans-serif;font-size:12px;color:#000;fill:#000;" xmlns="http://www.w3.org/2000/svg" width="600" height="450" viewBox="0 0 600 450"><desc>Created with Highcharts 7.0.3</desc><defs><clipPath id="highcharts-0w5glj9-433"><rect x="0" y="0" width="549" height="220" fill="none"></rect></clipPath></defs><rect fill="#ffffff" class="highcharts-background" x="0" y="0" width="600" height="450" rx="0" ry="0"></rect><path fill="#efefef" d="M 41 286 v 82.5 a 6 6 0 0 0 6 6 h 537 a 6 6 0 0 0 6 -6 v -82.5 z" data-z-index="-1"></path><rect fill="none" class="highcharts-plot-background" x="41" y="66" width="549" height="220"></rect><text x="11" y="48"><tspan>x 1 000</tspan></text><g class="highcharts-pane-group" data-z-index="0"></g><g class="highcharts-plot-lines-0" data-z-index="0"><path fill="none" class="highcharts-plot-line " stroke="#666666" stroke-width="2" d="M 41 242 L 590 242" visibility="visible"></path></g><g class="highcharts-grid highcharts-xaxis-grid " data-z-index="1"><path fill="none" data-z-index="1" class="highcharts-grid-line" d="M 65.5 66 L 65.5 286" opacity="1"></path><path fill="none" data-z-index="1" class="highcharts-grid-line" d="M 115.5 66 L 115.5 286" opacity="1"></path><path fill="none" data-z-index="1" class="highcharts-grid-line" d="M 165.5 66 L 165.5 286" opacity="1"></path><path fill="none" data-z-index="1" class="highcharts-grid-line" d="M 215.5 66 L 215.5 286" opacity="1"></path><path fill="none" data-z-index="1" class="highcharts-grid-line" d="M 265.5 66 L 265.5 286" opacity="1"></path><path fill="none" data-z-index="1" class="highcharts-grid-line" d="M 315.5 66 L 315.5 286" opacity="1"></path><path fill="none" data-z-index="1" class="highcharts-grid-line" d="M 364.5 66 L 364.5 286" opacity="1"></path><path fill="none" data-z-index="1" class="highcharts-grid-line" d="M 414.5 66 L 414.5 286" opacity="1"></path><path fill="none" data-z-index="1" class="highcharts-grid-line" d="M 464.5 66 L 464.5 286" opacity="1"></path><path fill="none" data-z-index="1" class="highcharts-grid-line" d="M 514.5 66 L 514.5 286" opacity="1"></path><path fill="none" data-z-index="1" class="highcharts-grid-line" d="M 564.5 66 L 564.5 286" opacity="1"></path></g><g class="highcharts-grid highcharts-yaxis-grid " data-z-index="1"><path fill="none" stroke="#666666" stroke-width="0.25" data-z-index="1" class="highcharts-grid-line" d="M 41 286.125 L 590 286.125" opacity="1"></path><path fill="none" stroke="#666666" stroke-width="0.25" data-z-index="1" class="highcharts-grid-line" d="M 41 264.125 L 590 264.125" opacity="1"></path><path fill="none" stroke="#666666" stroke-width="0.25" data-z-index="1" class="highcharts-grid-line" d="M 41 242.125 L 590 242.125" opacity="1"></path><path fill="none" stroke="#666666" stroke-width="0.25" data-z-index="1" class="highcharts-grid-line" d="M 41 220.125 L 590 220.125" opacity="1"></path><path fill="none" stroke="#666666" stroke-width="0.25" data-z-index="1" class="highcharts-grid-line" d="M 41 198.125 L 590 198.125" opacity="1"></path><path fill="none" stroke="#666666" stroke-width="0.25" data-z-index="1" class="highcharts-grid-line" d="M 41 176.125 L 590 176.125" opacity="1"></path><path fill="none" stroke="#666666" stroke-width="0.25" data-z-index="1" class="highcharts-grid-line" d="M 41 154.125 L 590 154.125" opacity="1"></path><path fill="none" stroke="#666666" stroke-width="0.25" data-z-index="1" class="highcharts-grid-line" d="M 41 132.125 L 590 132.125" opacity="1"></path><path fill="none" stroke="#666666" stroke-width="0.25" data-z-index="1" class="highcharts-grid-line" d="M 41 110.125 L 590 110.125" opacity="1"></path><path fill="none" stroke="#666666" stroke-width="0.25" data-z-index="1" class="highcharts-grid-line" d="M 41 88.125 L 590 88.125" opacity="1"></path><path fill="none" stroke="#666666" stroke-width="0.25" data-z-index="1" class="highcharts-grid-line" d="M 41 65.875 L 590 65.875" opacity="1"></path></g><rect fill="none" class="highcharts-plot-border" data-z-index="1" x="41" y="66" width="549" height="220"></rect><g class="highcharts-logo" data-z-index="1" transform="translate(52,332.5) scale(0.19230769230769232)"><path fill="#929292" d="M 41.3 34.1 V 42 H 23.8 h -5.5 v 5.5 v 7.9 v 5.5 h 5.5 h 17.5 v 7.9 H 10.4 V 34.1 H 41.3 M 46.8 28.6 H 9.9 c -2.8 0 -5 2.2 -5 5 v 40.6 h 41.9 V 55.3 h -23 v -7.9 h 23 V 28.6 L 46.9 28.6 z"></path><path fill="#929292" d="M 67.3 11.4 v 17.2 v 5.5 h 5.5 h 21.3 v 34.6 H 59.4 V 11.4 H 67.3 M 67.2 60.8 h 5.5 h 7.9 h 5.5 v -5.5 v -7.9 v -5.5 h -5.5 h -7.9 h -5.5 v 5.5 v 7.9 V 60.8 M 67.8 5.9 H 53.9 v 68.3 h 45.7 V 33.6 c 0 -2.8 -2.2 -5 -5 -5 H 72.8 V 11.2 C 72.8 8.4 70.5 5.9 67.8 5.9 L 67.8 5.9 z M 72.7 55.3 v -7.9 h 7.9 v 7.9 H 72.7 L 72.7 55.3 z"></path><path fill="#929292" d="M 94 86.8 v 8 H 23.8 h -5.5 v 5.5 v 7 v 5.5 h 5.5 H 94 v 33.9 H 10.4 v -7.9 h 70.3 h 5.5 v -5.5 v -7.1 v -5.5 h -5.5 H 10.4 V 86.8 H 94 M 99.5 81.3 H 4.9 v 44.9 h 75.8 v 7.1 H 4.9 v 13.9 c 0 2.8 2.2 5 5 5 h 84.6 c 2.8 0 5 -2.2 5 -5 v -39.9 H 23.8 v -7 h 75.7 V 81.3 L 99.5 81.3 z"></path></g><g class="highcharts-axis highcharts-xaxis " data-z-index="2"><path fill="none" class="highcharts-tick" stroke="#C6C6C6" stroke-width="1" d="M 65.5 286 L 65.5 295" opacity="1"></path><path fill="none" class="highcharts-tick" stroke="#C6C6C6" stroke-width="1" d="M 115.5 286 L 115.5 295" opacity="1"></path><path fill="none" class="highcharts-tick" stroke="#C6C6C6" stroke-width="1" d="M 165.5 286 L 165.5 295" opacity="1"></path><path fill="none" class="highcharts-tick" stroke="#C6C6C6" stroke-width="1" d="M 215.5 286 L 215.5 295" opacity="1"></path><path fill="none" class="highcharts-tick" stroke="#C6C6C6" stroke-width="1" d="M 265.5 286 L 265.5 295" opacity="1"></path><path fill="none" class="highcharts-tick" stroke="#C6C6C6" stroke-width="1" d="M 315.5 286 L 315.5 295" opacity="1"></path><path fill="none" class="highcharts-tick" stroke="#C6C6C6" stroke-width="1" d="M 364.5 286 L 364.5 295" opacity="1"></path><path fill="none" class="highcharts-tick" stroke="#C6C6C6" stroke-width="1" d="M 414.5 286 L 414.5 295" opacity="1"></path><path fill="none" class="highcharts-tick" stroke="#C6C6C6" stroke-width="1" d="M 464.5 286 L 464.5 295" opacity="1"></path><path fill="none" class="highcharts-tick" stroke="#C6C6C6" stroke-width="1" d="M 514.5 286 L 514.5 295" opacity="1"></path><path fill="none" class="highcharts-tick" stroke="#C6C6C6" stroke-width="1" d="M 564.5 286 L 564.5 295" opacity="1"></path><path fill="none" class="highcharts-axis-line" stroke="#666666" stroke-width="1" data-z-index="7" d="M 41 286.5 L 590 286.5"></path></g><g class="highcharts-axis highcharts-yaxis " data-z-index="2"><path fill="none" class="highcharts-axis-line" data-z-index="7" d="M 41 66 L 41 286"></path></g><g class="highcharts-series-group" data-z-index="3"><g data-z-index="0.1" class="highcharts-series highcharts-series-0 highcharts-line-series highcharts-color-0 " visibility="hidden" transform="translate(41,66) scale(1 1)" clip-path="url(#highcharts-0w5glj9-433)"><path fill="none" d="M 24.954545454545 174.936 L 74.863636363636 175.158 L 124.77272727273 174.936 L 174.68181818182 174.26999999999998 L 224.59090909091 155.844 L 274.5 142.07999999999998 L 324.40909090909 140.748 L 374.31818181818 131.646 L 424.22727272727 122.98799999999999 L 474.13636363636 119.65799999999999 L 524.04545454545 119.43599999999998" class="highcharts-graph" data-z-index="1" stroke="#00a1cd" stroke-width="1.5" stroke-linejoin="round" stroke-linecap="round"></path></g><g data-z-index="0.1" class="highcharts-markers highcharts-series-0 highcharts-line-series highcharts-color-0 " visibility="hidden" transform="translate(41,66) scale(1 1)" clip-path="none"></g><g data-z-index="0.1" class="highcharts-series highcharts-series-1 highcharts-line-series highcharts-color-1 " visibility="hidden" transform="translate(41,66) scale(1 1)" clip-path="url(#highcharts-0w5glj9-433)"><path fill="none" d="M 24.954545454545 176.49 L 74.863636363636 176.49 L 124.77272727273 176.268 L 174.68181818182 174.492 L 224.59090909091 172.05 L 274.5 168.942 L 324.40909090909 168.276 L 374.31818181818 165.834 L 424.22727272727 164.28 L 474.13636363636 164.724 L 524.04545454545 164.502" class="highcharts-graph" data-z-index="1" stroke="#0058b8" stroke-width="1.5" stroke-linejoin="round" stroke-linecap="round"></path></g><g data-z-index="0.1" class="highcharts-markers highcharts-series-1 highcharts-line-series highcharts-color-1 " visibility="hidden" transform="translate(41,66) scale(1 1)" clip-path="none"></g><g data-z-index="0.1" class="highcharts-series highcharts-series-2 highcharts-line-series highcharts-color-2 " visibility="hidden" transform="translate(41,66) scale(1 1)" clip-path="url(#highcharts-0w5glj9-433)"><path fill="none" d="M 24.954545454545 172.494 L 74.863636363636 172.272 L 124.77272727273 171.828 L 174.68181818182 170.94 L 224.59090909091 167.60999999999999 L 274.5 150.072 L 324.40909090909 141.63599999999997 L 374.31818181818 128.53799999999998 L 424.22727272727 107.448 L 474.13636363636 95.68199999999999 L 524.04545454545 98.78999999999999" class="highcharts-graph" data-z-index="1" stroke="#afcb05" stroke-width="1.5" stroke-linejoin="round" stroke-linecap="round"></path></g><g data-z-index="0.1" class="highcharts-markers highcharts-series-2 highcharts-line-series highcharts-color-2 " visibility="hidden" transform="translate(41,66) scale(1 1)" clip-path="none"></g><g data-z-index="0.1" class="highcharts-series highcharts-series-3 highcharts-line-series highcharts-color-3 " transform="translate(41,66) scale(1 1)" clip-path="url(#highcharts-0w5glj9-433)"><path fill="none" d="M 24.954545454545 164.78 L 74.863636363636 164.12 L 124.77272727273 161.48 L 174.68181818182 149.38 L 224.59090909091 104.94 L 274.5 72.81999999999996 L 324.40909090909 63.139999999999986 L 374.31818181818 41.359999999999985 L 424.22727272727 16.71999999999997 L 474.13636363636 10.780000000000001 L 524.04545454545 18.91999999999996" class="highcharts-graph" data-z-index="1" stroke="#53a31d" stroke-width="1.5" stroke-linejoin="round" stroke-linecap="round"></path></g><g data-z-index="0.1" class="highcharts-markers highcharts-series-3 highcharts-line-series highcharts-color-3 " transform="translate(41,66) scale(1 1)" clip-path="none"></g><g data-z-index="0.1" class="highcharts-series highcharts-series-4 highcharts-line-series highcharts-color-4 " visibility="hidden" transform="translate(41,66) scale(1 1)" clip-path="url(#highcharts-0w5glj9-433)"><path fill="none" d="M 24.954545454545 174.936 L 74.863636363636 174.936 L 124.77272727273 174.714 L 174.68181818182 174.048 L 224.59090909091 160.284 L 274.5 147.408 L 324.40909090909 146.076 L 374.31818181818 138.30599999999998 L 424.22727272727 129.426 L 474.13636363636 126.984 L 524.04545454545 127.20599999999999" class="highcharts-graph" data-z-index="1" stroke="#f39200" stroke-width="1.5" stroke-linejoin="round" stroke-linecap="round"></path></g><g data-z-index="0.1" class="highcharts-markers highcharts-series-4 highcharts-line-series highcharts-color-4 " visibility="hidden" transform="translate(41,66) scale(1 1)" clip-path="none"></g><g data-z-index="0.1" class="highcharts-series highcharts-series-5 highcharts-line-series highcharts-color-5 " visibility="hidden" transform="translate(41,66) scale(1 1)" clip-path="url(#highcharts-0w5glj9-433)"><path fill="none" d="M 24.954545454545 164.058 L 74.863636363636 161.838 L 124.77272727273 156.288 L 174.68181818182 140.748 L 224.59090909091 120.99 L 274.5 96.12599999999998 L 324.40909090909 92.79599999999999 L 374.31818181818 81.25199999999998 L 424.22727272727 68.154 L 474.13636363636 71.48399999999998 L 524.04545454545 73.70399999999998" class="highcharts-graph" data-z-index="1" stroke="#af0e80" stroke-width="1.5" stroke-linejoin="round" stroke-linecap="round"></path></g><g data-z-index="0.1" class="highcharts-markers highcharts-series-5 highcharts-line-series highcharts-color-5 " visibility="hidden" transform="translate(41,66) scale(1 1)" clip-path="none"></g><g data-z-index="0.1" class="highcharts-series highcharts-series-6 highcharts-line-series highcharts-color-6 " visibility="hidden" transform="translate(41,66) scale(1 1)" clip-path="url(#highcharts-0w5glj9-433)"><path fill="none" d="M 24.954545454545 174.936 L 74.863636363636 174.936 L 124.77272727273 174.492 L 174.68181818182 170.94 L 224.59090909091 163.836 L 274.5 158.952 L 324.40909090909 160.062 L 374.31818181818 155.39999999999998 L 424.22727272727 144.966 L 474.13636363636 140.748 L 524.04545454545 139.86" class="highcharts-graph" data-z-index="1" stroke="#ffcc00" stroke-width="1.5" stroke-linejoin="round" stroke-linecap="round"></path></g><g data-z-index="0.1" class="highcharts-markers highcharts-series-6 highcharts-line-series highcharts-color-6 " visibility="hidden" transform="translate(41,66) scale(1 1)" clip-path="none"></g></g><text x="10" text-anchor="start" class="highcharts-title" data-z-index="4" style="color:#000;font-size:17px;font-family:&quot;Soho W01 Medium&quot;, &quot;Akko W01 Regular&quot;, sans-serif;fill:#000;" y="23"><tspan>5.4 Bevolking individuele mijnzetelgemeenten</tspan></text><text x="10" text-anchor="start" class="highcharts-subtitle" data-z-index="4" style="color:#666666;fill:#666666;" y="45"></text><g class="highcharts-legend" data-z-index="7" transform="translate(41,398.5)"><rect fill="none" class="highcharts-legend-box" rx="0" ry="0" x="0" y="0" width="479" height="37" visibility="visible"></rect><g data-z-index="1"><g><g class="highcharts-legend-item highcharts-line-series highcharts-color-0 highcharts-series-0 highcharts-legend-item-hidden" data-z-index="1" transform="translate(0,-5)"><path fill="none" d="M 0 11 L 25 11" class="highcharts-graph" stroke="#757575" stroke-width="1.5"></path><text x="35" style="color:#757575;cursor:pointer;font-size:12px;font-weight:normal;fill:#757575;" text-anchor="start" data-z-index="2" y="15"><tspan>Brunssum</tspan></text></g><g class="highcharts-legend-item highcharts-line-series highcharts-color-1 highcharts-series-1 highcharts-legend-item-hidden" data-z-index="1" transform="translate(126.15625,-5)"><path fill="none" d="M 0 11 L 25 11" class="highcharts-graph" stroke="#757575" stroke-width="1.5"></path><text x="35" y="15" style="color:#757575;cursor:pointer;font-size:12px;font-weight:normal;fill:#757575;" text-anchor="start" data-z-index="2"><tspan>Eygelshoven</tspan></text></g><g class="highcharts-legend-item highcharts-line-series highcharts-color-2 highcharts-series-2 highcharts-legend-item-hidden" data-z-index="1" transform="translate(252.3125,-5)"><path fill="none" d="M 0 11 L 25 11" class="highcharts-graph" stroke="#757575" stroke-width="1.5"></path><text x="35" y="15" style="color:#757575;cursor:pointer;font-size:12px;font-weight:normal;fill:#757575;" text-anchor="start" data-z-index="2"><tspan>Geleen</tspan></text></g><g class="highcharts-legend-item highcharts-line-series highcharts-color-3 highcharts-series-3" data-z-index="1" transform="translate(378.46875,-5)"><path fill="none" d="M 0 11 L 25 11" class="highcharts-graph" stroke="#53a31d" stroke-width="1.5"></path><text x="35" y="15" style="color:#000000;cursor:pointer;font-size:12px;font-weight:normal;fill:#000000;" text-anchor="start" data-z-index="2"><tspan>Heerlen</tspan></text></g><g class="highcharts-legend-item highcharts-line-series highcharts-color-4 highcharts-series-4 highcharts-legend-item-hidden" data-z-index="1" transform="translate(0,16)"><path fill="none" d="M 0 11 L 25 11" class="highcharts-graph" stroke="#757575" stroke-width="1.5"></path><text x="35" y="15" style="color:#757575;cursor:pointer;font-size:12px;font-weight:normal;fill:#757575;" text-anchor="start" data-z-index="2"><tspan>Hoensbroek</tspan></text></g><g class="highcharts-legend-item highcharts-line-series highcharts-color-5 highcharts-series-5 highcharts-legend-item-hidden" data-z-index="1" transform="translate(126.15625,16)"><path fill="none" d="M 0 11 L 25 11" class="highcharts-graph" stroke="#757575" stroke-width="1.5"></path><text x="35" y="15" style="color:#757575;cursor:pointer;font-size:12px;font-weight:normal;fill:#757575;" text-anchor="start" data-z-index="2"><tspan>Kerkrade</tspan></text></g><g class="highcharts-legend-item highcharts-line-series highcharts-color-6 highcharts-series-6 highcharts-legend-item-hidden" data-z-index="1" transform="translate(252.3125,16)"><path fill="none" d="M 0 11 L 25 11" class="highcharts-graph" stroke="#757575" stroke-width="1.5"></path><text x="35" y="15" style="color:#757575;cursor:pointer;font-size:12px;font-weight:normal;fill:#757575;" text-anchor="start" data-z-index="2"><tspan>Schaesberg</tspan></text></g></g></g></g><g class="highcharts-axis-labels highcharts-xaxis-labels " data-z-index="7"><text x="65.954545454545" style="color:#000000;cursor:default;font-size:11px;fill:#000000;" text-anchor="middle" transform="translate(0,0)" y="316" opacity="1">1880</text><text x="115.86363636364" style="color:#000000;cursor:default;font-size:11px;fill:#000000;" text-anchor="middle" transform="translate(0,0)" y="316" opacity="1">1890</text><text x="165.77272727273" style="color:#000000;cursor:default;font-size:11px;fill:#000000;" text-anchor="middle" transform="translate(0,0)" y="316" opacity="1">1900</text><text x="215.68181818182" style="color:#000000;cursor:default;font-size:11px;fill:#000000;" text-anchor="middle" transform="translate(0,0)" y="316" opacity="1">1910</text><text x="265.59090909091" style="color:#000000;cursor:default;font-size:11px;fill:#000000;" text-anchor="middle" transform="translate(0,0)" y="316" opacity="1">1920</text><text x="315.5" style="color:#000000;cursor:default;font-size:11px;fill:#000000;" text-anchor="middle" transform="translate(0,0)" y="316" opacity="1">1930</text><text x="365.40909090909" style="color:#000000;cursor:default;font-size:11px;fill:#000000;" text-anchor="middle" transform="translate(0,0)" y="316" opacity="1">1940</text><text x="415.31818181818" style="color:#000000;cursor:default;font-size:11px;fill:#000000;" text-anchor="middle" transform="translate(0,0)" y="316" opacity="1">1950</text><text x="465.22727272727" style="color:#000000;cursor:default;font-size:11px;fill:#000000;" text-anchor="middle" transform="translate(0,0)" y="316" opacity="1">1960</text><text x="515.13636363636" style="color:#000000;cursor:default;font-size:11px;fill:#000000;" text-anchor="middle" transform="translate(0,0)" y="316" opacity="1">1970</text><text x="565.04545454545" style="color:#000000;cursor:default;font-size:11px;fill:#000000;" text-anchor="middle" transform="translate(0,0)" y="316" opacity="1">1980</text></g><g class="highcharts-axis-labels highcharts-yaxis-labels " data-z-index="7"><text x="26" style="color:#000000;cursor:default;font-size:11px;fill:#000000;" text-anchor="end" transform="translate(0,0)" y="290" opacity="1">-20</text><text x="26" style="color:#000000;cursor:default;font-size:11px;fill:#000000;" text-anchor="end" transform="translate(0,0)" y="268" opacity="1">-10</text><text x="26" style="color:#000000;cursor:default;font-size:11px;fill:#000000;" text-anchor="end" transform="translate(0,0)" y="246" opacity="1">0</text><text x="26" style="color:#000000;cursor:default;font-size:11px;fill:#000000;" text-anchor="end" transform="translate(0,0)" y="224" opacity="1">10</text><text x="26" style="color:#000000;cursor:default;font-size:11px;fill:#000000;" text-anchor="end" transform="translate(0,0)" y="202" opacity="1">20</text><text x="26" style="color:#000000;cursor:default;font-size:11px;fill:#000000;" text-anchor="end" transform="translate(0,0)" y="180" opacity="1">30</text><text x="26" style="color:#000000;cursor:default;font-size:11px;fill:#000000;" text-anchor="end" transform="translate(0,0)" y="158" opacity="1">40</text><text x="26" style="color:#000000;cursor:default;font-size:11px;fill:#000000;" text-anchor="end" transform="translate(0,0)" y="136" opacity="1">50</text><text x="26" style="color:#000000;cursor:default;font-size:11px;fill:#000000;" text-anchor="end" transform="translate(0,0)" y="114" opacity="1">60</text><text x="26" style="color:#000000;cursor:default;font-size:11px;fill:#000000;" text-anchor="end" transform="translate(0,0)" y="92" opacity="1">70</text><text x="26" style="color:#000000;cursor:default;font-size:11px;fill:#000000;" text-anchor="end" transform="translate(0,0)" y="70" opacity="1">80</text></g></svg>