<?xml version="1.0" encoding="UTF-8"?>
<svg id="Layer_1" xmlns="http://www.w3.org/2000/svg" version="1.1" viewBox="0 0 300 162.73">
  <!-- Generator: Adobe Illustrator 30.1.0, SVG Export Plug-In . SVG Version: 2.1.1 Build 136)  -->
  <defs>
    <style>
      .st0 {
        fill: #4a4748;
      }

      .st1 {
        fill: #ffeb00;
      }

      .st2 {
        fill: #979698;
      }

      .st3 {
        fill: #231f20;
      }

      .st4 {
        fill: #716f70;
      }

      .st5 {
        fill: #bebec0;
      }
    </style>
  </defs>
  <g>
    <polygon class="st5" points="161.73 133.38 207.25 149.69 266.95 132.05 275.32 92.75 265.66 56.79 269.31 39.81 212.19 55.46 167.96 39.81 129.52 56.13 140.05 81.1 129.52 128.38 147.99 149.69 161.73 133.38"/>
    <polygon class="st2" points="145.67 132.84 194.5 150.33 258.52 131.41 267.51 89.26 257.14 50.69 261.06 32.47 199.8 49.26 152.35 32.47 111.12 49.98 122.41 76.76 111.12 127.48 130.93 150.33 145.67 132.84"/>
    <polygon class="st4" points="129.61 132.29 181.74 150.98 250.1 130.77 259.69 85.77 248.62 44.59 252.81 25.14 187.4 43.07 136.74 25.14 92.73 43.83 104.78 72.42 92.73 126.57 113.87 150.98 129.61 132.29"/>
    <polygon class="st0" points="113.55 131.75 168.99 151.62 241.68 130.13 251.88 82.28 240.11 38.49 244.56 17.8 175 36.87 121.14 17.8 74.33 37.68 87.15 68.09 74.33 125.67 96.82 151.62 113.55 131.75"/>
    <polygon class="st3" points="97.5 131.21 156.24 152.26 233.26 129.49 244.07 78.79 231.59 32.39 236.31 10.47 162.61 30.67 105.53 10.47 55.93 31.53 69.52 63.75 55.93 124.76 79.76 152.26 97.5 131.21"/>
  </g>
  <g>
    <path class="st1" d="M112.94,80.39c.23-5.34.43-9.12.61-11.32.43,0,1.69,0,3.78-.02,2.09-.01,3.95-.02,5.58-.02s2.7.01,3.21.04v6.8c-.53,0-1.33,0-2.39-.02-1.06-.01-1.93-.02-2.58-.02s-1.1.01-1.33.04c0,.71.02,1.7.08,2.96.05,1.27.08,1.94.08,2.01,1.75.2,3.15.3,4.22.3.1,1.82.09,3.8-.04,5.93h-4.33v7.07c-.61.18-2.9.18-6.88,0,0-.73,0-2.1-.02-4.1s-.02-3.84-.02-5.51.01-3.05.04-4.14Z"/>
    <path class="st1" d="M129.81,89.24c-.38-3.42-.38-7.95,0-13.6.08-.99.32-1.86.72-2.62s.89-1.37,1.44-1.82c.56-.46,1.21-.83,1.96-1.12.75-.29,1.44-.5,2.07-.63.63-.13,1.29-.2,1.98-.23.81-.02,1.66.06,2.55.25.89.19,1.76.5,2.62.93.86.43,1.6,1.08,2.2,1.94.61.86.95,1.86,1.03,3,.23,2.28.29,4.86.19,7.75-.1,2.89-.38,5.22-.84,6.99-.23.89-.65,1.65-1.27,2.3-.62.65-1.32,1.13-2.11,1.44-.79.32-1.53.55-2.24.7-.71.15-1.39.23-2.05.23s-1.39-.08-2.18-.25c-.8-.17-1.65-.43-2.56-.8-.91-.37-1.69-.94-2.34-1.73s-1.03-1.7-1.16-2.74ZM135.96,77.58c-.1.99-.17,2.37-.19,4.16-.03,1.79-.03,3.01,0,3.67.02.63.27,1.14.72,1.52.46.38.87.58,1.25.61.35.03.72-.08,1.1-.3.38-.23.62-.61.72-1.14.1-.66.21-2.03.34-4.1.13-2.08.16-3.46.11-4.14-.05-.71-.25-1.29-.61-1.75-.35-.46-.81-.68-1.37-.68s-1,.21-1.41.63c-.41.42-.63.93-.68,1.54Z"/>
    <path class="st1" d="M155.15,94.67c-.33-9.02-.51-14.56-.53-16.64-2.89.2-4.55.32-4.98.34,0-.3.01-1.17.04-2.6.02-1.43.05-2.71.08-3.84.02-1.13.05-1.87.08-2.22.15,0,.65-.04,1.48-.13.84-.09,1.48-.15,1.92-.19.44-.04,1.15-.09,2.13-.17.97-.08,1.69-.11,2.15-.09.46.01,1.1.02,1.94.02,1.16.08,2.73.12,4.69.13,1.96.01,3.05.02,3.25.02-.03.58-.05,1.64-.08,3.17-.03,1.53-.05,2.84-.08,3.93-.03,1.09-.05,1.77-.08,2.05-.3-.02-2.12-.08-5.43-.15-.03,1.37-.04,2.6-.06,3.7-.01,1.1-.01,2.1,0,3,.01.9.02,1.55.02,1.96-.03,2.94,0,5.36.08,7.26-.99.18-3.19.33-6.61.46Z"/>
    <path class="st1" d="M170.69,89.24c-.38-3.42-.38-7.95,0-13.6.08-.99.32-1.86.72-2.62.4-.76.89-1.37,1.44-1.82.56-.46,1.21-.83,1.96-1.12.75-.29,1.44-.5,2.07-.63.63-.13,1.29-.2,1.98-.23.81-.02,1.66.06,2.55.25.89.19,1.76.5,2.62.93.86.43,1.6,1.08,2.2,1.94.61.86.95,1.86,1.03,3,.23,2.28.29,4.86.19,7.75-.1,2.89-.38,5.22-.84,6.99-.23.89-.65,1.65-1.27,2.3-.62.65-1.32,1.13-2.11,1.44s-1.53.55-2.24.7c-.71.15-1.39.23-2.05.23s-1.39-.08-2.18-.25c-.8-.17-1.65-.43-2.56-.8-.91-.37-1.69-.94-2.34-1.73s-1.03-1.7-1.16-2.74ZM176.84,77.58c-.1.99-.17,2.37-.19,4.16-.03,1.79-.03,3.01,0,3.67.03.63.27,1.14.72,1.52s.87.58,1.25.61c.35.03.72-.08,1.1-.3.38-.23.62-.61.72-1.14.1-.66.21-2.03.34-4.1.13-2.08.16-3.46.11-4.14-.05-.71-.25-1.29-.61-1.75-.35-.46-.81-.68-1.37-.68s-1,.21-1.41.63-.63.93-.68,1.54Z"/>
  </g>
</svg>