<?xml version="1.0" encoding="UTF-8"?>
<svg id="Layer_1" xmlns="http://www.w3.org/2000/svg" version="1.1" viewBox="0 0 1920 1080">
  <!-- Generator: Adobe Illustrator 30.1.0, SVG Export Plug-In . SVG Version: 2.1.1 Build 136)  -->
  <defs>
    <style>
      .st0 {
        isolation: isolate;
      }

      .st1 {
        fill: none;
        stroke: #ed1c24;
        stroke-miterlimit: 10;
        stroke-width: 15px;
      }

      .st2 {
        fill: #ed1c24;
      }
    </style>
  </defs>
  <polyline class="st1" points="1498.81 449.35 1072.04 610.76 401.58 449.4 428.92 694.51"/>
  <polygon class="st1" points="511.33 690.78 436.04 855.74 330.82 708.05 511.33 690.78"/>
  <g class="st0">
    <path class="st2" d="M436.71,415.21c.95-6.29,2.66-12.59,5.12-18.89,2.46-6.3,5.19-10.97,8.19-14,2.59-2.58,5.66-4.06,9.23-4.44,3.57-.38,6.91.35,10.05,2.17,3.13,1.83,5.43,4.42,6.9,7.79-3.61,4.55-6.11,7.52-7.48,8.92-1.29-1.05-2.53-1.77-3.72-2.18-1.19-.41-2.47-.34-3.83.19-1.36.54-2.55,1.67-3.58,3.39-2.73,4.46-4.46,10.78-5.18,18.97-.21,2.66,1.32,4.25,4.58,4.79,1.37.2,2.56-.28,3.58-1.45,1.02-1.17,1.7-2.98,2.03-5.42-.6-.08-1.54-.31-2.84-.68-1.3-.37-2.09-.59-2.38-.66.57-3.43,1.39-6.31,2.44-8.64,1.1.26,3.62.94,7.54,2.03,3.92,1.09,6.7,1.83,8.33,2.22.42,3.12-.04,6.86-1.4,11.25-1.36,4.38-3.26,8.34-5.7,11.88-1.14,1.69-2.52,3.03-4.14,3.99-1.62.97-3.26,1.54-4.93,1.73-1.67.18-3.21.22-4.59.1-1.39-.12-2.78-.34-4.18-.67-1.16-.28-2.34-.69-3.54-1.22-1.2-.53-2.56-1.4-4.09-2.59-1.53-1.2-2.83-2.57-3.91-4.12-1.08-1.55-1.88-3.59-2.41-6.11-.53-2.53-.56-5.3-.08-8.33Z"/>
    <path class="st2" d="M487.74,411.36c1.24-2.1,2.96-4.92,5.16-8.46,2.2-3.54,4.04-6.52,5.51-8.97,1.48-2.45,2.57-4.38,3.28-5.81,6.63,1.59,10.77,2.7,12.4,3.33.08,3.53.29,8.94.63,16.26.34,7.31.53,12.45.56,15.41.04,3.7-.04,9.22-.22,16.56-.19,7.34-.32,11.83-.41,13.47-5.55-.96-9.95-2.01-13.18-3.15.1-1.95.2-5.07.31-9.38.11-4.31.27-7.06.49-8.23-3.61-.86-6.95-1.42-10.03-1.66-1.11,1.83-2.4,4.29-3.84,7.39-1.45,3.1-2.3,5.17-2.55,6.22-1.44-.16-3.91-.61-7.43-1.36-3.51-.75-5.83-1.35-6.95-1.8,6.3-12.21,11.72-22.14,16.26-29.79ZM498.5,418.46l4.63,1.11c-.04-3.45-.35-6.02-.93-7.7-1.07,2.14-2.3,4.34-3.7,6.59Z"/>
    <path class="st2" d="M552.3,461.68c.13-31.16.54-51.79,1.24-61.9,5.32.41,10.87,1.49,16.67,3.25-.57,5.22-1.28,13.18-2.12,23.9-.84,10.72-1.25,17.07-1.23,19.04,1.55-3.14,4.65-10.11,9.3-20.94,4.65-10.82,7.38-17.03,8.19-18.62,5.56,1.21,9.61,2.39,12.16,3.55-12.76,33.55-20.05,52.57-21.86,57.06-.64-.15-2.78-.68-6.41-1.58-3.63-.9-6.93-1.7-9.9-2.41s-4.98-1.16-6.04-1.35Z"/>
    <path class="st2" d="M627.87,479.85c-2.52-.79-8.44-2.29-17.74-4.52-9.31-2.23-15.81-3.84-19.51-4.85.71-2.97,1.57-6.7,2.58-11.19,1.01-4.5,1.89-8.29,2.63-11.37.74-3.08,1.46-5.86,2.18-8.34.93-3.1,2.15-8.1,3.68-14.99,1.52-6.89,2.38-10.6,2.56-11.11,2.06.37,5.98,1.06,11.73,2.07,5.76,1.01,10.89,1.94,15.39,2.8,4.5.86,7.58,1.55,9.24,2.07-.67,3.84-1.95,9.16-3.82,15.97-1.21-.35-4.77-1.06-10.7-2.14-5.92-1.08-9.23-1.73-9.91-1.96-.17.7-.42,1.88-.76,3.56-.34,1.67-.56,2.74-.67,3.21l10.3,2.09c-1.08,6.08-1.74,9.61-1.98,10.6l-10.62-1.89c-1.16,4.58-1.93,7.81-2.32,9.69,11.55,2.39,18.16,3.82,19.83,4.28-1.37,10.62-2.06,15.96-2.08,16.02Z"/>
    <path class="st2" d="M637.57,480.97c.87-3.11,3.08-12.58,6.65-28.4,3.57-15.82,5.67-25.44,6.3-28.85,1.06.19,2.8.45,5.21.78,2.41.33,4.17.58,5.26.75,1.1.17,2.61.46,4.55.86,1.93.4,3.42.8,4.46,1.21,1.04.4,2.21.93,3.5,1.58,1.29.65,2.36,1.39,3.2,2.24.84.85,1.53,1.83,2.07,2.94,1.37,2.48,1.79,5.52,1.24,9.11-.55,3.59-1.82,6.95-3.79,10.07-1.98,3.12-4.27,5.36-6.86,6.71,2.37,17.12,3.82,26.72,4.37,28.82-5.31-.72-9.91-1.54-13.8-2.47-.48-1.59-1.23-4.97-2.24-10.13-1.01-5.16-1.76-8.26-2.25-9.3-.67,2.79-1.24,5.52-1.72,8.17-.48,2.65-.84,4.8-1.08,6.43-.24,1.64-.4,2.63-.48,2.98-.82-.2-2.33-.54-4.55-1.04-2.22-.5-4.2-.96-5.95-1.38-1.75-.42-3.11-.77-4.08-1.07ZM660.41,439.09c-.12.77-.39,2.32-.79,4.66-.41,2.33-.68,3.94-.83,4.83,1.25.18,2.4-.06,3.44-.7,1.04-.64,1.74-1.66,2.07-3.06.29-1.47.06-2.81-.69-4.04-.75-1.23-1.82-1.79-3.2-1.69Z"/>
    <path class="st2" d="M686.77,460.44c.19-.81,1.08-5.08,2.65-12.79,1.57-7.71,2.74-12.93,3.51-15.63,9.95,2.38,17.67,4.59,23.14,6.64,1.53.55,2.78,1.48,3.76,2.79.98,1.31,1.65,2.69,2.01,4.13.36,1.44.53,3.17.51,5.2-.02,2.02-.12,3.72-.3,5.1-.18,1.37-.42,2.98-.73,4.81-2.22,12.63-4.32,21.42-6.3,26.36-.89,2.19-2.44,3.97-4.65,5.35-2.21,1.38-4.55,2.28-7.01,2.71-2.47.42-5.04.56-7.71.42-3.04-.17-6.15-.64-9.35-1.41-3.2-.77-5.28-1.33-6.24-1.68.74-4.62,2.98-15.28,6.73-31.98ZM702.22,452.96c-.52,2.15-1.4,6.17-2.65,12.05-1.25,5.88-2.03,9.44-2.32,10.66,1.06.19,2.38,0,3.97-.57,1.58-.57,2.64-1.45,3.16-2.61,1.19-2.67,2.25-6.2,3.18-10.59.37-1.82.07-3.57-.91-5.25-.98-1.68-2.46-2.91-4.42-3.69Z"/>
    <path class="st2" d="M758.8,511.16c-2.52-.79-8.43-2.29-17.74-4.52-9.31-2.23-15.82-3.84-19.51-4.85.71-2.97,1.57-6.7,2.58-11.19,1.01-4.5,1.89-8.28,2.63-11.37.74-3.08,1.46-5.86,2.18-8.34.93-3.1,2.15-8.1,3.68-14.99,1.52-6.89,2.38-10.6,2.56-11.11,2.06.37,5.98,1.06,11.73,2.07,5.76,1.01,10.89,1.94,15.39,2.8,4.5.86,7.58,1.55,9.24,2.07-.67,3.84-1.95,9.16-3.82,15.97-1.21-.35-4.77-1.06-10.7-2.14-5.92-1.08-9.23-1.73-9.91-1.96-.17.7-.42,1.88-.76,3.56-.34,1.67-.56,2.74-.67,3.21l10.29,2.09c-1.08,6.08-1.74,9.61-1.98,10.6l-10.62-1.9c-1.16,4.58-1.93,7.81-2.32,9.69,11.55,2.39,18.16,3.82,19.83,4.28-1.37,10.62-2.06,15.96-2.08,16.02Z"/>
    <path class="st2" d="M768.5,512.28c.87-3.11,3.09-12.58,6.65-28.4,3.57-15.82,5.67-25.44,6.3-28.85,1.06.19,2.8.46,5.21.78,2.41.33,4.17.58,5.26.75,1.1.17,2.61.46,4.55.86,1.93.4,3.42.8,4.46,1.21,1.04.4,2.21.93,3.5,1.58,1.29.65,2.36,1.39,3.2,2.24.84.85,1.53,1.83,2.07,2.94,1.37,2.48,1.79,5.52,1.24,9.11-.55,3.59-1.82,6.95-3.79,10.07-1.98,3.12-4.27,5.36-6.86,6.71,2.37,17.12,3.82,26.72,4.37,28.82-5.31-.72-9.91-1.54-13.8-2.47-.48-1.59-1.23-4.97-2.24-10.13-1.01-5.16-1.76-8.26-2.25-9.3-.67,2.79-1.24,5.52-1.72,8.17-.48,2.65-.84,4.8-1.08,6.43-.24,1.63-.4,2.63-.48,2.98-.81-.2-2.33-.54-4.55-1.04-2.22-.5-4.2-.96-5.95-1.38-1.75-.42-3.11-.77-4.08-1.07ZM791.34,470.4c-.12.77-.39,2.32-.79,4.66-.41,2.33-.68,3.94-.83,4.83,1.25.18,2.4-.06,3.44-.7,1.04-.64,1.74-1.66,2.07-3.06.29-1.47.06-2.81-.69-4.04-.75-1.22-1.82-1.79-3.19-1.69Z"/>
    <path class="st2" d="M841.53,485.08c.23-1.24.67-3.58,1.31-7.02.64-3.45,1.14-5.93,1.5-7.44,3.32.79,7.38,1.6,12.2,2.41,4.82.82,8.43,1.48,10.83,1.99,7.94,1.78,13.53,3.11,16.76,4.01-.91,5.87-2.16,11.08-3.74,15.62-1.28-.31-3.58-.79-6.89-1.46-3.32-.67-5.21-1.06-5.67-1.17-.88,3.42-2.14,8.44-3.79,15.06-1.64,6.62-2.6,10.48-2.86,11.59-.56,2.08-1.23,4.77-2.02,8.05-.79,3.29-1.29,5.52-1.51,6.7-1.28-.06-6.05-1.2-14.32-3.42,6.63-25.91,10.16-40.02,10.58-42.32-.64-.15-2.61-.55-5.9-1.18-3.29-.63-5.46-1.1-6.49-1.41Z"/>
    <path class="st2" d="M914.08,548.3c-2.52-.79-8.43-2.29-17.74-4.52-9.31-2.23-15.82-3.84-19.51-4.85.71-2.97,1.57-6.7,2.58-11.19,1.01-4.5,1.89-8.28,2.63-11.37.74-3.08,1.46-5.86,2.18-8.34.93-3.1,2.15-8.1,3.68-14.99,1.52-6.89,2.38-10.6,2.56-11.11,2.06.37,5.98,1.06,11.73,2.07,5.76,1.01,10.89,1.94,15.39,2.8,4.5.86,7.58,1.55,9.24,2.07-.67,3.84-1.95,9.16-3.82,15.97-1.21-.35-4.77-1.06-10.7-2.14-5.92-1.08-9.23-1.73-9.91-1.96-.17.7-.42,1.88-.76,3.56-.34,1.67-.56,2.74-.67,3.21l10.29,2.09c-1.08,6.08-1.74,9.61-1.98,10.6l-10.62-1.89c-1.16,4.58-1.93,7.81-2.32,9.69,11.55,2.39,18.16,3.82,19.83,4.28-1.37,10.62-2.06,15.96-2.08,16.02Z"/>
    <path class="st2" d="M923.78,549.42c.87-3.12,3.09-12.58,6.65-28.4,3.57-15.82,5.67-25.44,6.3-28.85,1.06.19,2.8.45,5.21.78,2.41.33,4.17.58,5.26.75,1.1.17,2.61.46,4.55.86,1.93.4,3.42.8,4.46,1.21,1.04.4,2.21.93,3.5,1.58,1.29.65,2.36,1.39,3.2,2.24.84.85,1.53,1.83,2.07,2.94,1.37,2.48,1.79,5.52,1.24,9.11-.55,3.59-1.82,6.95-3.79,10.07-1.98,3.12-4.27,5.36-6.86,6.71,2.37,17.11,3.82,26.72,4.37,28.82-5.31-.71-9.91-1.54-13.81-2.47-.48-1.59-1.23-4.97-2.24-10.13-1.01-5.16-1.76-8.26-2.25-9.3-.67,2.79-1.24,5.52-1.72,8.17-.48,2.65-.84,4.8-1.08,6.43-.24,1.63-.4,2.62-.48,2.97-.81-.19-2.33-.54-4.55-1.04-2.22-.5-4.2-.96-5.95-1.38s-3.11-.77-4.08-1.07ZM946.62,507.54c-.12.77-.39,2.32-.79,4.66-.41,2.33-.68,3.94-.83,4.83,1.25.18,2.4-.06,3.44-.7,1.04-.64,1.74-1.66,2.07-3.06.29-1.47.06-2.81-.69-4.04-.75-1.23-1.82-1.79-3.2-1.69Z"/>
    <path class="st2" d="M968,539.32c4.52-18.91,7.94-31.54,10.26-37.87,2.63.32,7.37,1.46,14.23,3.4-1.46,5.07-3.24,11.87-5.34,20.41-2.1,8.54-3.21,13.29-3.32,14.25-.27,1.66-.27,2.93,0,3.83.28.9.99,1.51,2.14,1.85.52.12,1.01.09,1.46-.11.45-.2.85-.6,1.21-1.19.36-.59.64-1.14.85-1.64.21-.5.49-1.23.85-2.2.11-.22.18-.36.19-.41.69-1.87,2.25-6.89,4.67-15.08,2.42-8.19,4-13.98,4.75-17.37,1.77.3,3.9.79,6.38,1.48,2.48.68,4.39,1.31,5.73,1.88-3.3,16.62-6.33,29.31-9.1,38.06-1.86,5.96-4.74,10.16-8.64,12.61-3.91,2.45-8.11,3.17-12.6,2.15-2.23-.47-4.29-1.27-6.21-2.41-1.92-1.13-3.63-2.64-5.15-4.51s-2.52-4.28-2.98-7.22c-.47-2.94-.26-6.24.62-9.91Z"/>
    <path class="st2" d="M1033.55,539.96l16.59,4.34c-.13,8.03-2.15,15.7-6.05,23.01-3.37,6.39-9.24,8.65-17.58,6.78-1.51-.36-3.14-.95-4.88-1.77-1.74-.81-3.55-1.89-5.41-3.23-1.86-1.34-3.34-3.09-4.42-5.26-1.08-2.16-1.46-4.47-1.12-6.91.84-7.12,2.98-16.45,6.42-27.99.8-2.58,1.92-4.8,3.35-6.67,1.43-1.87,2.96-3.31,4.58-4.3,1.62-1,3.38-1.74,5.29-2.24,1.9-.5,3.67-.75,5.3-.76,1.63,0,3.21.14,4.74.44,3.29.66,5.72,1.72,7.31,3.18,1.59,1.46,2.72,3.34,3.4,5.66-.99,1.06-2.18,2.22-3.56,3.49-1.38,1.27-2.5,2.26-3.34,2.98l-1.29,1.17c-1.22-1.58-3.03-2.66-5.41-3.23-1.34-.32-2.8.15-4.39,1.39-1.59,1.25-2.7,2.94-3.33,5.06-.78,3.26-1.32,5.51-1.62,6.77-.3,1.25-.64,3.08-1.03,5.47-.39,2.4-.62,3.74-.69,4.03-.23,1.48.06,2.78.87,3.9.81,1.12,1.64,1.81,2.5,2.08.8.25,1.71.22,2.74-.08,1.03-.31,1.78-1.05,2.24-2.23.41-.95,1.04-2.83,1.9-5.63-.51-.18-1.29-.4-2.34-.65-1.05-.25-2.04-.49-2.97-.71.21-.62.6-2.06,1.16-4.29.57-2.23.91-3.49,1.04-3.77Z"/>
  </g>
  <g class="st0">
    <path class="st2" d="M1112.07,532.45l-9.33-24.39c1.75-1.12,6.53-2.79,14.33-5,2.63,8.54,7.12,20.28,13.47,35.21.7,1.66,1.59,3.9,2.67,6.72,1.08,2.82,2.15,5.66,3.21,8.52,1.06,2.86,1.65,4.43,1.75,4.71-.95.36-3.32,1.37-7.11,3.01-3.79,1.64-6.08,2.62-6.86,2.91-.9-2.02-2.1-4.98-3.58-8.86-1.49-3.88-3.12-8.24-4.9-13.07-1.78-4.83-3-8.08-3.64-9.76Z"/>
    <path class="st2" d="M1134.05,521.06c-.18-.64-2.82-8.05-7.93-22.24,3.98-1.65,7.75-3.13,11.33-4.43,3.57-1.3,6-2.1,7.3-2.41,10.51,12.06,16.55,18.81,18.13,20.26-.81-3.47-2.06-8.07-3.74-13.8-1.68-5.73-2.82-9.28-3.41-10.66,4.79-2.22,8.47-3.47,11.06-3.75,1.37,3.07,4.13,11.2,8.28,24.41s7.24,23.18,9.23,29.91c-1.3.62-2.77,1.25-4.42,1.88-1.65.63-3.29,1.23-4.94,1.79-1.64.57-2.63.91-2.97,1.04-1.23-1.2-3.48-3.57-6.76-7.12-3.28-3.55-6.12-6.52-8.5-8.9-2.39-2.39-4.25-4.06-5.58-5.03,1.02,3.01,2.3,6.76,3.83,11.27,1.53,4.51,2.72,7.98,3.55,10.41.84,2.44,1.4,4.04,1.7,4.83-1.46,1.39-5.92,3.36-13.41,5.9-2.1-4.64-4.47-10.47-7.13-17.5-2.66-7.02-4.54-12.31-5.64-15.86Z"/>
    <path class="st2" d="M1203.9,498.94c-.3-.78-1.98-4.8-5.04-12.05-3.06-7.25-5.04-12.21-5.94-14.88,9.56-3.66,17.17-6.19,22.85-7.59,1.57-.41,3.13-.35,4.68.18,1.55.53,2.88,1.29,3.99,2.27,1.11.98,2.23,2.32,3.36,4,1.12,1.68,2,3.14,2.63,4.37.63,1.23,1.33,2.69,2.11,4.38,5.3,11.68,8.53,20.12,9.69,25.31.5,2.31.23,4.65-.81,7.04-1.04,2.39-2.46,4.45-4.26,6.2-1.8,1.75-3.84,3.31-6.13,4.7-2.6,1.57-5.44,2.95-8.51,4.12-3.07,1.18-5.11,1.89-6.1,2.14-2-4.23-6.18-14.29-12.51-30.19ZM1212.42,484.05c.79,2.07,2.33,5.88,4.62,11.45,2.29,5.56,3.66,8.93,4.11,10.1.99-.44,1.97-1.34,2.95-2.71.98-1.37,1.36-2.68,1.13-3.94-.52-2.88-1.64-6.39-3.36-10.54-.72-1.71-1.96-2.98-3.72-3.81-1.76-.83-3.67-1.01-5.73-.54Z"/>
    <path class="st2" d="M1291.99,500.12c-2.52.77-8.26,2.87-17.2,6.29-8.94,3.42-15.22,5.76-18.84,7.02-1.09-2.85-2.49-6.41-4.19-10.7-1.7-4.28-3.12-7.9-4.25-10.87-1.13-2.96-2.1-5.67-2.91-8.11-.99-3.08-2.8-7.9-5.43-14.45-2.63-6.55-4.02-10.09-4.16-10.61,1.91-.86,5.53-2.5,10.85-4.92,5.32-2.42,10.08-4.54,14.28-6.38,4.2-1.83,7.13-3,8.8-3.51,1.61,3.55,3.57,8.66,5.87,15.34-1.2.39-4.54,1.82-10.04,4.27-5.5,2.46-8.59,3.79-9.29,3.99.26.67.72,1.79,1.38,3.36.66,1.57,1.08,2.58,1.25,3.03l9.68-4.09c2.54,5.63,3.99,8.92,4.35,9.87l-9.83,4.44c1.63,4.44,2.82,7.54,3.56,9.3,10.88-4.55,17.14-7.1,18.78-7.67,4.87,9.54,7.31,14.34,7.33,14.4Z"/>
    <path class="st2" d="M1302.7,448.26c-.51-1.15-1.47-3.33-2.88-6.54-1.42-3.2-2.41-5.53-2.96-6.99,3.19-1.22,7-2.85,11.43-4.9,4.44-2.05,7.79-3.54,10.06-4.47,7.56-3.02,12.92-5.07,16.09-6.16,2.56,5.36,4.48,10.36,5.74,15-1.23.47-3.4,1.37-6.52,2.69-3.11,1.32-4.9,2.07-5.34,2.24,1.21,3.32,3,8.17,5.38,14.56,2.38,6.39,3.78,10.12,4.18,11.18.71,2.03,1.67,4.63,2.88,7.79,1.21,3.16,2.05,5.28,2.54,6.38-1.09.67-5.67,2.43-13.75,5.26-9.17-25.13-14.22-38.76-15.17-40.9-.62.24-2.46,1.02-5.54,2.36-3.08,1.34-5.13,2.17-6.16,2.5Z"/>
    <path class="st2" d="M1349.37,441.64l-9.33-24.39c1.75-1.12,6.53-2.79,14.33-5,2.63,8.54,7.12,20.28,13.47,35.21.7,1.66,1.59,3.9,2.67,6.72,1.08,2.82,2.15,5.66,3.21,8.52,1.06,2.86,1.65,4.43,1.75,4.71-.95.36-3.32,1.37-7.11,3.01-3.79,1.64-6.08,2.61-6.86,2.91-.9-2.02-2.1-4.98-3.58-8.86-1.49-3.88-3.12-8.24-4.9-13.07-1.78-4.83-3-8.08-3.64-9.76Z"/>
    <path class="st2" d="M1379.08,453.24c-3.42-5.93-5.56-10.68-6.42-14.26.89-.34,2.2-.82,3.91-1.45,1.71-.62,3.16-1.16,4.33-1.61,1.17-.45,2.06-.82,2.65-1.11,1.78,4.64,3.97,6.46,6.6,5.45,2.9-1.11,3.53-4.24,1.89-9.37-.83-2.5-2.68-7.54-5.55-15.13-2.87-7.58-4.78-12.38-5.74-14.38,5.14-1.97,9.32-3.44,12.53-4.41,8.06,21.07,13.04,34.99,14.92,41.76,1.21,4.34,1.21,8.35-.01,12.02-1.22,3.67-3.79,6.35-7.69,8.04-4.13,1.77-8.24,2.13-12.33,1.06-4.09-1.06-7.13-3.26-9.11-6.6Z"/>
    <path class="st2" d="M1412.19,419.24c-.3-.78-1.98-4.8-5.04-12.05-3.06-7.25-5.04-12.21-5.94-14.88,9.56-3.66,17.17-6.19,22.85-7.59,1.57-.41,3.13-.35,4.68.18,1.55.53,2.88,1.29,3.99,2.27,1.11.98,2.23,2.32,3.36,4,1.12,1.68,2,3.14,2.63,4.37.63,1.23,1.33,2.69,2.11,4.38,5.3,11.68,8.53,20.12,9.69,25.31.5,2.31.23,4.66-.82,7.04-1.04,2.39-2.46,4.45-4.26,6.19-1.8,1.75-3.84,3.31-6.13,4.7-2.6,1.57-5.44,2.95-8.51,4.12-3.07,1.18-5.11,1.89-6.1,2.14-2-4.23-6.18-14.29-12.51-30.19ZM1420.72,404.35c.79,2.07,2.33,5.88,4.62,11.45,2.29,5.56,3.66,8.93,4.11,10.1.99-.44,1.97-1.34,2.95-2.71.98-1.37,1.36-2.68,1.13-3.94-.52-2.88-1.64-6.39-3.36-10.54-.72-1.71-1.96-2.98-3.72-3.81-1.76-.83-3.67-1.01-5.73-.55Z"/>
  </g>
</svg>