<?xml version="1.0" encoding="UTF-8"?>
<svg id="Layer_1" data-name="Layer 1" xmlns="http://www.w3.org/2000/svg" viewBox="0 0 189.04 165.16">
  <defs>
    <style>
      .cls-1 {
        fill: #ffeb00;
      }
    </style>
  </defs>
  <polygon class="cls-1" points="145.88 147.57 155.95 132.01 147.32 107.8 120.94 85.61 151.64 85.61 180.4 109.82 189.04 134.03 178.96 149.6 189.04 165.16 153.42 161.7 145.88 147.57"/>
  <polygon class="cls-1" points="163.15 44.67 138.21 72.92 105.53 70.44 130.06 42.66 113.2 11.13 133.41 2.02 145.88 12.39 163.15 44.67"/>
  <polygon class="cls-1" points="139.54 147.57 149.61 163.14 0 163.14 8.63 118.18 60.49 83.59 112.2 83.59 114.6 85.61 140.98 107.8 149.61 132.01 139.54 147.57"/>
  <polygon class="cls-1" points="123.72 42.66 99.19 70.44 98.78 70.91 60.9 68.02 46.51 42.66 63.3 13.83 93.99 0 106.45 10.38 106.86 11.13 123.72 42.66"/>
</svg>