<?xml version="1.0" encoding="UTF-8"?>
<svg id="Layer_1" xmlns="http://www.w3.org/2000/svg" version="1.1" viewBox="0 0 750 385.89">
  <!-- Generator: Adobe Illustrator 30.1.0, SVG Export Plug-In . SVG Version: 2.1.1 Build 136)  -->
  <defs>
    <style>
      .st0 {
        fill: #ffeb00;
      }

      .st1 {
        fill: #3f3d3e;
      }

      .st2 {
        fill: #77787a;
      }

      .st3 {
        fill: #231f20;
      }

      .st4 {
        fill: #939598;
      }

      .st5 {
        fill: #5b5a5c;
      }
    </style>
  </defs>
  <g>
    <polygon class="st4" points="598.88 32.84 641.32 23.03 696.97 33.64 704.78 57.26 695.77 78.88 699.17 89.09 645.92 79.68 604.69 89.09 568.86 79.28 578.67 64.27 568.86 35.84 586.07 23.03 598.88 32.84"/>
    <polygon class="st2" points="495.72 49.31 577.36 30.44 684.43 50.85 699.45 96.3 682.12 137.89 688.67 157.53 586.22 139.43 506.89 157.53 437.95 138.66 456.82 109.78 437.95 55.09 471.07 30.44 495.72 49.31"/>
    <polygon class="st5" points="392.55 65.78 513.41 37.85 671.89 68.06 694.12 135.33 668.47 196.9 678.16 225.98 526.52 199.18 409.08 225.98 307.04 198.04 334.97 155.29 307.04 74.33 356.07 37.85 392.55 65.78"/>
    <polygon class="st1" points="289.39 82.26 449.45 45.26 659.35 85.28 688.79 174.37 654.82 255.91 667.65 294.42 466.82 258.93 311.28 294.42 176.13 257.42 213.13 200.79 176.13 93.58 241.06 45.26 289.39 82.26"/>
    <polygon class="st3" points="186.22 98.73 385.49 52.67 646.81 102.49 683.47 213.4 641.17 314.92 657.15 362.86 407.11 318.68 213.48 362.86 45.22 316.8 91.28 246.3 45.22 112.83 126.06 52.67 186.22 98.73"/>
  </g>
  <g>
    <path class="st0" d="M268.15,228.13c-4.57,0-8.57-.79-11.99-2.36s-6.45-4.14-9.06-7.71c-2.62-3.57-4.55-8.47-5.78-14.7-1.24-6.23-1.71-13.78-1.43-22.63.48-12.85,2.28-22.65,5.42-29.41,3.14-6.76,8.14-11.66,14.99-14.7,6.95-2.76,13.47-3.28,19.56-1.57,6.09,1.71,10.28,4.76,12.56,9.14,2.85,5.52,3.43,12.42,1.71,20.7-2.38.19-7.66,0-15.85-.57-.67-3.9-1.41-6.5-2.21-7.78-.81-1.29-2.59-2.02-5.35-2.21-2.95-.09-5.33,1.52-7.14,4.85-1.81,3.33-2.52,7.66-2.14,12.99,1.52-.95,3.43-1.69,5.71-2.21,2.28-.52,4.73-.76,7.35-.71,2.62.05,5.23.62,7.85,1.71,2.62,1.1,4.97,2.57,7.07,4.43,2.09,1.86,3.78,4.52,5.07,7.99,1.28,3.48,1.88,7.49,1.78,12.06,0,5.52-.6,10.33-1.78,14.42-1.19,4.09-2.67,7.28-4.43,9.56-1.76,2.28-3.95,4.09-6.57,5.42-2.62,1.33-5.09,2.21-7.42,2.64-2.33.43-4.97.64-7.92.64ZM263.58,198.29c.09,4,.59,6.54,1.5,7.64.9,1.09,2.64,1.64,5.21,1.64,4.28,0,6.47-3.09,6.57-9.28.09-2.57-.45-4.5-1.64-5.78-1.19-1.29-2.88-1.93-5.07-1.93s-3.71.69-4.85,2.07c-1.14,1.38-1.71,3.26-1.71,5.64Z"/>
    <path class="st0" d="M328.82,160.03c-3.52.57-10.09.76-19.7.57-.19-4.09.07-7.99.79-11.71s2.05-7,4-9.85c1.95-2.85,4.45-4.57,7.49-5.14,3.81-.86,5.88-1.31,6.21-1.36.33-.05,1.45-.24,3.35-.57,1.9-.33,3.16-.5,3.78-.5s1.78-.07,3.5-.21c1.71-.14,2.97-.14,3.78,0,.81.14,1.95.33,3.43.57,1.47.24,2.66.57,3.57,1,.9.43,1.9.98,3,1.64,1.09.67,2.07,1.43,2.93,2.28,4.28,4.28,6.38,12.66,6.28,25.12-.1,4.09-.93,7.9-2.5,11.42-1.57,3.52-3.4,6.04-5.5,7.57,3.23,2.28,5.5,6.14,6.78,11.56,1.28,5.42,1.45,10.95.5,16.56-.57,3.14-1.31,5.85-2.21,8.14-.91,2.28-2.28,4.59-4.14,6.92-1.86,2.33-4.47,4.09-7.85,5.28-3.38,1.19-7.4,1.78-12.06,1.78-7.71,0-13.87-1.71-18.49-5.14-4.62-3.43-7.02-8.04-7.21-13.85-.38-9.9-.38-16.04,0-18.42,1.43,0,4.45-.02,9.07-.07,4.61-.05,7.45-.07,8.49-.07-.38,4.09-.1,8.19.86,12.28.95,4.09,2.66,6.14,5.14,6.14,1.05-.09,1.93-.36,2.64-.79.71-.43,1.26-.95,1.64-1.57.38-.62.69-1.59.93-2.93.24-1.33.38-2.47.43-3.43.05-.95.07-2.43.07-4.42,0-.48.05-.81.14-1,.09-4.28-.88-7.3-2.93-9.06-2.05-1.76-5.59-2.64-10.64-2.64,0-7.23.09-12.47.29-15.7,4.85,0,8.61-1.07,11.28-3.21,2.66-2.14,4.09-4.97,4.28-8.49.19-6.09-1.67-9.14-5.57-9.14-1.71,0-3.12.93-4.21,2.78-1.1,1.86-1.64,4.4-1.64,7.64Z"/>
    <path class="st0" d="M404.34,228.13c-3.43.09-6.59-.19-9.49-.86-2.9-.67-5.81-2.07-8.71-4.21-2.9-2.14-5.31-4.95-7.21-8.42-1.91-3.47-3.4-8.18-4.5-14.13-1.1-5.95-1.55-12.92-1.36-20.91.48-14.94,3.73-26.08,9.78-33.4,6.04-7.33,14.06-11.04,24.05-11.14,9.71-.09,17.01,3.55,21.91,10.92,4.9,7.38,7.21,19.54,6.92,36.47-.19,8.47-1.14,15.75-2.86,21.84-1.71,6.09-4.07,10.8-7.07,14.13-3,3.33-6.23,5.76-9.71,7.28-3.47,1.52-7.4,2.33-11.78,2.43ZM394.06,179.45c-.1,7.71.73,13.73,2.5,18.06,1.76,4.33,4.35,6.35,7.78,6.07,3.33-.19,5.95-2.62,7.85-7.28,1.9-4.66,2.9-10.28,3-16.84,0-6.38-.91-11.42-2.71-15.13-1.81-3.71-4.28-5.52-7.42-5.42-3.52.19-6.21,1.83-8.07,4.92-1.86,3.09-2.83,8.3-2.93,15.63Z"/>
    <path class="st0" d="M479,228.13c-3.43.09-6.59-.19-9.49-.86-2.9-.67-5.81-2.07-8.71-4.21-2.9-2.14-5.31-4.95-7.21-8.42-1.9-3.47-3.4-8.18-4.5-14.13-1.1-5.95-1.55-12.92-1.36-20.91.47-14.94,3.73-26.08,9.78-33.4,6.04-7.33,14.06-11.04,24.05-11.14,9.71-.09,17.01,3.55,21.91,10.92,4.9,7.38,7.21,19.54,6.92,36.47-.19,8.47-1.14,15.75-2.86,21.84-1.71,6.09-4.07,10.8-7.07,14.13-3,3.33-6.23,5.76-9.71,7.28-3.48,1.52-7.4,2.33-11.78,2.43ZM468.72,179.45c-.1,7.71.74,13.73,2.5,18.06,1.76,4.33,4.35,6.35,7.78,6.07,3.33-.19,5.95-2.62,7.85-7.28,1.9-4.66,2.9-10.28,3-16.84,0-6.38-.91-11.42-2.71-15.13-1.81-3.71-4.28-5.52-7.42-5.42-3.52.19-6.21,1.83-8.07,4.92-1.86,3.09-2.83,8.3-2.93,15.63Z"/>
  </g>
  <g>
    <path class="st0" d="M279.62,267.58c.09-2.2.09-4.72,0-7.56.26,0,.67-.01,1.24-.05.56-.03,1.07-.05,1.52-.05s.86.03,1.21.09c.09,1.11.14,2.09.14,2.96s-.02,1.84-.07,2.92c-.05,1.09-.07,1.95-.07,2.6-.05,4.28-.06,6.65-.05,7.09h-3.93c0-.52,0-1.36-.02-2.51-.02-1.15-.02-2.19-.02-3.12s.02-1.73.05-2.39Z"/>
    <path class="st0" d="M286.14,266.07c.02-.17.06-2.2.14-6.08,1.11-.03,2.15-.04,3.13-.02.98.02,1.64.05,1.98.09,1.42,3.87,2.25,6.05,2.5,6.54.12-.91.25-2.13.37-3.66.12-1.53.18-2.49.16-2.88,1.36-.09,2.36-.05,3,.12.05.86-.04,3.07-.25,6.63s-.39,6.24-.53,8.04c-.37.03-.78.05-1.24.05s-.9,0-1.35-.02c-.45-.01-.72-.02-.81-.02-.18-.4-.51-1.18-.97-2.33-.46-1.16-.87-2.13-1.22-2.92-.35-.79-.65-1.37-.88-1.72-.03.82-.07,1.84-.12,3.06s-.08,2.17-.1,2.83c-.02.66-.03,1.1-.03,1.32-.48.2-1.73.26-3.77.18-.08-1.31-.11-2.93-.1-4.86,0-1.93.04-3.38.1-4.33Z"/>
    <path class="st0" d="M301.87,274.85c-.05-.29-.52-2.56-1.42-6.79-.9-4.24-1.37-6.75-1.4-7.53.42,0,.92,0,1.52-.02s1.11-.02,1.54-.02.81.02,1.17.05c.11.48.29,1.35.55,2.61.26,1.26.5,2.4.72,3.41.22,1.01.35,1.6.42,1.77.22-.46.43-.96.65-1.49.22-.53.52-1.34.92-2.42h2.96c.46,1.89.73,3.07.81,3.51.22-.57.47-1.37.75-2.39s.57-2.08.84-3.17c.28-1.09.44-1.71.49-1.88.29,0,1.11-.03,2.45-.09,1.34-.06,2.16-.08,2.47-.05-.22.69-.46,1.58-.73,2.66s-.57,2.32-.9,3.73c-.33,1.41-.52,2.21-.57,2.42-.25.99-.52,2.19-.82,3.6-.3,1.42-.47,2.26-.5,2.52h-5.18c-.12-.38-.26-.86-.4-1.43-.15-.57-.28-1.16-.4-1.76-.12-.6-.21-.99-.25-1.16-.4.63-1.08,1.89-2.03,3.79-.42.06-1.05.1-1.89.13-.85.02-1.43.03-1.76.01Z"/>
    <path class="st0" d="M317.63,271.32c-.08-1.22-.07-2.37.01-3.46.08-1.08.24-2.44.47-4.05.37-2.51,2.11-3.83,5.22-3.97,1.28-.05,2.33.32,3.14,1.09.82.77,1.3,1.94,1.46,3.51.14,1.65.14,3.25.01,4.81-.13,1.56-.35,2.8-.66,3.74-.48,1.43-2.07,2.2-4.78,2.31-.48.02-.98-.06-1.51-.22-.53-.16-1.04-.4-1.54-.73-.49-.32-.91-.75-1.25-1.28-.34-.53-.53-1.11-.58-1.74ZM321.88,264.85c-.14.65-.25,1.49-.32,2.52-.08,1.03-.11,1.81-.09,2.33,0,.45.13.84.39,1.19.26.35.53.54.81.57.31.03.58-.04.82-.21.24-.17.41-.47.52-.9.09-.42.18-1.21.25-2.38s.12-2.08.12-2.73c0-.52-.12-.93-.36-1.21s-.5-.43-.8-.43c-.72,0-1.17.42-1.34,1.25Z"/>
    <path class="st0" d="M330.24,266.07c.02-.17.06-2.2.14-6.08,1.11-.03,2.15-.04,3.13-.02.98.02,1.64.05,1.98.09,1.42,3.87,2.25,6.05,2.5,6.54.12-.91.25-2.13.37-3.66.12-1.53.18-2.49.16-2.88,1.36-.09,2.36-.05,3,.12.05.86-.04,3.07-.25,6.63s-.39,6.24-.53,8.04c-.37.03-.78.05-1.24.05s-.9,0-1.35-.02c-.45-.01-.72-.02-.81-.02-.18-.4-.51-1.18-.97-2.33-.46-1.16-.87-2.13-1.22-2.92-.35-.79-.65-1.37-.88-1.72-.03.82-.07,1.84-.12,3.06s-.08,2.17-.1,2.83c-.02.66-.03,1.1-.03,1.32-.48.2-1.73.26-3.77.18-.08-1.31-.11-2.93-.1-4.86,0-1.93.04-3.38.1-4.33Z"/>
    <path class="st0" d="M353.76,275.57c-.68-.05-2.25-.07-4.71-.07s-4.19-.02-5.18-.05c0-.79,0-1.77-.02-2.96-.02-1.19-.02-2.19-.02-3s.02-1.55.05-2.22c.05-.83.05-2.16.02-3.97-.03-1.82-.04-2.8-.02-2.93.54-.03,1.56-.09,3.06-.18,1.5-.09,2.84-.17,4.02-.22s1.99-.07,2.44-.04c.06,1,.06,2.41,0,4.23-.32-.01-1.26.02-2.81.1-1.55.08-2.41.12-2.6.1,0,.18,0,.5.02.94.02.44.02.72.02.84l2.7-.09c.09,1.59.14,2.51.14,2.77l-2.77.16c-.02,1.22-.02,2.07,0,2.56,3.03-.09,4.77-.13,5.22-.12.29,2.74.44,4.12.44,4.14Z"/>
    <path class="st0" d="M356.26,275.27c.03-.83.02-3.33-.03-7.51-.05-4.17-.1-6.71-.15-7.6.28-.01.73-.05,1.35-.12s1.08-.1,1.36-.13c.28-.02.68-.04,1.19-.06.51-.02.9,0,1.19.03.28.04.61.1.97.18.36.08.67.21.94.37.26.16.49.37.69.61.49.54.78,1.27.85,2.21.08.93-.04,1.85-.35,2.75-.31.9-.75,1.6-1.32,2.09,1.62,4.14,2.56,6.46,2.82,6.95-1.37.14-2.57.21-3.6.21-.22-.37-.6-1.17-1.17-2.4-.56-1.23-.94-1.96-1.12-2.2,0,.74.02,1.46.06,2.15.04.69.08,1.25.12,1.68s.06.68.06.77c-.22,0-.62,0-1.2.01s-1.11.01-1.57.01-.82,0-1.09-.02ZM359.47,263.42c.02.2.04.6.08,1.21s.07,1.03.08,1.26c.32-.03.6-.16.82-.38.22-.22.33-.52.33-.89-.02-.38-.15-.71-.42-.97-.26-.26-.56-.34-.9-.23Z"/>
    <path class="st0" d="M370.28,268.06c-.31-.08-.59-.17-.85-.29-.26-.12-.53-.3-.81-.57-.28-.26-.49-.57-.65-.92-.15-.35-.23-.82-.22-1.39,0-.57.13-1.2.36-1.89.49-1.54,1.41-2.51,2.76-2.92,1.35-.41,2.87-.2,4.56.64-.14,1.11-.34,2.27-.6,3.49-.75-.34-1.42-.52-2-.53-.58-.01-.93.13-1.05.44-.17.37.02.77.58,1.21.55.44,1.29.87,2.2,1.28.92.42,1.5,1.21,1.72,2.37.22,1.16.07,2.38-.45,3.66-.51,1.34-1.54,2.24-3.11,2.69-1.56.46-3.48.36-5.74-.29.09-.75.25-1.67.49-2.75.23-1.08.42-1.76.58-2.03,2.5,1.06,3.95,1.08,4.37.05.19-.51.05-.97-.39-1.39-.45-.42-1.02-.7-1.73-.85Z"/>
    <path class="st0" d="M383.59,266.79v-6.72c.52-.11,1.83-.07,3.91.12-.15,2.29-.15,5.53,0,9.7.01.46.02,1.08.02,1.86s0,1.56-.01,2.35c0,.79-.01,1.22-.01,1.29-.26,0-.92.02-1.99.07-1.06.05-1.7.07-1.92.07-.03-.57-.05-1.39-.05-2.46s0-2.27.02-3.59c.01-1.33.02-2.22.02-2.68Z"/>
    <path class="st0" d="M389.92,266.07c.01-.17.06-2.2.14-6.08,1.11-.03,2.15-.04,3.13-.02.98.02,1.64.05,1.98.09,1.42,3.87,2.25,6.05,2.5,6.54.12-.91.25-2.13.37-3.66.12-1.53.18-2.49.16-2.88,1.35-.09,2.36-.05,3,.12.05.86-.04,3.07-.25,6.63s-.39,6.24-.53,8.04c-.37.03-.78.05-1.24.05s-.91,0-1.35-.02c-.45-.01-.72-.02-.81-.02-.18-.4-.51-1.18-.97-2.33-.46-1.16-.87-2.13-1.22-2.92-.35-.79-.65-1.37-.88-1.72-.03.82-.07,1.84-.12,3.06s-.08,2.17-.1,2.83c-.02.66-.04,1.1-.04,1.32-.48.2-1.73.26-3.77.18-.08-1.31-.11-2.93-.1-4.86,0-1.93.04-3.38.1-4.33Z"/>
    <path class="st0" d="M410.65,275.45c0-.38.01-1.35.03-2.9.02-1.55.04-2.71.05-3.49s0-1.98-.01-3.59c-.25,0-.54,0-.88-.02-.34-.01-.66-.03-.97-.05-.31-.02-.49-.02-.53-.02.09-.8.13-1.6.12-2.4.82-.15,1.44-.46,1.86-.91.42-.45.71-1.18.87-2.18.49-.03.9-.04,1.22-.03s.73.02,1.22.05c.49.02.8.03.92.03-.06,3.56-.08,6.42-.07,8.57.02.96.02,1.91.02,2.88s0,1.87-.01,2.73c0,.85-.01,1.34-.01,1.44-1.14.02-2.42-.02-3.83-.09Z"/>
    <path class="st0" d="M418.69,267.71c-.45-.35-.79-.79-1.02-1.29-.23-.51-.34-1.27-.32-2.29.03-1.09.49-2.06,1.36-2.91.88-.85,2.02-1.29,3.42-1.34.71-.01,1.33.08,1.85.29s.94.51,1.24.9c.3.39.53.82.68,1.28.15.46.25.98.28,1.55.09,1.56-.32,2.72-1.22,3.49.68.32,1.17.86,1.49,1.62.32.75.47,1.61.47,2.56,0,.48-.1.95-.31,1.41s-.52.9-.92,1.31-.98.74-1.72.99-1.58.37-2.52.36c-.96-.02-1.76-.14-2.43-.38-.66-.24-1.16-.57-1.5-1.01-.34-.43-.58-.89-.72-1.39s-.21-1.05-.21-1.69c0-.82.24-1.56.72-2.23.48-.67.94-1.08,1.39-1.24ZM420.3,270.63c-.06,1.25.35,1.85,1.25,1.8.43-.01.79-.17,1.06-.47.28-.3.43-.74.46-1.33.02-.58-.1-1.01-.33-1.28-.24-.27-.57-.39-1-.36-.42.03-.75.18-1,.46s-.4.67-.43,1.18ZM420.67,264.48c-.02.54.08.96.28,1.27.2.31.5.45.9.44.45-.03.79-.17,1.02-.42.23-.25.35-.65.35-1.22.02-.55-.08-.93-.29-1.13-.21-.2-.5-.29-.89-.28-.88.05-1.33.49-1.36,1.34Z"/>
    <path class="st0" d="M435.07,269.01c-.43.29-.92.47-1.48.52-.55.05-1.1-.02-1.64-.22-.54-.2-1.04-.5-1.49-.9-.46-.4-.82-.94-1.09-1.61-.27-.67-.4-1.41-.38-2.23.02-1.42.44-2.53,1.26-3.34.82-.81,1.95-1.24,3.38-1.28,1.39-.06,2.39.26,3,.97.62.71,1.05,1.97,1.29,3.79.18,1.09.24,2.21.16,3.34-.08,1.13-.18,2.05-.31,2.75-.13.7-.27,1.3-.43,1.79-.23.66-.73,1.31-1.49,1.95-.76.64-1.6.97-2.51,1-.43.02-.86-.02-1.28-.09-.42-.08-.86-.23-1.29-.46-.44-.23-.81-.53-1.12-.89-.31-.36-.54-.84-.69-1.44-.15-.6-.19-1.29-.09-2.08.46-.05,1.32-.04,2.59.02.01.32.18.62.51.9.32.28.71.4,1.16.37.55-.03,1.01-.28,1.38-.76.36-.48.55-1.18.57-2.1ZM432.16,264.43c0,.71.1,1.2.29,1.48s.5.41.94.39c.42-.01.75-.18.99-.51.25-.32.38-.75.39-1.29,0-.51-.11-.9-.33-1.17s-.52-.4-.89-.4c-.4.02-.73.15-.98.39-.25.25-.39.62-.4,1.11Z"/>
    <path class="st0" d="M446.27,269.01c-.43.29-.92.47-1.48.52-.55.05-1.1-.02-1.64-.22-.54-.2-1.04-.5-1.49-.9-.46-.4-.82-.94-1.09-1.61-.27-.67-.4-1.41-.38-2.23.02-1.42.44-2.53,1.26-3.34.82-.81,1.95-1.24,3.38-1.28,1.39-.06,2.39.26,3,.97.62.71,1.05,1.97,1.29,3.79.18,1.09.24,2.21.16,3.34-.08,1.13-.18,2.05-.31,2.75-.13.7-.27,1.3-.43,1.79-.23.66-.73,1.31-1.49,1.95-.76.64-1.6.97-2.51,1-.43.02-.86-.02-1.28-.09-.42-.08-.86-.23-1.29-.46-.44-.23-.81-.53-1.12-.89-.31-.36-.54-.84-.69-1.44-.15-.6-.19-1.29-.09-2.08.46-.05,1.32-.04,2.59.02.01.32.18.62.51.9.32.28.71.4,1.16.37.55-.03,1.01-.28,1.38-.76.36-.48.55-1.18.57-2.1ZM443.36,264.43c0,.71.1,1.2.29,1.48s.5.41.94.39c.42-.01.75-.18.99-.51.25-.32.38-.75.39-1.29,0-.51-.11-.9-.33-1.17s-.52-.4-.89-.4c-.4.02-.73.15-.98.39-.25.25-.39.62-.4,1.11Z"/>
  </g>
</svg>