<?xml version="1.0" encoding="UTF-8"?>
<svg id="Layer_1" data-name="Layer 1" xmlns="http://www.w3.org/2000/svg" xmlns:xlink="http://www.w3.org/1999/xlink" viewBox="0 0 257.11 173.18">
  <defs>
    <style>
      .cls-1 {
        fill: #b5b5b6;
      }

      .cls-2 {
        fill: none;
      }

      .cls-3 {
        fill: #545152;
      }

      .cls-4 {
        fill: #231f20;
      }

      .cls-5 {
        fill: #858384;
      }

      .cls-6 {
        clip-path: url(#clippath);
      }

      .cls-7 {
        fill: #e6e7e8;
      }
    </style>
    <clipPath id="clippath">
      <polygon class="cls-2" points="6.26 103.76 49.89 40.29 117.86 25.42 165.92 49.22 187.74 34.57 233.35 89.88 216.49 146.4 154.02 173.18 112.85 156.32 37.83 173.18 6.26 103.76"/>
    </clipPath>
  </defs>
  <g>
    <polygon class="cls-4" points="34.48 76.8 77.26 14.58 143.89 0 191 23.33 212.39 8.97 257.11 63.19 240.58 118.6 179.33 144.85 138.97 128.32 65.44 144.85 34.48 76.8"/>
    <polygon class="cls-3" points="28.51 82.63 71.29 20.41 137.92 5.83 185.03 29.16 206.42 14.8 251.13 69.02 234.61 124.43 173.36 150.68 133 134.15 59.47 150.68 28.51 82.63"/>
    <polygon class="cls-5" points="22.54 88.45 65.32 26.24 131.95 11.66 179.06 34.99 200.45 20.63 245.16 74.84 228.64 130.26 167.39 156.5 127.03 139.98 53.5 156.5 22.54 88.45"/>
    <polygon class="cls-1" points="16.57 94.28 59.35 32.06 125.98 17.48 173.09 40.81 194.48 26.46 239.19 80.67 222.67 136.08 161.42 162.33 121.06 145.81 47.53 162.33 16.57 94.28"/>
    <polygon class="cls-7" points="10.6 100.11 53.38 37.89 120.01 23.31 167.12 46.64 188.51 32.28 233.22 86.5 216.7 141.91 155.45 168.16 115.09 151.63 41.55 168.16 10.6 100.11"/>
  </g>
  <g class="cls-6">
    <image width="1024" height="614" transform="translate(0 25.42) scale(.24)" xlink:href="Kanari.jpg"/>
  </g>
</svg>