<?xml version="1.0" encoding="UTF-8"?>
<svg id="Layer_1" xmlns="http://www.w3.org/2000/svg" version="1.1" viewBox="0 0 595.28 326.23">
  <!-- Generator: Adobe Illustrator 30.1.0, SVG Export Plug-In . SVG Version: 2.1.1 Build 136)  -->
  <defs>
    <style>
      .st0 {
        fill: #231f20;
      }

      .st1 {
        isolation: isolate;
      }

      .st2 {
        fill: #2db45c;
      }
    </style>
  </defs>
  <polygon class="st0" points="200.51 44.36 306.26 23.78 462.35 70.09 464.04 151.24 446.75 203.45 446.75 293.5 319.21 281.5 203.51 312.14 122 269 155.14 189.27 127.33 89.89 151.29 23.78 200.51 44.36"/>
  <g class="st1">
    <g class="st1">
      <g class="st1">
        <path class="st2" d="M202.6,238.16c-.04-.29-.14-.84-.3-1.65s-.29-1.4-.38-1.79c-.09-.38-.21-.91-.36-1.57s-.31-1.28-.49-1.87c-.18-.59-.4-1.19-.66-1.81l-4.4,10.01-7.59-.33c-1.94-7.52-3.41-13.37-4.4-17.54-.44-1.91-.94-4.31-1.48-7.21s-1-5.39-1.35-7.48-.52-3.26-.52-3.52c.95,0,3.03.06,6.24.19s5,.18,5.36.14c.26,1.32.76,4.28,1.51,8.88s1.13,6.96,1.13,7.07c.37-.88.96-2.12,1.79-3.71.82-1.59,1.26-2.5,1.29-2.72.95.04,2.34.02,4.15-.05s2.91-.09,3.27-.05c.15.66.39,1.67.72,3.03s.62,2.57.88,3.63c.26,1.06.46,1.82.6,2.26.26-1.17.82-4.15,1.68-8.94.86-4.79,1.68-8.11,2.45-9.98,1.17-.11,3.12-.11,5.83,0s4.29.22,4.73.33c-4.22,16.21-7.22,27.79-9.02,34.76-1.61.18-3.58.25-5.89.19s-3.9-.14-4.78-.25v-.02h0Z"/>
        <path class="st2" d="M249.29,240.14c-1.61-.11-5.35-.17-11.22-.17s-9.97-.04-12.32-.11c0-1.87-.02-4.22-.05-7.04-.04-2.82-.06-5.21-.06-7.15s.04-3.7.11-5.28c.11-1.98.13-5.13.06-9.46s-.09-6.66-.06-6.99c1.28-.07,3.71-.22,7.29-.44s6.77-.39,9.57-.52c2.81-.13,4.74-.16,5.8-.08.15,2.38.15,5.74,0,10.07-.77-.04-3,.04-6.68.25-3.69.2-5.75.29-6.19.25,0,.44.02,1.18.06,2.23.04,1.04.05,1.71.05,2.01l6.44-.22c.22,3.78.33,5.98.33,6.6l-6.6.38c-.04,2.9-.04,4.93,0,6.11,7.22-.22,11.37-.31,12.43-.28.7,6.53,1.04,9.81,1.04,9.85h0Z"/>
        <path class="st2" d="M254.79,218.8c-.04-1.58-.04-3.68,0-6.3.04-2.62.06-4.54.06-5.75s-.02-2.53-.06-3.96c4.8,0,8.42.17,10.83.49v14.36c-.07,1.06-.02,2.82.17,5.28.18,2.46.27,3.74.27,3.85.95.15,3.54.42,7.75.82.18,1.36.31,3.38.39,6.08.07,2.7.11,4.63.11,5.8-.99-.07-2.88-.12-5.67-.14s-4.58-.04-5.39-.08c-3.37-.22-5.94-.35-7.7-.38-.04-1.32-.13-3.37-.27-6.16-.15-2.79-.27-5.34-.36-7.67s-.14-4.41-.14-6.24h.01Z"/>
        <path class="st2" d="M283.61,240.09c-4.36-18.59-7.06-30.95-8.08-37.07,3.23-.51,6.69-.66,10.4-.44.4,3.19,1.12,8.04,2.15,14.55,1.03,6.51,1.69,10.35,1.98,11.52.48-2.09,1.33-6.69,2.56-13.8s1.97-11.2,2.23-12.27c3.48-.07,6.07.06,7.76.39-2.82,21.82-4.46,34.19-4.9,37.12-.4,0-1.75,0-4.04-.03-2.29-.02-4.37-.03-6.24-.03s-3.13.02-3.79.06h-.03Z"/>
        <path class="st2" d="M308.86,219.29c.44-1.43,1.06-3.36,1.87-5.78s1.48-4.46,2.01-6.13.91-2.98,1.13-3.93c4.18,0,6.8.07,7.86.22.55,2.09,1.45,5.29,2.7,9.6,1.25,4.31,2.09,7.34,2.53,9.1.55,2.2,1.29,5.5,2.23,9.9.93,4.4,1.49,7.09,1.68,8.08-3.45.22-6.21.22-8.3,0-.22-1.17-.6-3.05-1.16-5.64-.55-2.59-.84-4.24-.88-4.98-2.27,0-4.34.15-6.21.44-.4,1.25-.82,2.9-1.24,4.95-.42,2.05-.63,3.41-.63,4.07-.88.11-2.42.19-4.62.25-2.2.05-3.67.03-4.4-.08,2.02-8.18,3.83-14.87,5.44-20.07h-.01ZM316.29,221.99h2.92c-.51-2.05-1.06-3.54-1.65-4.46-.33,1.43-.75,2.91-1.26,4.46h-.01Z"/>
        <path class="st2" d="M338.72,219.29c.44-1.43,1.06-3.36,1.87-5.78s1.48-4.46,2.01-6.13.91-2.98,1.13-3.93c4.18,0,6.8.07,7.87.22.55,2.09,1.45,5.29,2.7,9.6,1.25,4.31,2.09,7.34,2.53,9.1.55,2.2,1.29,5.5,2.23,9.9s1.49,7.09,1.68,8.08c-3.45.22-6.21.22-8.3,0-.22-1.17-.61-3.05-1.16-5.64-.55-2.59-.84-4.24-.88-4.98-2.27,0-4.34.15-6.21.44-.4,1.25-.82,2.9-1.24,4.95-.42,2.05-.63,3.41-.63,4.07-.88.11-2.42.19-4.62.25s-3.67.03-4.4-.08c2.02-8.18,3.83-14.87,5.45-20.07h-.03ZM346.15,221.99h2.92c-.51-2.05-1.06-3.54-1.65-4.46-.33,1.43-.75,2.91-1.27,4.46h0Z"/>
        <path class="st2" d="M365.12,239.43c.07-1.98.04-7.94-.08-17.88-.13-9.94-.25-15.97-.36-18.1.66-.04,1.73-.13,3.22-.28s2.57-.25,3.25-.3,1.62-.1,2.83-.14,2.15,0,2.83.08c.68.09,1.45.24,2.31.44s1.6.5,2.23.88c.62.38,1.17.87,1.65,1.46,1.17,1.29,1.85,3.04,2.04,5.25.18,2.22-.09,4.4-.83,6.55-.73,2.14-1.78,3.8-3.13,4.98,3.85,9.86,6.09,15.38,6.71,16.55-3.26.33-6.12.5-8.58.5-.51-.88-1.44-2.79-2.78-5.72-1.34-2.93-2.23-4.68-2.67-5.22,0,1.76.05,3.46.14,5.12.09,1.65.18,2.98.27,3.99.09,1.01.14,1.62.14,1.84-.51,0-1.47,0-2.86.03-1.39.02-2.64.03-3.74.03s-1.96-.02-2.58-.05h-.01ZM372.77,211.21c.04.48.1,1.44.19,2.89s.16,2.45.19,3c.77-.07,1.42-.38,1.95-.91s.8-1.24.8-2.12c-.04-.92-.37-1.69-.99-2.31s-1.34-.81-2.15-.55h0Z"/>
        <path class="st2" d="M389.93,212.8c-.04-.77-.11-2.23-.22-4.37-.11-2.14-.17-3.69-.17-4.65,2.09,0,4.63-.1,7.62-.3s5.23-.32,6.74-.36c4.99-.07,8.51-.07,10.56,0,.29,3.63.29,6.91,0,9.85-.81,0-2.25.04-4.32.11s-3.25.11-3.55.11c-.04,2.16-.07,5.34-.11,9.52-.04,4.18-.05,6.62-.05,7.31-.04,1.32-.06,3.02-.06,5.09s.02,3.47.06,4.21c-.77.15-3.78.15-9.02,0,.26-16.39.35-25.3.28-26.73-.4,0-1.63.04-3.69.14s-3.41.12-4.07.08h0Z"/>
      </g>
    </g>
  </g>
  <g>
    <path class="st2" d="M282.76,73.68l-82.25,4.11,1.54,48.56-1.54,46.52,87.18-6.16,94.88,4.31v-93.23l-99.81-4.11ZM246.41,125.74l-6.16,5.85-8.62-2.16-1.23-9.24,7.7-5.24,8.32,2.62v8.16h-.01ZM317.48,129.42l-4.17,4.73-14.39,10.23-30.67-6.25-2.65-15.91,2.65-10.98,14.77-14.77h28.78l5.68,7.39v25.56h0ZM357.93,125.74l-6.16,5.85-8.62-2.16-1.23-9.24,7.7-5.24,8.32,2.62v8.16h-.01Z"/>
    <path class="st2" d="M299.92,119.78h-3.91l-1.46-2.57v-6.26h6.5v-4.53l-5,.71-1.5-.13v-2.78h-2.52v2.55l-3.99-.35-2.69,4.53v6.79l5.23,5.91,2.61.55v3.73l-7.85,1.98,1.84,3.96,6.01-.98v3.37h3.37v-3.92l2.79-.46,3.11-4.31v-3.92l-2.55-3.87h0ZM291.85,119.78l-4.67-4.87,2.55-3.96h2.3v7.69l.58,1.14h-.76,0ZM296.56,126.56v-1.64l2.23.47-2.23,1.17Z"/>
  </g>
</svg>