<?xml version="1.0" encoding="UTF-8"?>
<svg id="Layer_1" xmlns="http://www.w3.org/2000/svg" version="1.1" viewBox="0 0 595.28 326.23">
  <!-- Generator: Adobe Illustrator 30.1.0, SVG Export Plug-In . SVG Version: 2.1.1 Build 136)  -->
  <defs>
    <style>
      .st0 {
        fill: #231f20;
      }

      .st1 {
        fill: #ffe652;
      }
    </style>
  </defs>
  <polygon class="st0" points="207.07 61.13 303.22 32.31 456.56 93 484 176.5 452.91 268.9 462.26 312.14 317.88 297.5 167.87 314.5 104 270.59 130.97 206.99 104 86.58 151.33 32.31 207.07 61.13"/>
  <polygon class="st1" points="313.49 128.19 348.57 161.64 339.65 172.23 296.74 128.64 255.98 170.89 246.7 159.73 268.54 139.23 269.96 139.5 269.75 138.15 288.24 120 262.83 94.2 249.07 111.44 233.65 98.74 240.33 91.86 241.39 92.25 241.09 91.07 274.78 56.39 287.63 71.67 272.87 84.63 271.91 84.5 271.91 85.48 270.24 86.94 296.45 111.94 322.04 86.81 315.25 79.75 315.79 78.07 313.98 78.67 306.38 71.95 320.63 58.17 335.35 73.43 338.11 70.74 345.36 78.07 343.21 80.69 351.9 91.62 350.2 95.81 353.56 94.47 361.63 112.75 335.82 100.85 330.18 94 305 120.09 313.01 127.73 312.86 128.43 313.49 128.19"/>
  <g>
    <path class="st1" d="M164.7,238.7c-.29-.84-.94-3.55-1.93-8.12-.99-4.57-1.85-7.68-2.59-9.33v17.73c-2.24,0-5.01-.09-8.32-.28,0-1.69-.19-7.6-.58-17.73-.39-10.13-.63-16.23-.74-18.28.18,0,4.72.17,13.6.5.48,1.58,1.37,4.42,2.67,8.54,1.3,4.11,2.1,6.66,2.4,7.66.99-2.17,2.21-5.08,3.66-8.76,1.45-3.67,2.4-6.17,2.84-7.49,3.78.22,6.94.35,9.47.38-.18,5.21-.24,11.6-.17,19.17,0,1.54.03,3.71.08,6.5.06,2.79.09,4.81.11,6.06s0,2.59-.03,4.02c-3.49,0-6.15-.06-7.99-.17.07-1.36.09-3.07.05-5.15-.04-2.07-.06-3.78-.08-5.12s-.06-2.79-.11-4.35c-.06-1.56-.08-2.49-.08-2.78-.99,2.5-2.26,5.9-3.8,10.22-1.54,4.31-2.31,6.49-2.31,6.53-.51.07-2.57.17-6.17.28l.02-.03h0Z"/>
    <path class="st1" d="M190.86,218.49v-16.03c1.25-.26,4.35-.17,9.31.28-.37,5.47-.37,13.18,0,23.13.04,1.1.05,2.58.05,4.43s0,3.72-.03,5.59c-.02,1.87-.03,2.9-.03,3.08-.62,0-2.2.05-4.74.17-2.53.11-4.06.17-4.57.17-.07-1.36-.11-3.31-.11-5.87s.02-5.41.06-8.56c.04-3.16.06-5.29.06-6.39h0Z"/>
    <path class="st1" d="M205.34,231.65c-.66-4.15-.85-7.34-.55-9.58.59,0,1.44,0,2.56.03,1.12.02,2.06.03,2.84.03s1.36-.02,1.76-.06c0,3.05.86,4.57,2.59,4.57,1.91,0,2.96-1.65,3.14-4.96.07-1.62.12-4.91.14-9.89.02-4.97-.03-8.14-.14-9.5,3.38,0,6.09.07,8.15.22,0,13.84-.2,22.91-.61,27.21-.26,2.75-1.14,5.05-2.64,6.88-1.51,1.84-3.56,2.81-6.17,2.92-2.75.11-5.19-.59-7.3-2.09-2.11-1.51-3.37-3.43-3.77-5.78h0Z"/>
    <path class="st1" d="M231.61,216.78c.04-.4.15-5.23.33-14.48,2.64-.07,5.13-.09,7.46-.06,2.33.04,3.9.11,4.71.22,3.38,9.22,5.36,14.41,5.95,15.59.29-2.17.59-5.08.88-8.73.29-3.65.42-5.94.39-6.86,3.23-.22,5.62-.13,7.16.28.11,2.06-.09,7.32-.61,15.81-.51,8.48-.94,14.87-1.27,19.17-.88.07-1.86.11-2.95.11s-2.16-.02-3.22-.05c-1.07-.04-1.71-.06-1.93-.06-.44-.95-1.21-2.81-2.31-5.56-1.1-2.75-2.07-5.08-2.92-6.97-.85-1.89-1.54-3.26-2.09-4.1-.07,1.95-.17,4.38-.28,7.3s-.19,5.17-.25,6.75-.08,2.62-.08,3.14c-1.14.48-4.13.62-8.98.44-.18-3.12-.27-6.99-.25-11.59.02-4.61.1-8.05.25-10.33v-.02h0Z"/>
    <path class="st1" d="M272.86,238.7c-3.56-.26-6.36-2.13-8.4-5.62-2.04-3.49-2.91-8.1-2.62-13.82.15-2.97.64-5.63,1.49-7.96.84-2.33,1.92-4.18,3.22-5.53,1.3-1.36,2.72-2.39,4.24-3.08,1.52-.7,3.09-1.03,4.71-.99,1.47.04,2.77.22,3.91.55s2.06.78,2.75,1.35c.7.57,1.24,1.09,1.62,1.57.39.48.76,1.05,1.13,1.71-.73.59-2.03,1.86-3.88,3.83-1.85,1.96-2.98,3.08-3.39,3.33-.81-.62-1.64-.98-2.51-1.07-.86-.09-1.65.06-2.37.47s-1.32,1.11-1.82,2.12-.76,2.25-.8,3.72c-.04,1.98.41,3.59,1.35,4.82.94,1.23,2.14,1.84,3.61,1.82,1.47-.02,3.1-.71,4.9-2.07,1.62,1.69,3.25,4.42,4.9,8.21-.04.04-.33.39-.88,1.07-.55.68-.95,1.14-1.18,1.38s-.66.66-1.27,1.27-1.18,1.05-1.71,1.32c-.53.28-1.17.59-1.9.94-.73.35-1.53.57-2.4.66-.86.09-1.77.1-2.73.03l.03-.03h0Z"/>
    <path class="st1" d="M289.88,226.37c0-11.93.24-19.95.72-24.07,1.62-.18,4.61-.18,8.98,0-.15,3.23-.24,7.54-.28,12.94-.04,5.4-.02,8.39.05,8.98.07,1.03.26,1.79.55,2.29.29.5.81.76,1.54.8.33,0,.62-.09.85-.28.24-.18.42-.48.55-.88s.22-.77.28-1.1.12-.81.19-1.43c.04-.15.05-.24.05-.28.15-1.21.36-4.43.63-9.67.28-5.23.39-8.91.36-11.04,1.1-.07,2.44-.08,4.02-.03s2.81.16,3.69.3c.4,10.39.4,18.39,0,24.01-.26,3.82-1.38,6.74-3.36,8.76-1.98,2.02-4.39,3.05-7.21,3.08-1.4.04-2.75-.15-4.05-.55-1.3-.4-2.54-1.05-3.72-1.96-1.18-.9-2.11-2.19-2.81-3.88s-1.05-3.69-1.05-6h.02Z"/>
    <path class="st1" d="M317.91,218.05c-.04-1.58-.04-3.68,0-6.31.04-2.62.05-4.54.05-5.75s-.02-2.53-.05-3.96c4.81,0,8.43.17,10.85.5v14.37c-.07,1.07-.02,2.83.17,5.29.18,2.46.28,3.75.28,3.86.95.15,3.54.42,7.77.83.18,1.36.31,3.39.38,6.08.07,2.7.11,4.64.11,5.81-.99-.07-2.88-.12-5.67-.14s-4.59-.05-5.4-.08c-3.38-.22-5.95-.35-7.71-.38-.04-1.32-.13-3.38-.28-6.17s-.27-5.35-.36-7.68c-.09-2.33-.14-4.41-.14-6.25v-.02h0Z"/>
    <path class="st1" d="M337.95,212.05c-.04-.77-.11-2.23-.22-4.38-.11-2.15-.17-3.7-.17-4.65,2.09,0,4.63-.1,7.63-.3,2.99-.2,5.24-.32,6.75-.36,4.99-.07,8.52-.07,10.57,0,.29,3.63.29,6.92,0,9.86-.81,0-2.25.04-4.32.11s-3.26.11-3.55.11c-.04,2.17-.07,5.34-.11,9.53s-.05,6.63-.05,7.32c-.04,1.32-.05,3.02-.05,5.09s.02,3.48.05,4.21c-.77.15-3.78.15-9.03,0,.26-16.41.35-25.33.28-26.77-.4,0-1.63.05-3.69.14s-3.41.12-4.08.08h-.01Z"/>
    <path class="st1" d="M366.04,226.37c0-11.93.24-19.95.72-24.07,1.62-.18,4.61-.18,8.98,0-.15,3.23-.24,7.54-.28,12.94-.04,5.4-.02,8.39.06,8.98.07,1.03.26,1.79.55,2.29.29.5.81.76,1.54.8.33,0,.61-.09.85-.28.24-.18.42-.48.55-.88.13-.4.22-.77.28-1.1.05-.33.12-.81.19-1.43.04-.15.05-.24.05-.28.15-1.21.36-4.43.63-9.67.28-5.23.39-8.91.36-11.04,1.1-.07,2.44-.08,4.02-.03s2.81.16,3.69.3c.4,10.39.4,18.39,0,24.01-.26,3.82-1.38,6.74-3.36,8.76-1.98,2.02-4.39,3.05-7.21,3.08-1.4.04-2.75-.15-4.05-.55-1.3-.4-2.54-1.05-3.72-1.96-1.17-.9-2.11-2.19-2.81-3.88s-1.05-3.69-1.05-6h0Z"/>
    <path class="st1" d="M394.07,226.37c0-11.93.24-19.95.72-24.07,1.62-.18,4.61-.18,8.98,0-.15,3.23-.24,7.54-.28,12.94-.04,5.4-.02,8.39.06,8.98.07,1.03.26,1.79.55,2.29.29.5.81.76,1.54.8.33,0,.61-.09.85-.28.24-.18.42-.48.55-.88.13-.4.22-.77.28-1.1.05-.33.12-.81.19-1.43.04-.15.05-.24.05-.28.15-1.21.36-4.43.63-9.67.28-5.23.39-8.91.36-11.04,1.1-.07,2.44-.08,4.02-.03s2.81.16,3.69.3c.4,10.39.4,18.39,0,24.01-.26,3.82-1.38,6.74-3.36,8.76-1.98,2.02-4.39,3.05-7.21,3.08-1.4.04-2.75-.15-4.05-.55-1.3-.4-2.54-1.05-3.72-1.96-1.17-.9-2.11-2.19-2.81-3.88s-1.05-3.69-1.05-6h0Z"/>
    <path class="st1" d="M422.54,238.7c.07-1.98.05-7.95-.08-17.9-.13-9.95-.25-15.99-.36-18.12.66-.04,1.73-.13,3.22-.28s2.57-.25,3.25-.3,1.62-.1,2.84-.14c1.21-.04,2.16,0,2.84.08.68.09,1.45.24,2.31.44s1.61.5,2.23.88c.62.39,1.17.87,1.65,1.46,1.17,1.29,1.85,3.04,2.04,5.26.18,2.22-.09,4.41-.83,6.55-.74,2.15-1.78,3.81-3.14,4.98,3.86,9.88,6.09,15.4,6.72,16.58-3.27.33-6.13.5-8.59.5-.51-.88-1.44-2.79-2.78-5.73s-2.23-4.68-2.67-5.23c0,1.76.05,3.47.14,5.12.09,1.65.18,2.98.28,3.99.09,1.01.14,1.62.14,1.85-.51,0-1.47,0-2.86.03s-2.64.03-3.75.03-1.96-.02-2.59-.05h-.01ZM430.2,210.45c.04.48.1,1.44.19,2.89s.16,2.45.19,3c.77-.07,1.42-.38,1.96-.91.53-.53.8-1.24.8-2.12-.04-.92-.37-1.69-.99-2.31s-1.34-.81-2.15-.55Z"/>
  </g>
</svg>