<?xml version="1.0" encoding="UTF-8"?>
<svg id="Layer_1" xmlns="http://www.w3.org/2000/svg" version="1.1" viewBox="0 0 595.28 326.23">
  <!-- Generator: Adobe Illustrator 30.1.0, SVG Export Plug-In . SVG Version: 2.1.1 Build 136)  -->
  <defs>
    <style>
      .st0 {
        fill: #3d3a3a;
      }

      .st1 {
        font-family: GirdoBlackRegular, 'Girdo Black';
        font-size: 55px;
      }

      .st1, .st2 {
        fill: #ffeb00;
      }

      .st3 {
        fill: #231f20;
      }

      .st4 {
        fill: #747375;
      }

      .st5 {
        fill: #939598;
      }

      .st6 {
        fill: #575556;
      }
    </style>
  </defs>
  <g>
    <polygon class="st5" points="263.42 22.94 301.7 14.09 351.9 23.66 358.95 44.97 350.82 64.47 353.89 73.68 305.85 65.19 268.65 73.68 236.33 64.83 245.18 51.29 236.33 25.65 251.86 14.09 263.42 22.94"/>
    <polygon class="st4" points="231.8 35.67 305.46 18.64 402.04 37.06 415.59 78.05 399.96 115.58 405.86 133.3 313.45 116.97 241.87 133.3 179.68 116.27 196.71 90.22 179.68 40.88 209.56 18.64 231.8 35.67"/>
    <polygon class="st6" points="200.18 48.4 309.21 23.2 452.18 50.46 472.24 111.14 449.09 166.68 457.84 192.91 321.04 168.74 215.1 192.91 123.04 167.71 148.24 129.14 123.04 56.11 167.27 23.2 200.18 48.4"/>
    <polygon class="st0" points="168.56 61.13 312.96 27.76 502.32 63.86 528.88 144.23 498.23 217.79 509.81 252.53 328.63 220.51 188.32 252.53 66.39 219.15 99.77 168.07 66.39 71.35 124.97 27.76 168.56 61.13"/>
    <polygon class="st3" points="136.95 73.86 316.72 32.31 552.45 77.25 585.53 177.32 547.37 268.9 561.78 312.14 336.22 272.29 161.54 312.14 9.75 270.59 51.3 206.99 9.75 86.58 82.68 32.31 136.95 73.86"/>
  </g>
  <g>
    <polygon class="st2" points="330.93 160.83 337.45 150.74 331.86 135.06 314.76 120.67 334.65 120.67 353.3 136.36 358.89 152.05 352.36 162.14 358.89 172.23 335.81 169.99 330.93 160.83"/>
    <polygon class="st2" points="342.11 94.14 325.95 112.45 304.78 110.84 320.67 92.84 309.74 72.41 322.84 66.5 330.93 73.23 342.11 94.14"/>
    <polygon class="st2" points="326.82 160.83 333.34 170.92 236.38 170.92 241.98 141.78 275.58 119.37 309.1 119.37 310.65 120.67 327.75 135.06 333.34 150.74 326.82 160.83"/>
    <polygon class="st2" points="316.56 92.84 300.67 110.84 300.4 111.15 275.85 109.28 266.53 92.84 277.4 74.16 297.29 65.19 305.37 71.92 305.63 72.41 316.56 92.84"/>
  </g>
  <text class="st1" transform="translate(191.46 239.48)"><tspan x="0" y="0">MIGRATIE</tspan></text>
</svg>