<?xml version="1.0" encoding="UTF-8"?>
<svg id="Layer_1" xmlns="http://www.w3.org/2000/svg" version="1.1" viewBox="0 0 595.28 326.23">
  <!-- Generator: Adobe Illustrator 30.1.0, SVG Export Plug-In . SVG Version: 2.1.1 Build 136)  -->
  <defs>
    <style>
      .st0 {
        fill: #ffeb00;
      }

      .st1 {
        fill: #747375;
      }

      .st2 {
        fill: #575556;
      }

      .st3 {
        fill: #3d3a3a;
      }

      .st4 {
        fill: #231f20;
      }

      .st5 {
        isolation: isolate;
      }

      .st6 {
        fill: #939598;
      }
    </style>
  </defs>
  <g>
    <polygon class="st6" points="263.42 22.94 301.7 14.09 351.9 23.66 358.95 44.97 350.82 64.47 353.89 73.68 305.85 65.19 268.65 73.68 236.33 64.83 245.18 51.29 236.33 25.65 251.86 14.09 263.42 22.94"/>
    <polygon class="st1" points="231.8 35.67 305.46 18.64 402.04 37.06 415.59 78.05 399.96 115.58 405.86 133.3 313.45 116.97 241.87 133.3 179.68 116.27 196.71 90.22 179.68 40.88 209.56 18.64 231.8 35.67"/>
    <polygon class="st2" points="200.18 48.4 309.21 23.2 452.18 50.46 472.24 111.14 449.09 166.68 457.84 192.91 321.04 168.74 215.1 192.91 123.04 167.71 148.24 129.14 123.04 56.11 167.27 23.2 200.18 48.4"/>
    <polygon class="st3" points="168.56 61.13 312.96 27.76 502.32 63.86 528.88 144.23 498.23 217.79 509.81 252.53 328.63 220.51 188.32 252.53 66.39 219.15 99.77 168.07 66.39 71.35 124.97 27.76 168.56 61.13"/>
    <polygon class="st4" points="136.95 73.86 316.72 32.31 553 93 595.28 176.5 547.37 268.9 561.78 312.14 336.22 272.29 162.5 326.23 9.75 270.59 51.3 206.99 9.75 86.58 82.68 32.31 136.95 73.86"/>
  </g>
  <g class="st5">
    <g class="st5">
      <g class="st5">
        <path class="st0" d="M213.73,239.43c-3.56-.26-6.35-2.13-8.39-5.61-2.04-3.48-2.91-8.08-2.61-13.8.15-2.97.64-5.62,1.49-7.95.84-2.33,1.92-4.17,3.22-5.53,1.3-1.36,2.71-2.38,4.23-3.08,1.52-.7,3.09-1.03,4.7-.99,1.47.04,2.77.22,3.9.55,1.14.33,2.05.78,2.75,1.35.7.57,1.24,1.09,1.62,1.57.39.48.76,1.04,1.13,1.71-.73.59-2.03,1.86-3.88,3.82-1.85,1.96-2.98,3.07-3.38,3.33-.81-.62-1.64-.98-2.5-1.07-.86-.09-1.65.06-2.37.47-.71.4-1.32,1.11-1.81,2.12-.5,1.01-.76,2.25-.8,3.71-.04,1.98.41,3.58,1.35,4.81.93,1.23,2.14,1.83,3.6,1.81,1.47-.02,3.1-.71,4.9-2.06,1.61,1.69,3.25,4.42,4.9,8.2-.04.04-.33.39-.88,1.07-.55.68-.94,1.14-1.18,1.38-.24.24-.66.66-1.26,1.27s-1.17,1.04-1.71,1.32c-.53.28-1.16.59-1.9.94-.73.35-1.53.57-2.39.66-.86.09-1.77.1-2.72.03Z"/>
        <path class="st0" d="M230.84,230.13c-.18-3.3-.21-8.25-.08-14.85.13-6.6.38-10.93.74-12.98.92.04,2,.05,3.25.05s2.52,0,3.82-.03c1.3-.02,2.12-.03,2.45-.03-.29,2.53-.51,6.27-.66,11.22-.15,4.95-.2,8.62-.17,11,.04,1.5.27,2.49.69,2.97.42.48,1.02.73,1.79.77.7.04,1.32-.33,1.87-1.1.55-.77.84-1.87.88-3.3,0-1.17.15-4.78.44-10.81.29-6.03.46-9.52.5-10.48,1.91.26,4.56.33,7.98.22.4,3.45.61,7.71.63,12.79.02,5.08-.19,9.41-.63,13.01-.44,3.45-1.67,6.08-3.69,7.89-2.02,1.81-4.73,2.81-8.14,3-3.52.15-6.32-.54-8.39-2.06-2.07-1.52-3.16-3.95-3.27-7.29Z"/>
        <path class="st0" d="M259.55,218.47c0-.7.09-3.21.27-7.54.18-4.33.24-7.13.17-8.42.37,0,1.23,0,2.58.03,1.36.02,2.58.03,3.66.03s1.86-.02,2.34-.05c0,.88,0,3.54.03,7.97.02,4.44.03,8.32.03,11.66s-.02,5.3-.05,5.88c4.25.59,7.08.92,8.47.99,0,.44.02,1.54.06,3.3.04,1.76.05,3.3.05,4.62s-.04,2.16-.11,2.53c-.4,0-1.99-.02-4.76-.05-2.77-.04-5.35-.06-7.76-.06s-4.06.04-4.98.11c-.11-1.14-.18-2.77-.22-4.89-.04-2.13-.04-4.02,0-5.67.04-1.65.08-3.72.14-6.21.05-2.49.08-3.9.08-4.23Z"/>
        <path class="st0" d="M286.28,240.03c-.48-13.05-.73-21.08-.77-24.09-4.18.29-6.58.46-7.2.5,0-.44.02-1.7.05-3.77.04-2.07.07-3.92.11-5.55.04-1.63.07-2.71.11-3.22.22,0,.94-.06,2.15-.19s2.14-.22,2.78-.28c.64-.05,1.67-.14,3.08-.25,1.41-.11,2.45-.15,3.11-.14s1.6.03,2.81.03c1.69.11,3.95.17,6.79.19,2.84.02,4.41.03,4.7.03-.04.85-.07,2.38-.11,4.59s-.07,4.12-.11,5.69c-.04,1.58-.07,2.57-.11,2.97-.44-.04-3.06-.11-7.87-.22-.04,1.98-.06,3.77-.08,5.36-.02,1.6-.02,3.04,0,4.35.02,1.3.03,2.25.03,2.83-.04,4.25,0,7.75.11,10.5-1.43.26-4.62.48-9.57.66Z"/>
        <path class="st0" d="M309.05,230.13c-.18-3.3-.21-8.25-.08-14.85.13-6.6.38-10.93.74-12.98.92.04,2,.05,3.25.05s2.52,0,3.82-.03c1.3-.02,2.12-.03,2.45-.03-.29,2.53-.51,6.27-.66,11.22-.15,4.95-.2,8.62-.17,11,.04,1.5.27,2.49.69,2.97.42.48,1.02.73,1.79.77.7.04,1.32-.33,1.87-1.1.55-.77.84-1.87.88-3.3,0-1.17.15-4.78.44-10.81.29-6.03.46-9.52.5-10.48,1.91.26,4.57.33,7.98.22.4,3.45.61,7.71.63,12.79.02,5.08-.19,9.41-.63,13.01-.44,3.45-1.67,6.08-3.69,7.89s-4.73,2.81-8.14,3c-3.52.15-6.32-.54-8.39-2.06-2.07-1.52-3.16-3.95-3.27-7.29Z"/>
        <path class="st0" d="M338.75,230.13c-.18-3.3-.21-8.25-.08-14.85.13-6.6.38-10.93.74-12.98.92.04,2,.05,3.25.05s2.52,0,3.82-.03c1.3-.02,2.12-.03,2.45-.03-.29,2.53-.51,6.27-.66,11.22-.15,4.95-.2,8.62-.17,11,.04,1.5.27,2.49.69,2.97.42.48,1.02.73,1.79.77.7.04,1.32-.33,1.87-1.1s.84-1.87.88-3.3c0-1.17.15-4.78.44-10.81.29-6.03.46-9.52.5-10.48,1.91.26,4.56.33,7.97.22.4,3.45.61,7.71.63,12.79.02,5.08-.19,9.41-.63,13.01-.44,3.45-1.67,6.08-3.68,7.89-2.02,1.81-4.73,2.81-8.14,3-3.52.15-6.32-.54-8.39-2.06s-3.16-3.95-3.27-7.29Z"/>
        <path class="st0" d="M368.34,219.19c.15-8.76.15-14.26,0-16.5,1.61-.18,3.14-.3,4.59-.36,1.45-.05,3.1,0,4.95.14,1.85.15,3.47.43,4.87.85s2.66,1.1,3.79,2.03c1.14.94,1.91,2.08,2.31,3.44,1.03,3.6,1.25,6.99.66,10.18s-1.8,5.12-3.63,5.78c.55,1.43,1.75,4,3.6,7.7,1.85,3.71,2.89,6,3.11,6.88-.26,0-1.19-.02-2.8-.05-1.61-.04-3.13-.05-4.54-.05s-2.39.04-2.94.11c-.7-1.21-1.67-3.28-2.92-6.21-1.25-2.93-1.98-4.6-2.2-5-.11.84-.18,1.91-.22,3.19s-.05,2.42-.03,3.41.04,2,.06,3.03c.02,1.03.03,1.56.03,1.59-.59.11-1.41.17-2.48.17s-2.97-.05-5.72-.17c-.37-11.92-.53-18.62-.5-20.13ZM377.42,212.64c0,.18.04.98.11,2.39.07,1.41.04,2.41-.11,3,.77.15,1.52-.07,2.25-.66.73-.59,1.1-1.19,1.1-1.81,0-.81-.28-1.54-.83-2.2s-1.39-.9-2.53-.71Z"/>
      </g>
    </g>
  </g>
  <polygon class="st0" points="313.49 128.19 348.57 161.64 339.65 172.23 296.74 128.64 255.98 170.89 246.7 159.73 268.54 139.23 269.96 139.5 269.75 138.15 288.24 120 262.83 94.2 249.07 111.44 233.65 98.74 240.33 91.86 241.39 92.25 241.09 91.07 274.78 56.39 287.63 71.67 272.87 84.63 271.91 84.5 271.91 85.48 270.24 86.94 296.45 111.94 322.04 86.81 315.25 79.75 315.79 78.07 313.98 78.67 306.38 71.95 320.63 58.17 335.35 73.43 338.11 70.74 345.36 78.07 343.21 80.69 351.9 91.62 350.2 95.81 353.56 94.47 361.63 112.75 335.82 100.85 330.18 94 305 120.09 313.01 127.73 312.86 128.43 313.49 128.19"/>
</svg>