<?xml version="1.0" encoding="UTF-8"?>
<svg id="Layer_1" xmlns="http://www.w3.org/2000/svg" version="1.1" viewBox="0 0 595.28 326.23">
  <!-- Generator: Adobe Illustrator 30.1.0, SVG Export Plug-In . SVG Version: 2.1.1 Build 136)  -->
  <defs>
    <style>
      .st0 {
        fill: #3d3a3a;
      }

      .st1 {
        font-family: GirdoBlackRegular, 'Girdo Black';
        font-size: 55px;
      }

      .st1, .st2 {
        fill: #ffeb00;
      }

      .st3 {
        fill: #231f20;
      }

      .st4 {
        fill: #747375;
      }

      .st5 {
        fill: #939598;
      }

      .st6 {
        fill: #575556;
      }
    </style>
  </defs>
  <g>
    <polygon class="st5" points="263.42 22.94 301.7 14.09 351.9 23.66 358.95 44.97 350.82 64.47 353.89 73.68 305.85 65.19 268.65 73.68 236.33 64.83 245.18 51.29 236.33 25.65 251.86 14.09 263.42 22.94"/>
    <polygon class="st4" points="231.8 35.67 305.46 18.64 402.04 37.06 415.59 78.05 399.96 115.58 405.86 133.3 313.45 116.97 241.87 133.3 179.68 116.27 196.71 90.22 179.68 40.88 209.56 18.64 231.8 35.67"/>
    <polygon class="st6" points="200.18 48.4 309.21 23.2 452.18 50.46 472.24 111.14 449.09 166.68 457.84 192.91 321.04 168.74 215.1 192.91 123.04 167.71 148.24 129.14 123.04 56.11 167.27 23.2 200.18 48.4"/>
    <polygon class="st0" points="168.56 61.13 312.96 27.76 502.32 63.86 528.88 144.23 498.23 217.79 509.81 252.53 328.63 220.51 188.32 252.53 66.39 219.15 99.77 168.07 66.39 71.35 124.97 27.76 168.56 61.13"/>
    <polygon class="st3" points="136.95 73.86 316.72 32.31 552.45 77.25 585.53 177.32 547.37 268.9 561.78 312.14 336.22 272.29 161.54 312.14 9.75 270.59 51.3 206.99 9.75 86.58 82.68 32.31 136.95 73.86"/>
  </g>
  <text class="st1" transform="translate(200.48 239.48)"><tspan x="0" y="0">CULTUUR</tspan></text>
  <polygon class="st2" points="313.49 128.19 348.57 161.64 339.65 172.23 296.74 128.64 255.98 170.89 246.7 159.73 268.54 139.23 269.96 139.5 269.75 138.15 288.24 120 262.83 94.2 249.07 111.44 233.65 98.74 240.33 91.86 241.39 92.25 241.09 91.07 274.78 56.39 287.63 71.67 272.87 84.63 271.91 84.5 271.91 85.48 270.24 86.94 296.45 111.94 322.04 86.81 315.25 79.75 315.79 78.07 313.98 78.67 306.38 71.95 320.63 58.17 335.35 73.43 338.11 70.74 345.36 78.07 343.21 80.69 351.9 91.62 350.2 95.81 353.56 94.47 361.63 112.75 335.82 100.85 330.18 94 305 120.09 313.01 127.73 312.86 128.43 313.49 128.19"/>
</svg>