<?xml version="1.0" encoding="UTF-8"?>
<svg id="Layer_1" xmlns="http://www.w3.org/2000/svg" version="1.1" viewBox="0 0 595.28 326.23">
  <!-- Generator: Adobe Illustrator 30.1.0, SVG Export Plug-In . SVG Version: 2.1.1 Build 136)  -->
  <defs>
    <style>
      .st0 {
        fill: #00aeef;
      }

      .st1 {
        fill: #231f20;
      }

      .st2 {
        isolation: isolate;
      }
    </style>
  </defs>
  <polygon class="st1" points="221 43.89 308.29 32.31 444.5 75.97 458.28 177.32 436.99 268.9 418.92 292 319.17 272.29 218.05 289 137 270.59 160.18 206.99 154.44 108.06 177.69 32.31 221 43.89"/>
  <g>
    <polygon class="st0" points="330.93 160.83 337.45 150.74 331.86 135.06 314.76 120.67 334.65 120.67 353.3 136.36 358.89 152.05 352.36 162.14 358.89 172.23 335.81 169.99 330.93 160.83"/>
    <polygon class="st0" points="342.11 94.14 325.95 112.45 304.78 110.84 320.67 92.84 309.74 72.41 322.84 66.5 330.93 73.23 342.11 94.14"/>
    <polygon class="st0" points="326.82 160.83 333.34 170.92 236.38 170.92 241.98 141.78 275.58 119.37 309.1 119.37 310.65 120.67 327.75 135.06 333.34 150.74 326.82 160.83"/>
    <polygon class="st0" points="316.56 92.84 300.67 110.84 300.4 111.15 275.85 109.28 266.53 92.84 277.4 74.16 297.29 65.19 305.37 71.92 305.63 72.41 316.56 92.84"/>
  </g>
  <g class="st2">
    <g class="st2">
      <g class="st2">
        <path class="st0" d="M208.34,239.43c-.29-.84-.93-3.55-1.92-8.11s-1.85-7.67-2.58-9.32v17.71c-2.24,0-5-.09-8.31-.27,0-1.69-.19-7.59-.58-17.71-.39-10.12-.63-16.21-.74-18.26.18,0,4.71.16,13.58.49.48,1.58,1.37,4.42,2.67,8.53s2.1,6.66,2.39,7.64c.99-2.16,2.21-5.08,3.66-8.74,1.45-3.67,2.39-6.16,2.83-7.48,3.78.22,6.93.35,9.46.38-.18,5.21-.24,11.59-.17,19.14,0,1.54.03,3.7.08,6.49.05,2.79.09,4.8.11,6.05s0,2.58-.03,4.01c-3.48,0-6.14-.05-7.98-.16.07-1.36.09-3.07.05-5.14-.04-2.07-.06-3.78-.08-5.12s-.05-2.79-.11-4.35c-.05-1.56-.08-2.48-.08-2.78-.99,2.49-2.25,5.89-3.79,10.2s-2.31,6.48-2.31,6.52c-.51.07-2.57.16-6.16.28h0Z"/>
        <path class="st0" d="M234.47,221.11c.22-5.24.22-11.24,0-17.98.62,0,1.6-.04,2.94-.11s2.55-.11,3.63-.11,2.04.07,2.89.22c.22,2.64.33,4.99.33,7.04s-.05,4.37-.17,6.96c-.11,2.58-.17,4.65-.17,6.19-.11,10.19-.15,15.82-.11,16.88h-9.35c0-1.25-.02-3.24-.05-5.97-.04-2.73-.06-5.21-.06-7.42s.04-4.12.11-5.69h0Z"/>
        <path class="st0" d="M249.38,228.87c-.33-3.89-.21-7.88.36-11.99s1.53-7.28,2.89-9.52c1.17-1.91,2.8-3.22,4.87-3.96,2.07-.73,4.17-.78,6.3-.14,2.13.64,3.87,1.86,5.23,3.66-1.5,3.23-2.57,5.35-3.19,6.38-.92-.44-1.76-.7-2.53-.77s-1.52.15-2.25.66c-.73.51-1.28,1.36-1.65,2.53-.99,3.04-1.12,7.06-.38,12.04.26,1.61,1.39,2.35,3.41,2.2.84-.07,1.48-.53,1.93-1.38.44-.84.59-2.02.44-3.52-.37.04-.96.04-1.79,0s-1.33-.05-1.51-.05c-.15-2.13-.07-3.96.22-5.5.7,0,2.29.04,4.79.14,2.49.09,4.25.14,5.28.14.7,1.8.95,4.1.77,6.9-.18,2.8-.75,5.44-1.71,7.89-.44,1.17-1.07,2.16-1.9,2.97s-1.72,1.38-2.69,1.73c-.97.35-1.88.59-2.72.71-.84.13-1.71.19-2.58.19-.73,0-1.49-.07-2.28-.22s-1.72-.47-2.8-.96-2.05-1.13-2.92-1.9c-.86-.77-1.63-1.87-2.31-3.3-.68-1.43-1.09-3.08-1.24-4.95l-.04.02h0Z"/>
        <path class="st0" d="M277.53,219.19c.15-8.76.15-14.26,0-16.5,1.61-.18,3.14-.3,4.59-.36,1.45-.05,3.1,0,4.95.14,1.85.15,3.47.43,4.87.85,1.39.42,2.66,1.1,3.79,2.03,1.14.94,1.91,2.08,2.31,3.44,1.03,3.6,1.25,6.99.66,10.18s-1.8,5.12-3.63,5.78c.55,1.43,1.75,4,3.6,7.7,1.85,3.71,2.89,6,3.11,6.88-.26,0-1.19-.02-2.8-.05-1.61-.04-3.13-.05-4.54-.05s-2.39.04-2.94.11c-.7-1.21-1.67-3.28-2.92-6.21-1.25-2.93-1.98-4.6-2.2-5-.11.84-.18,1.91-.22,3.19s-.05,2.42-.03,3.41.04,2,.06,3.03.03,1.56.03,1.59c-.59.11-1.41.17-2.48.17s-2.97-.05-5.72-.17c-.37-11.92-.53-18.62-.5-20.13v-.03h.01ZM286.61,212.64c0,.18.04.98.11,2.39.07,1.41.04,2.41-.11,3,.77.15,1.52-.07,2.25-.66s1.1-1.19,1.1-1.81c0-.81-.28-1.54-.83-2.2s-1.39-.9-2.53-.71h0Z"/>
        <path class="st0" d="M314,234.94c-.44,1.81-.68,3.05-.71,3.71-1.36.22-2.89.31-4.59.28-1.71-.04-3.07-.13-4.1-.28.33-2.05,2.08-8.48,5.25-19.28s4.78-16.25,4.81-16.36c2.2.07,5.88,0,11.05-.22.62,3.52,1.73,10.31,3.33,20.38,1.59,10.07,2.41,15.45,2.45,16.14-1.54.15-3.32.2-5.33.17-2.02-.04-3.61-.09-4.79-.17-.07-.47-.23-1.44-.47-2.89s-.44-2.74-.6-3.88-.28-1.94-.36-2.42c-.37-.07-.85-.1-1.46-.08-.6.02-1.09.05-1.46.08-.37.04-.97.13-1.82.27-.37,1.21-.77,2.72-1.21,4.54h0ZM317.35,221.71c.77.04,1.63-.04,2.58-.22-.22-1.54-.68-3.01-1.38-4.4-.7,2.05-1.1,3.59-1.21,4.62h.01Z"/>
        <path class="st0" d="M340.67,240.03c-.48-13.05-.73-21.08-.77-24.09-4.18.29-6.58.46-7.21.5,0-.44.02-1.7.05-3.77s.07-3.92.11-5.55c.04-1.63.07-2.71.11-3.22.22,0,.93-.06,2.14-.19s2.14-.22,2.78-.28,1.67-.14,3.08-.25c1.41-.11,2.45-.15,3.11-.14s1.6.03,2.81.03c1.69.11,3.95.17,6.79.19s4.41.03,4.7.03c-.04.85-.07,2.38-.11,4.59-.04,2.22-.07,4.12-.11,5.69-.04,1.58-.07,2.57-.11,2.97-.44-.04-3.06-.11-7.87-.22-.04,1.98-.06,3.77-.08,5.36s-.02,3.04,0,4.35c.02,1.3.03,2.25.03,2.83-.04,4.25,0,7.75.11,10.5-1.43.26-4.62.48-9.57.66h0Z"/>
        <path class="st0" d="M363.44,221.11c.22-5.24.22-11.24,0-17.98.62,0,1.6-.04,2.94-.11s2.55-.11,3.63-.11,2.04.07,2.89.22c.22,2.64.33,4.99.33,7.04s-.05,4.37-.17,6.96c-.11,2.58-.17,4.65-.17,6.19-.11,10.19-.15,15.82-.11,16.88h-9.35c0-1.25-.02-3.24-.05-5.97-.04-2.73-.06-5.21-.06-7.42s.04-4.12.11-5.69h.01Z"/>
        <path class="st0" d="M379.01,239.48c0-.73-.05-4.24-.14-10.51-.09-6.27-.14-11.2-.14-14.79s.09-7.02.27-10.29c.59,0,2.62-.08,6.11-.25,3.48-.17,6.47-.28,8.96-.33,2.49-.06,4.82,0,6.99.19v8.2c-.88,0-3.07.06-6.57.19s-5.45.17-5.86.14c-.04.73,0,1.53.08,2.39.09.86.12,1.33.08,1.4.48,0,1.11.02,1.9.05.79.04,1.59.08,2.39.14.81.05,1.32.08,1.54.08.07.73.14,2.01.19,3.82.06,1.81.08,2.74.08,2.78h-5.78c0,.7.04,1.58.11,2.64.07,1.06.11,1.67.11,1.81,1.1,0,3.03.09,5.8.28s4.65.33,5.64.44c.18,2.02.28,5.83.28,11.44-.29,0-1.55-.02-3.77-.05-2.22-.04-4.35-.05-6.38-.05s-4.23.02-6.57.05c-2.35.04-4.12.11-5.33.22h.01Z"/>
      </g>
    </g>
  </g>
</svg>