<?xml version="1.0" encoding="UTF-8"?>
<svg id="Layer_1" xmlns="http://www.w3.org/2000/svg" version="1.1" viewBox="0 0 1366 768">
  <!-- Generator: Adobe Illustrator 30.1.0, SVG Export Plug-In . SVG Version: 2.1.1 Build 136)  -->
  <defs>
    <style>
      .st0 {
        fill: #ffe652;
      }

      .st1 {
        fill: none;
        stroke: #ffe652;
        stroke-miterlimit: 10;
        stroke-width: 13px;
      }
    </style>
  </defs>
  <polyline class="st1" points="162.3 530.46 528.33 384 977.59 509.85"/>
  <polygon class="st1" points="977.47 449.15 964.82 570.6 1076.33 520.84 977.47 449.15"/>
  <g>
    <path class="st0" d="M202.21,431.18c-5.59,1.6-10.29.59-14.09-3.01-3.81-3.61-6.36-9.19-7.66-16.76-3.41-19.84,10.02-33.73,40.29-41.67.99,2.45,2,5.37,3.05,8.78,1.05,3.41,2,6.66,2.87,9.75.86,3.1,1.41,4.93,1.64,5.49-8.23,1.57-13.52,4.03-15.89,7.39-1.95,2.76-.76,4.63,3.57,5.61,2.41.56,5.61.75,9.58.57,5.35-.29,10.11.46,14.29,2.28,4.18,1.82,7.53,4.37,10.06,7.67,2.53,3.3,4.51,6.77,5.92,10.41,1.41,3.64,2.36,7.55,2.84,11.73.67,5.2-.8,10.63-4.42,16.3s-8.97,10.7-16.06,15.09c-7.09,4.39-15.67,7.52-25.74,9.39-1.48-2.58-3.57-7.03-6.29-13.38-2.72-6.34-4.41-10.74-5.08-13.21,6.14-1.05,11.16-2.83,15.07-5.34,3.91-2.5,6.67-5.23,8.27-8.17,1.6-2.94,1.73-5.4.39-7.38-1.87-2.74-4.51-4.14-7.92-4.19-3.41-.05-8.3.83-14.68,2.64Z"/>
    <path class="st0" d="M304.77,442.65c-2.11,1.29-10.08,4.56-23.93,9.81-2.14-4.49-5.49-12.88-10.05-25.14-4.56-12.27-7.76-20.66-9.58-25.18l-17.58-43.6c1.77-.49,4.37-1.43,7.8-2.82,3.43-1.38,6.99-2.87,10.67-4.46,3.68-1.59,5.7-2.46,6.08-2.61,1.43,5.44,5.42,17.12,11.99,35.03,1.06-3.6,2.29-10.74,3.67-21.41,1.38-10.67,2.18-17.64,2.4-20.9,1.88-.76,6.04-2.32,12.46-4.7,6.43-2.37,10.3-3.82,11.61-4.35-.13,2.68-1.55,12.71-4.27,30.1-2.72,17.39-4.02,27.32-3.9,29.79,2.21,1.41,7.07,4.59,14.59,9.54,7.52,4.95,14.58,9.57,21.17,13.86,6.59,4.29,10.39,6.72,11.39,7.3-2.58,1.48-7.7,3.95-15.38,7.43-7.68,3.48-12.03,5.43-13.07,5.84-2.3-1.91-7.21-5.27-14.72-10.06-7.51-4.79-11.82-7.62-12.93-8.48,6.59,13.64,10.45,21.98,11.57,25.03Z"/>
    <path class="st0" d="M342.66,373.08c-4.86-13.68-11.06-29.06-18.6-46.14,1.6-.64,4.08-1.75,7.44-3.33,3.36-1.57,6.42-2.92,9.2-4.04,2.77-1.12,5.32-1.92,7.64-2.42,3.29,6.55,6,12.45,8.13,17.72,2.12,5.27,4.38,11.27,6.77,18.02,2.39,6.75,4.38,12.09,5.98,16.05,10.26,26.27,15.99,40.74,17.18,43.43l-23.99,9.67c-1.29-3.2-3.4-8.28-6.31-15.25-2.92-6.97-5.53-13.3-7.82-18.99-2.29-5.69-4.16-10.6-5.6-14.72Z"/>
    <path class="st0" d="M422.54,396.65c-6.84,4.73-14.13,8.21-21.87,10.46-6.22-13.79-14.1-33.36-23.67-58.7-5.62-15.01-10.21-26.94-13.77-35.79,4.99-2.01,11.3-4.86,18.95-8.54,7.65-3.68,13.63-6.4,17.96-8.14,6.68-2.69,12.63-1.97,17.85,2.16,5.22,4.13,10.06,11.86,14.51,23.18,4.57,11.61,5.25,21.5,2.04,29.69-3.21,8.18-10.68,14.26-22.43,18.23.95,2.35,2.77,7.14,5.46,14.37,2.69,7.23,4.34,11.59,4.95,13.1ZM404.18,346.64c2.86-1.59,4.6-3.71,5.22-6.37.62-2.66.28-5.47-1.03-8.45-1.36-2.84-3.11-4.87-5.24-6.09-2.13-1.22-4.61-1.26-7.43-.12,2.47,8.85,5.3,15.85,8.48,21.03Z"/>
  </g>
  <g>
    <path class="st0" d="M671.13,291.41c-5.46,11.75-13.61,28.83-24.44,51.25-10.83,22.42-17.94,36.69-21.31,42.8-1.73-.59-4.97-1.53-9.71-2.84-4.74-1.31-10-2.74-15.78-4.29-5.78-1.55-9.26-2.48-10.43-2.81.6-5.2,2.68-22.07,6.26-50.6,3.58-28.53,5.83-45.98,6.75-52.36,5.58.39,13.36,2.12,23.35,5.2-.35,3.17-1.75,14.33-4.21,33.48-2.46,19.16-4.01,32.17-4.65,39.05,2.29-4.1,7.57-14.45,15.85-31.05,8.27-16.6,13.81-28.25,16.61-34.95,6.17,1.29,13.41,3.66,21.71,7.11Z"/>
    <path class="st0" d="M671.62,342.69c4.45-13.82,8.88-29.8,13.27-47.95,1.66.46,4.3,1.09,7.93,1.88,3.62.79,6.88,1.59,9.76,2.38,2.88.8,5.39,1.7,7.54,2.72-1.36,7.2-2.8,13.54-4.31,19.01-1.51,5.48-3.37,11.62-5.57,18.43-2.2,6.81-3.87,12.27-5,16.38-7.81,27.1-12.06,42.08-12.75,44.94l-24.93-6.9c.92-3.32,2.34-8.64,4.25-15.95,1.92-7.31,3.69-13.92,5.33-19.84,1.64-5.91,3.13-10.95,4.49-15.1Z"/>
    <path class="st0" d="M714.17,352.1c4.64-16.4,8.74-32.73,12.29-49.01,15.51,3.66,26.73,7.21,33.67,10.66,6.94,3.45,11.41,8.6,13.4,15.47,1.41,4.81,1.56,12.04.47,21.68-1.09,9.64-3.18,19.3-6.28,28.97-3.1,9.67-6.56,16.66-10.38,20.97-2.89,3.2-6.71,5.62-11.48,7.24-4.77,1.63-9.89,2.45-15.36,2.46-5.48,0-10.85-.37-16.1-1.14-5.26-.77-10.32-1.88-15.18-3.33,1.39-4.67,3.89-13.71,7.5-27.13,3.6-13.42,6.08-22.36,7.42-26.83ZM739.75,334.39c-1.15,3.79-3.34,12.07-6.56,24.86-3.22,12.79-5.3,20.69-6.24,23.69,4.56.63,8.72-1.27,12.47-5.71,2.33-2.72,4.25-6.43,5.76-11.11,1.51-4.69,2.72-9.64,3.64-14.86.99-5.09.65-8.92-1.01-11.49-1.66-2.56-4.35-4.36-8.06-5.39Z"/>
    <path class="st0" d="M770.98,422.91c.54-1.95,3-11.32,7.38-28.11,4.38-16.78,7.9-29.96,10.55-39.55,2.65-9.58,5.42-18.65,8.32-27.22,1.56.43,7.05,1.71,16.46,3.84,9.41,2.13,17.46,4.04,24.14,5.73,6.69,1.69,12.85,3.58,18.48,5.67l-6.04,21.85c-2.35-.65-8.24-2.09-17.67-4.33-9.43-2.24-14.67-3.56-15.72-3.95-.64,1.93-1.15,4.08-1.54,6.44-.39,2.37-.67,3.63-.81,3.8,1.27.35,2.94.87,5.02,1.55,2.07.68,4.17,1.39,6.28,2.13,2.11.74,3.46,1.19,4.04,1.36-.35,2.01-1.11,5.45-2.31,10.33-1.19,4.88-1.8,7.37-1.83,7.46l-15.4-4.26c-.51,1.86-1.07,4.23-1.65,7.12-.59,2.89-.94,4.53-1.05,4.92,2.93.81,8.02,2.48,15.27,5.01,7.25,2.53,12.15,4.31,14.71,5.33-1,5.51-3.57,15.75-7.71,30.7-.78-.22-4.12-1.19-10-2.92-5.89-1.73-11.54-3.35-16.97-4.85s-11.28-3.07-17.56-4.7c-6.29-1.63-11.08-2.75-14.39-3.35Z"/>
    <path class="st0" d="M849.4,423.61c2.18-13.6,7.02-31.1,14.52-52.5,1.35-3.73,3.21-6.85,5.58-9.35s4.88-4.33,7.52-5.5c2.64-1.17,5.55-1.91,8.75-2.24,3.19-.33,6.08-.4,8.66-.21,2.58.19,5.2.6,7.87,1.23,3.16.77,6.34,1.99,9.56,3.67,3.22,1.68,6.26,3.81,9.12,6.39,2.86,2.58,5.01,5.86,6.44,9.83,1.43,3.97,1.68,8.2.76,12.68-1.55,9.04-4.07,19.08-7.54,30.12-3.47,11.04-7.04,19.73-10.69,26.09-1.83,3.18-4.28,5.68-7.37,7.51-3.09,1.83-6.31,2.94-9.68,3.32-3.37.38-6.5.49-9.4.32-2.9-.17-5.62-.61-8.16-1.31-2.54-.7-5.26-1.8-8.17-3.29-2.9-1.49-5.92-3.43-9.05-5.82-3.13-2.39-5.52-5.45-7.17-9.17-1.65-3.72-2.17-7.65-1.55-11.79ZM885.61,385.16c-1.45,3.7-3.17,8.99-5.18,15.85-2,6.86-3.31,11.58-3.92,14.15-.58,2.47-.19,4.68,1.16,6.64,1.35,1.95,2.75,3.18,4.19,3.68,1.34.48,2.87.48,4.58,0,1.71-.47,3.04-1.68,4-3.63,1.09-2.43,2.99-7.59,5.7-15.47,2.7-7.88,4.33-13.17,4.86-15.86.56-2.79.4-5.26-.48-7.39-.88-2.14-2.4-3.51-4.55-4.1-2.05-.57-4.08-.26-6.09.92-2.01,1.18-3.44,2.92-4.28,5.21Z"/>
  </g>
</svg>