<?xml version="1.0" encoding="UTF-8"?>
<svg id="Layer_1" xmlns="http://www.w3.org/2000/svg" version="1.1" viewBox="0 0 1395.73 275.49">
  <!-- Generator: Adobe Illustrator 30.1.0, SVG Export Plug-In . SVG Version: 2.1.1 Build 136)  -->
  <defs>
    <style>
      .st0 {
        fill: none;
        stroke: #ef55ad;
        stroke-miterlimit: 10;
        stroke-width: 6px;
      }

      .st1 {
        isolation: isolate;
      }

      .st2 {
        fill: #ef55ad;
      }
    </style>
  </defs>
  <g>
    <path class="st2" d="M170.82,216.28c-1.62-5.04-3.92-12.97-6.89-23.78s-4.97-19-6.01-24.56c4.23-1.13,9.13-2.28,14.69-3.45,6.58,8.93,12.66,16.1,18.24,21.49-1.01-3.8-2.15-8.43-3.42-13.91-1.27-5.48-2.03-8.93-2.31-10.37,1.2-.32,3.41-.96,6.62-1.92,3.21-.96,5.08-1.51,5.6-1.65,1,5,2.96,13.77,5.89,26.31s4.7,19.64,5.31,21.3c-2.13.83-6.76,1.93-13.88,3.31-8.48-11.03-13.75-17.27-15.81-18.7.54,3.3,1.54,7.75,2.98,13.36s2.24,8.5,2.4,8.67c-2.56.68-7.02,1.98-13.4,3.89h-.01Z"/>
    <path class="st2" d="M225.85,195.15c.02,2.58.11,4.31.3,5.2-1.86.81-4,1.51-6.44,2.11s-4.42,1-5.93,1.19c-.26-2.85-.04-12.05.65-27.59.69-15.54,1.05-23.39,1.06-23.55,3.16-.74,8.38-2.24,15.67-4.49,2.13,4.44,6.12,13.03,11.96,25.79,5.84,12.75,8.9,19.59,9.2,20.5-2.14.78-4.66,1.53-7.54,2.25-2.89.72-5.18,1.25-6.87,1.6-.27-.6-.84-1.82-1.69-3.66-.85-1.83-1.6-3.47-2.23-4.92-.64-1.44-1.09-2.47-1.37-3.08-.55.04-1.25.19-2.1.44s-1.54.48-2.05.66c-.51.19-1.34.54-2.49,1.05-.09,1.75-.13,3.91-.12,6.48v.02h-.01ZM225.94,176.31c1.11-.24,2.31-.67,3.6-1.27-.86-1.96-2.03-3.73-3.52-5.32-.27,2.99-.29,5.19-.09,6.59h0Z"/>
    <path class="st2" d="M269.07,162.77c-2.13-8.19-4.49-16.21-7.09-24.07,8.12-2.48,14.23-3.89,18.34-4.23s7.51.69,10.22,3.1c1.9,1.68,3.86,4.72,5.87,9.11s3.56,9.05,4.65,13.97,1.31,8.8.67,11.63c-.5,2.12-1.64,4.14-3.41,6.07-1.78,1.93-3.93,3.62-6.46,5.05-2.53,1.43-5.11,2.67-7.74,3.71-2.63,1.04-5.26,1.88-7.88,2.53-.57-2.35-1.77-6.85-3.6-13.51-1.83-6.66-3.02-11.11-3.56-13.36h-.01ZM276.27,148.57c.45,1.91,1.6,6.01,3.45,12.3s2.94,10.19,3.29,11.71c2.27-.92,3.7-2.81,4.28-5.68.37-1.77.29-3.84-.24-6.23s-1.26-4.81-2.19-7.27c-.87-2.43-2.02-3.97-3.46-4.63-1.43-.66-3.15-.73-5.13-.2h0Z"/>
    <path class="st2" d="M313.78,178.14c-.26-.97-1.57-5.6-3.92-13.89s-4.16-14.82-5.44-19.59c-1.27-4.77-2.36-9.36-3.25-13.76.83-.22,3.7-1.11,8.61-2.65,4.9-1.54,9.12-2.82,12.65-3.84s6.87-1.82,10.02-2.4l2.9,10.88c-1.25.33-4.35,1.25-9.29,2.75s-7.71,2.3-8.29,2.41c.21.99.53,2.04.96,3.14.44,1.11.64,1.72.61,1.83.68-.18,1.59-.4,2.72-.65,1.14-.25,2.29-.49,3.46-.73,1.17-.23,1.91-.39,2.22-.48.36.95.91,2.61,1.63,5s1.09,3.61,1.1,3.66l-8.23,2.19c.25.93.61,2.08,1.09,3.46s.75,2.17.8,2.37c1.57-.42,4.35-1.03,8.36-1.84,4.01-.81,6.74-1.33,8.18-1.56.98,2.61,2.46,7.63,4.44,15.08-.42.11-2.21.56-5.39,1.36-3.17.8-6.21,1.58-9.11,2.35s-6.01,1.63-9.34,2.57-5.84,1.71-7.52,2.32l.03.02h0Z"/>
    <path class="st2" d="M370.27,137.65c-3.05.5-5.45-.24-7.18-2.23-1.73-1.99-2.66-4.89-2.79-8.72-.33-10.03,7.75-16.22,24.24-18.59.34,1.27.66,2.77.95,4.52.3,1.75.56,3.41.79,4.99.23,1.58.38,2.52.46,2.81-4.44.35-7.4,1.3-8.89,2.84-1.23,1.27-.74,2.26,1.46,2.97,1.23.4,2.89.66,4.99.78,2.83.13,5.28.76,7.34,1.87,2.06,1.12,3.63,2.56,4.72,4.33s1.87,3.6,2.34,5.48c.47,1.88.68,3.87.63,5.97-.03,2.62-1.2,5.24-3.52,7.86-2.32,2.63-5.5,4.84-9.55,6.66-4.05,1.81-8.79,2.92-14.22,3.32-.59-1.36-1.36-3.68-2.32-6.97-.96-3.29-1.53-5.56-1.69-6.82,3.3-.2,6.07-.83,8.31-1.87s3.89-2.25,4.95-3.63,1.31-2.59.75-3.64c-.78-1.46-2.07-2.29-3.85-2.49-1.79-.2-4.42-.02-7.91.54v.02h0Z"/>
    <path class="st2" d="M402.85,124.51c-.25-.92-1.01-4.29-2.28-10.11-1.27-5.81-2.19-9.56-2.75-11.23.52-.14,1.75-.45,3.69-.95,1.94-.49,3.68-.94,5.22-1.35,1.54-.41,2.64-.73,3.31-.96.31,1.17,1.27,4.69,2.86,10.58,1.6,5.88,2.99,11.04,4.17,15.47,1.18,4.43,1.85,7.04,2.01,7.83,6.27-.84,10.4-1.47,12.41-1.9.16.58.57,2.04,1.25,4.36.67,2.32,1.25,4.36,1.71,6.11.47,1.75.71,2.89.74,3.4-.58.15-2.84.73-6.8,1.73s-7.65,1.96-11.06,2.87c-3.42.91-5.77,1.59-7.05,2.04-.56-1.47-1.24-3.6-2.05-6.42-.81-2.81-1.47-5.32-2.01-7.52-.53-2.21-1.2-4.97-2-8.3s-1.27-5.21-1.38-5.65h0Z"/>
    <path class="st2" d="M438.54,131.56c-1.43-4.31-3.22-10.87-5.38-19.68-2.15-8.81-3.33-14.65-3.54-17.51,1.32-.3,2.86-.69,4.64-1.16,1.77-.47,3.59-.97,5.43-1.49,1.85-.52,3.01-.84,3.48-.97.48,3.47,1.49,8.52,3.03,15.15,1.54,6.63,2.76,11.52,3.66,14.67.58,1.98,1.26,3.21,2.03,3.68s1.71.59,2.82.34c1-.22,1.76-.94,2.27-2.17.51-1.23.54-2.8.08-4.71-.42-1.56-1.48-6.4-3.2-14.51-1.72-8.12-2.72-12.82-3.01-14.1,2.81-.38,6.62-1.3,11.44-2.74,1.79,4.42,3.6,10,5.43,16.74,1.82,6.74,3.06,12.57,3.71,17.51.59,4.74-.23,8.7-2.45,11.88-2.23,3.18-5.74,5.53-10.53,7.07-4.96,1.53-9.19,1.68-12.68.45s-5.9-4.04-7.24-8.43v-.02h.01Z"/>
    <path class="st2" d="M477.65,108.31c-1.54-7.04-3.67-15-6.37-23.88.89-.24,2.27-.66,4.15-1.26,1.88-.61,3.59-1.11,5.13-1.53,1.54-.41,2.94-.68,4.19-.81,1.25,3.42,2.24,6.5,2.96,9.22.73,2.73,1.47,5.83,2.23,9.3s1.41,6.23,1.96,8.28c3.45,13.58,5.39,21.06,5.82,22.46l-13.32,3.55c-.44-1.65-1.17-4.29-2.19-7.9-1.02-3.61-1.92-6.89-2.71-9.84-.79-2.94-1.41-5.48-1.86-7.6h0Z"/>
    <path class="st2" d="M516.7,124.79c-5.3-17.15-8.51-27.71-9.63-31.69-5.85,1.98-9.21,3.11-10.09,3.39-.16-.58-.58-2.26-1.26-5.02-.68-2.76-1.29-5.24-1.81-7.42-.53-2.18-.85-3.62-.98-4.31.31-.08,1.31-.44,2.99-1.07s2.96-1.1,3.86-1.42c.89-.32,2.33-.82,4.3-1.5s3.43-1.14,4.38-1.36c.95-.23,2.28-.57,4-1.03,2.44-.49,5.69-1.27,9.74-2.32,4.05-1.06,6.29-1.64,6.71-1.75.25,1.14.74,3.18,1.47,6.14s1.35,5.49,1.86,7.6.8,3.44.89,3.98c-.64.12-4.4,1.02-11.28,2.7.65,2.64,1.24,5.03,1.78,7.15.54,2.13,1.05,4.05,1.54,5.77.49,1.72.83,2.97,1.04,3.75,1.45,5.66,2.75,10.29,3.88,13.9-1.95.88-6.41,2.39-13.4,4.51h.01Z"/>
    <path class="st2" d="M542.43,91.03c-1.54-7.04-3.67-15-6.37-23.88.89-.24,2.27-.66,4.15-1.26,1.88-.61,3.59-1.11,5.13-1.53,1.54-.41,2.94-.68,4.19-.81,1.25,3.42,2.24,6.5,2.96,9.22.73,2.73,1.47,5.83,2.23,9.3s1.41,6.23,1.96,8.28c3.45,13.58,5.39,21.06,5.82,22.46l-13.32,3.55c-.44-1.65-1.17-4.29-2.19-7.9s-1.92-6.89-2.71-9.84c-.79-2.94-1.41-5.48-1.86-7.6h0Z"/>
    <path class="st2" d="M571.18,109.48c-1.63-5.04-3.92-12.97-6.89-23.78-2.97-10.81-4.97-19-6.01-24.56,4.23-1.13,9.13-2.28,14.69-3.45,6.58,8.93,12.66,16.1,18.24,21.49-1.01-3.8-2.15-8.43-3.42-13.91-1.26-5.48-2.03-8.93-2.31-10.37,1.2-.32,3.41-.96,6.62-1.92s5.08-1.51,5.6-1.65c1,5,2.96,13.77,5.89,26.31s4.69,19.64,5.31,21.3c-2.13.83-6.76,1.93-13.88,3.31-8.48-11.03-13.75-17.27-15.81-18.7.54,3.3,1.54,7.75,2.98,13.36s2.24,8.5,2.4,8.67c-2.56.68-7.02,1.98-13.4,3.89h0Z"/>
    <path class="st2" d="M613.95,82.97c-1.85-5.03-3.09-10.38-3.74-16.05-.65-5.67-.4-10.24.74-13.73,1-2.98,2.84-5.34,5.53-7.11,2.69-1.76,5.67-2.62,8.92-2.58,3.26.04,6.17,1,8.74,2.87-1,4.86-1.76,8.08-2.28,9.68-1.46-.24-2.75-.26-3.88-.06-1.12.2-2.12.77-2.98,1.73s-1.35,2.29-1.45,3.99c-.33,4.42.91,9.8,3.72,16.14.94,2.05,2.82,2.59,5.64,1.63,1.17-.42,1.93-1.27,2.25-2.56.33-1.29.12-2.9-.62-4.84-.51.19-1.36.41-2.55.68-1.19.26-1.91.43-2.17.5-.96-2.77-1.51-5.23-1.63-7.38.99-.26,3.28-.81,6.86-1.64,3.58-.82,6.11-1.43,7.57-1.82,1.63,2.12,2.81,5.08,3.54,8.87s.85,7.5.37,11.13c-.21,1.73-.76,3.28-1.65,4.66s-1.97,2.49-3.23,3.32-2.47,1.49-3.62,1.98c-1.16.49-2.36.9-3.61,1.24-1.05.28-2.16.47-3.33.57-1.18.11-2.62.04-4.34-.21-1.72-.25-3.32-.72-4.82-1.41s-2.99-1.86-4.46-3.5c-1.47-1.64-2.65-3.67-3.52-6.1h0Z"/>
  </g>
  <polyline class="st0" points="166.26 228.84 677.95 93.72 1157.42 239.78 1272.83 165.1"/>
  <polygon class="st0" points="1342.04 138.12 1289.45 207.36 1255.78 127.19 1342.04 138.12"/>
  <g class="st1">
    <path class="st2" d="M733.01,50.37c-2.82,5.65-7.02,13.87-12.6,24.65-5.58,10.78-9.24,17.64-10.96,20.57-.84-.31-2.4-.81-4.69-1.52-2.29-.7-4.84-1.47-7.63-2.3-2.8-.83-4.48-1.33-5.05-1.51.36-2.53,1.61-10.72,3.73-24.57,2.13-13.85,3.46-22.33,4-25.42,2.71.26,6.48,1.21,11.31,2.85-.21,1.54-1.05,6.96-2.5,16.26-1.46,9.3-2.39,15.62-2.79,18.96,1.17-1.97,3.89-6.94,8.14-14.92,4.26-7.98,7.11-13.58,8.57-16.81,2.99.71,6.48,1.96,10.48,3.76h-.01Z"/>
    <path class="st2" d="M733.21,73c1.13-1.67,2.7-3.91,4.69-6.71,2-2.8,3.67-5.17,5.01-7.11,1.34-1.94,2.35-3.48,3.01-4.62,5.39,1.65,8.74,2.79,10.05,3.39-.12,2.91-.22,7.39-.32,13.44-.1,6.05-.21,10.29-.34,12.74-.16,3.05-.51,7.6-1.04,13.64-.54,6.04-.88,9.74-1.03,11.09-4.53-1.08-8.1-2.17-10.71-3.28.18-1.6.43-4.17.74-7.73.31-3.55.59-5.8.83-6.76-2.93-.9-5.66-1.53-8.19-1.89-1.01,1.45-2.2,3.41-3.55,5.89s-2.16,4.15-2.42,5c-1.18-.21-3.2-.71-6.05-1.51-2.86-.8-4.74-1.42-5.64-1.85,5.83-9.74,10.82-17.65,14.96-23.73h0ZM741.71,79.42l3.76,1.15c.15-2.85.03-4.98-.37-6.4-.99,1.71-2.12,3.46-3.39,5.24h0Z"/>
    <path class="st2" d="M767.66,81.09c.21-.51,2.25-6.68,6.14-18.52,3.43.95,6.64,1.91,9.63,2.88s4.98,1.68,5.98,2.14c.71,13.2,1.21,20.67,1.5,22.42,1.23-2.67,2.76-6.3,4.58-10.89s2.89-7.48,3.2-8.68c4.25.99,7.28,2.05,9.11,3.18-.67,2.69-3.01,9.39-7.02,20.11s-7.08,18.78-9.2,24.18c-1.16-.25-2.44-.59-3.84-1.02s-2.77-.88-4.13-1.34-2.18-.75-2.46-.83c-.19-1.4-.45-4.1-.78-8.08s-.67-7.35-1.01-10.12c-.34-2.77-.7-4.8-1.07-6.11-.86,2.48-1.94,5.57-3.24,9.29-1.29,3.71-2.29,6.58-2.98,8.59-.7,2.01-1.14,3.35-1.35,4.01-1.65.17-5.57-.83-11.73-2.98,1-4.09,2.41-9.1,4.26-15.02,1.84-5.92,3.31-10.33,4.4-13.2h.01Z"/>
    <path class="st2" d="M824.4,102.21c.2-.66,1.15-4.13,2.85-10.42,1.69-6.28,2.93-10.52,3.7-12.71,8.08,2.48,14.33,4.71,18.74,6.68,1.23.53,2.22,1.37,2.96,2.5.74,1.13,1.22,2.3,1.45,3.51.22,1.21.28,2.64.15,4.31s-.29,3.07-.51,4.19-.5,2.43-.85,3.93c-2.49,10.3-4.68,17.44-6.57,21.42-.85,1.76-2.22,3.15-4.11,4.17s-3.87,1.65-5.93,1.87-4.19.2-6.38-.06c-2.49-.3-5.04-.85-7.64-1.65-2.6-.8-4.29-1.37-5.06-1.71.85-3.77,3.25-12.45,7.21-26.03h-.01ZM837.53,96.85c-.54,1.75-1.48,5.02-2.81,9.8-1.34,4.79-2.16,7.68-2.47,8.67.87.21,1.97.12,3.3-.27s2.25-1.06,2.74-1.99c1.12-2.14,2.18-5,3.17-8.57.4-1.48.24-2.94-.48-4.38-.72-1.44-1.88-2.53-3.46-3.27h.01Z"/>
    <path class="st2" d="M881.18,147.79c-2.04-.78-6.84-2.33-14.4-4.65-7.56-2.32-12.84-3.99-15.84-5.01.74-2.41,1.64-5.44,2.71-9.1,1.07-3.65,1.99-6.73,2.76-9.24s1.51-4.76,2.23-6.76c.92-2.51,2.19-6.57,3.81-12.17,1.62-5.61,2.51-8.62,2.69-9.03,1.68.41,4.87,1.18,9.57,2.32,4.7,1.13,8.88,2.17,12.54,3.11,3.67.94,6.17,1.67,7.51,2.19-.75,3.13-2.08,7.46-3.98,12.98-.98-.35-3.88-1.13-8.71-2.32-4.83-1.2-7.52-1.91-8.08-2.13-.17.57-.44,1.53-.81,2.89s-.61,2.23-.72,2.61l8.38,2.26c-1.21,4.96-1.94,7.84-2.18,8.64l-8.66-2.11c-1.19,3.72-2,6.34-2.41,7.87,9.4,2.57,14.78,4.09,16.13,4.56-1.68,8.69-2.53,13.06-2.54,13.11v-.02h0Z"/>
    <path class="st2" d="M912.85,128.49c2.19-6.47,4.48-13.11,6.88-19.92,8.03,2.67,13.49,4.34,16.38,5.02.02,2.64-.1,6.6-.35,11.88s-.35,8.26-.3,8.95c.59-.75,2.01-2.58,4.24-5.49,2.24-2.91,4.12-5.32,5.67-7.22,1.54-1.91,2.73-3.3,3.57-4.18,2.45.44,5.02,1.01,7.7,1.7,2.68.69,4.68,1.35,6,1.96-.33,1.09-1.74,5.59-4.22,13.52-2.48,7.93-4.7,15.06-6.64,21.39s-3.06,10.13-3.34,11.39c-.62-.19-1.8-.58-3.56-1.17s-3.37-1.11-4.84-1.56c-1.47-.45-2.69-.77-3.66-.97,2.68-11.95,4.45-18.99,5.31-21.1-.85.93-1.98,2.41-3.38,4.43-1.4,2.03-2.69,3.97-3.88,5.83s-2.37,3.71-3.53,5.55c-1.16,1.84-1.79,2.85-1.9,3.03-.76-.23-1.93-.68-3.5-1.35-1.58-.67-2.4-1.01-2.44-1.02-.36-2.38-.65-6.16-.87-11.32-.23-5.16-.28-8.61-.17-10.33-1.07,2.83-2.27,6.86-3.59,12.09s-2,7.92-2.04,8.06c-1.54-.73-3.59-1.54-6.16-2.43-2.57-.89-4.56-1.5-5.96-1.83,1.41-3.76,4.27-12.06,8.57-24.91h.01Z"/>
    <path class="st2" d="M963.68,143.61l6.33-20.63c1.71.16,5.67,1.5,11.88,4.03-2.63,6.9-5.68,16.83-9.13,29.78-.39,1.43-.95,3.34-1.68,5.73s-1.48,4.78-2.24,7.19c-.76,2.4-1.18,3.72-1.25,3.96-.8-.25-2.86-.8-6.16-1.66-3.31-.86-5.29-1.39-5.95-1.59.44-1.78,1.17-4.31,2.17-7.6,1.01-3.29,2.16-6.95,3.45-11,1.29-4.05,2.16-6.79,2.59-8.2h-.01Z"/>
    <path class="st2" d="M977.14,166.28c.79-5.6,1.81-9.79,3.07-12.56.76.23,1.85.58,3.29,1.05,1.43.47,2.65.85,3.64,1.16.99.3,1.76.51,2.29.62-1.2,3.92-.7,6.23,1.53,6.91,2.46.75,4.46-.96,6-5.14.73-2.05,2.09-6.27,4.08-12.67s3.18-10.49,3.57-12.29c4.35,1.33,7.82,2.5,10.41,3.5-5.47,17.82-9.31,29.42-11.52,34.79-1.42,3.44-3.46,6.05-6.12,7.82s-5.69,2.21-9.09,1.32c-3.59-.95-6.45-2.8-8.57-5.58-2.12-2.77-2.98-5.75-2.57-8.93h0Z"/>
    <path class="st2" d="M1016.83,157.5c.21-.51,2.25-6.68,6.14-18.52,3.43.95,6.64,1.91,9.63,2.88s4.98,1.68,5.98,2.14c.71,13.2,1.21,20.67,1.5,22.42,1.23-2.67,2.76-6.3,4.58-10.89s2.89-7.48,3.2-8.68c4.25.99,7.28,2.05,9.11,3.18-.67,2.69-3.01,9.39-7.02,20.11s-7.08,18.78-9.2,24.18c-1.17-.25-2.44-.59-3.84-1.02-1.39-.43-2.77-.88-4.13-1.34s-2.18-.75-2.46-.83c-.19-1.4-.45-4.1-.78-8.08s-.67-7.35-1.01-10.12c-.34-2.77-.7-4.8-1.07-6.11-.86,2.48-1.94,5.57-3.24,9.29s-2.29,6.58-2.98,8.59-1.14,3.35-1.35,4.01c-1.65.17-5.56-.83-11.73-2.98,1-4.09,2.42-9.1,4.26-15.02,1.84-5.93,3.31-10.33,4.4-13.2h.01,0Z"/>
    <path class="st2" d="M1080.08,208.79c-2.04-.78-6.84-2.33-14.4-4.65-7.56-2.32-12.84-3.99-15.84-5.01.74-2.41,1.64-5.44,2.71-9.1,1.07-3.65,1.99-6.73,2.76-9.24s1.51-4.76,2.23-6.76c.92-2.51,2.2-6.57,3.81-12.17,1.62-5.61,2.51-8.62,2.69-9.03,1.68.41,4.87,1.18,9.57,2.32,4.7,1.13,8.88,2.17,12.54,3.11,3.67.94,6.17,1.67,7.51,2.19-.75,3.13-2.08,7.46-3.98,12.98-.98-.35-3.88-1.13-8.71-2.32-4.83-1.2-7.52-1.91-8.08-2.13-.17.57-.45,1.53-.81,2.89s-.61,2.23-.72,2.61l8.38,2.26c-1.21,4.96-1.94,7.84-2.18,8.64l-8.66-2.11c-1.19,3.72-2,6.34-2.41,7.87,9.4,2.57,14.78,4.09,16.13,4.56-1.68,8.69-2.53,13.06-2.55,13.11v-.02h.01Z"/>
    <path class="st2" d="M1096.39,181.9c.21-.5,2.25-6.68,6.14-18.52,3.43.95,6.64,1.91,9.63,2.88s4.98,1.68,5.98,2.14c.71,13.2,1.21,20.67,1.5,22.42,1.23-2.67,2.76-6.3,4.58-10.89s2.89-7.48,3.2-8.68c4.25.99,7.28,2.05,9.11,3.18-.67,2.69-3.01,9.39-7.02,20.11s-7.08,18.78-9.2,24.18c-1.17-.25-2.44-.59-3.84-1.02-1.4-.43-2.77-.88-4.13-1.34s-2.18-.75-2.46-.83c-.19-1.4-.45-4.1-.78-8.08s-.67-7.35-1.01-10.12c-.34-2.77-.7-4.8-1.07-6.11-.86,2.48-1.94,5.57-3.24,9.29-1.29,3.71-2.29,6.58-2.98,8.59-.7,2.01-1.14,3.35-1.35,4.01-1.65.17-5.57-.83-11.73-2.98,1-4.09,2.42-9.1,4.26-15.02,1.84-5.93,3.31-10.33,4.4-13.2h.01,0Z"/>
  </g>
</svg>