<?xml version="1.0" encoding="UTF-8"?>
<svg id="Layer_1" xmlns="http://www.w3.org/2000/svg" version="1.1" viewBox="0 0 1145.26 275.49">
  <!-- Generator: Adobe Illustrator 30.1.0, SVG Export Plug-In . SVG Version: 2.1.1 Build 136)  -->
  <defs>
    <style>
      .st0 {
        fill: #ec008c;
      }

      .st1 {
        isolation: isolate;
      }

      .st2 {
        fill: none;
        stroke: #ec008c;
        stroke-miterlimit: 10;
        stroke-width: 6px;
      }
    </style>
  </defs>
  <polyline class="st2" points="36.71 196.91 427.48 93.72 906.95 239.78 1022.36 165.1"/>
  <polygon class="st2" points="1091.57 138.12 1038.98 207.36 1005.31 127.19 1091.57 138.12"/>
  <g class="st1">
    <g class="st1">
      <path class="st0" d="M34.14,160.13c-2.08-8.04-4.37-15.93-6.87-23.65,7.43-2.27,13.03-3.54,16.8-3.79,3.77-.26,6.92.82,9.44,3.22,1.77,1.68,3.62,4.68,5.53,9.01s3.4,8.91,4.48,13.74c1.07,4.83,1.33,8.62.79,11.38-.43,2.06-1.44,4.01-3.05,5.87s-3.56,3.46-5.86,4.81c-2.3,1.35-4.66,2.51-7.06,3.48s-4.81,1.74-7.21,2.33c-.56-2.31-1.73-6.73-3.51-13.27-1.78-6.54-2.94-10.91-3.47-13.12h0ZM40.55,146.39c.45,1.88,1.56,5.9,3.35,12.08,1.79,6.18,2.85,10.01,3.2,11.51,2.08-.86,3.36-2.68,3.85-5.47.31-1.72.21-3.75-.31-6.09s-1.22-4.73-2.12-7.15c-.84-2.39-1.92-3.92-3.25-4.59s-2.9-.77-4.72-.29h0Z"/>
      <path class="st0" d="M75.46,175.98c-.25-.96-1.52-5.5-3.8-13.65-2.28-8.14-4.04-14.56-5.28-19.24-1.24-4.68-2.3-9.19-3.19-13.5.76-.2,3.39-1.01,7.87-2.43,4.48-1.42,8.34-2.59,11.57-3.52s6.29-1.65,9.17-2.16l2.83,10.68c-1.15.3-3.98,1.14-8.5,2.52s-7.05,2.11-7.59,2.2c.21.97.52,2,.93,3.09.42,1.09.61,1.69.59,1.8.62-.17,1.45-.36,2.49-.58s2.09-.44,3.17-.65c1.07-.21,1.75-.35,2.04-.42.35.93.87,2.57,1.57,4.92.7,2.35,1.05,3.54,1.07,3.59l-7.53,1.99c.24.91.59,2.04,1.05,3.4.46,1.36.72,2.14.77,2.33,1.43-.38,3.99-.93,7.66-1.64,3.67-.71,6.17-1.17,7.5-1.37.93,2.57,2.37,7.5,4.3,14.82-.38.1-2.03.51-4.93,1.23-2.91.72-5.68,1.43-8.34,2.13-2.65.7-5.5,1.48-8.55,2.34s-5.34,1.57-6.88,2.13h.01Z"/>
      <path class="st0" d="M130.83,137.31c-1.02,0-1.98-.05-2.89-.19s-1.9-.51-2.97-1.09-2-1.36-2.77-2.34c-.77-.97-1.38-2.35-1.82-4.12-.44-1.77-.59-3.83-.44-6.17.26-5.18,2.32-8.96,6.17-11.34,3.85-2.37,8.74-2.97,14.68-1.78.48,3.56.81,7.33,1,11.32-2.62-.43-4.83-.43-6.64,0-1.8.43-2.77,1.17-2.9,2.23-.22,1.29.71,2.38,2.79,3.29,2.08.91,4.7,1.63,7.86,2.18,3.21.53,5.64,2.51,7.29,5.94,1.65,3.43,2.18,7.34,1.61,11.73-.48,4.58-2.96,8.21-7.43,10.91-4.48,2.69-10.5,3.97-18.05,3.82-.33-2.42-.58-5.4-.75-8.93-.17-3.54-.13-5.8.12-6.78,8.62,1.25,13.15.1,13.59-3.44.16-1.73-.63-3.06-2.36-3.98s-3.75-1.33-6.08-1.23v-.03Z"/>
      <path class="st0" d="M155.02,126.08c-.59-2.04-1.32-4.78-2.17-8.21-.86-3.43-1.49-5.93-1.91-7.51s-.9-3.29-1.44-5.14c6.26-1.66,11.03-2.69,14.3-3.09l4.95,18.71c.27,1.41.95,3.69,2.04,6.83,1.09,3.14,1.65,4.78,1.69,4.92,1.29-.14,4.76-.67,10.39-1.6.71,1.71,1.57,4.3,2.6,7.79,1.02,3.49,1.74,6,2.15,7.53-1.32.25-3.79.84-7.43,1.77-3.64.94-5.99,1.52-7.06,1.75-4.47.88-7.86,1.6-10.17,2.16-.5-1.71-1.33-4.35-2.48-7.94-1.15-3.58-2.19-6.88-3.11-9.88s-1.7-5.7-2.33-8.09h-.02Z"/>
      <path class="st0" d="M187.71,129.02c-4.11-15.54-6.56-26.06-7.36-31.58,2.04-.79,5.94-1.83,11.69-3.09.92,4.26,2.29,9.91,4.1,16.94s2.87,10.93,3.16,11.67c.45,1.31.95,2.24,1.5,2.79.55.54,1.31.72,2.28.51.43-.11.77-.33,1.02-.65s.38-.77.41-1.34.02-1.08-.02-1.53-.12-1.09-.24-1.93c0-.2,0-.33-.02-.38-.23-1.63-1.06-5.9-2.51-12.8-1.44-6.91-2.56-11.74-3.34-14.5,1.41-.47,3.15-.95,5.22-1.42s3.71-.76,4.91-.88c4.1,13.39,6.86,23.81,8.27,31.26.98,5.06.53,9.25-1.36,12.56s-4.66,5.48-8.33,6.5c-1.8.53-3.62.75-5.46.68-1.84-.08-3.67-.5-5.51-1.26-1.84-.77-3.5-2.13-4.99-4.09-1.49-1.96-2.63-4.44-3.43-7.46h0Z"/>
      <path class="st0" d="M221.64,109.07l-5.52-20.87c1.54-.76,5.61-1.71,12.21-2.85,1.41,7.25,4.06,17.29,7.97,30.11.43,1.42.96,3.34,1.6,5.75s1.27,4.84,1.89,7.29c.62,2.44.96,3.79,1.03,4.03-.81.22-2.85.83-6.11,1.85s-5.23,1.61-5.89,1.79c-.56-1.74-1.29-4.28-2.16-7.6-.88-3.32-1.84-7.04-2.88-11.17-1.04-4.12-1.75-6.9-2.13-8.34h0Z"/>
      <path class="st0" d="M237.2,95.97c-.31-.99-.91-2.87-1.79-5.62-.88-2.76-1.49-4.76-1.82-6,2.72-.72,6-1.73,9.83-3.02,3.83-1.29,6.71-2.22,8.66-2.79,6.48-1.82,11.06-3.03,13.77-3.64,1.63,4.63,2.77,8.91,3.4,12.83-1.05.28-2.92.82-5.59,1.63s-4.21,1.27-4.59,1.37c.7,2.83,1.74,6.98,3.14,12.44,1.39,5.46,2.21,8.65,2.45,9.56.41,1.73.97,3.95,1.68,6.65.71,2.7,1.22,4.52,1.52,5.47-.95.46-4.87,1.49-11.76,3.11-5.32-21.46-8.27-33.1-8.86-34.94-.53.14-2.11.62-4.76,1.45-2.65.83-4.4,1.33-5.28,1.51h0Z"/>
      <path class="st0" d="M276.13,94.65l-5.52-20.87c1.54-.76,5.61-1.71,12.21-2.85,1.41,7.25,4.06,17.29,7.97,30.12.43,1.42.96,3.34,1.6,5.75s1.27,4.84,1.89,7.29c.62,2.44.96,3.79,1.03,4.03-.81.21-2.85.83-6.11,1.85-3.26,1.02-5.23,1.61-5.9,1.79-.56-1.74-1.28-4.28-2.16-7.6s-1.84-7.04-2.88-11.17c-1.04-4.12-1.75-6.9-2.13-8.34h0Z"/>
      <path class="st0" d="M295.19,87.23c-.09-.54-1.61-6.86-4.56-18.97,3.42-1.01,6.65-1.89,9.7-2.64,3.05-.75,5.12-1.2,6.21-1.33,7.57,10.83,11.94,16.92,13.11,18.24-.36-2.92-.98-6.81-1.86-11.67-.88-4.86-1.5-7.88-1.86-9.06,4.13-1.4,7.27-2.1,9.42-2.11.85,2.64,2.4,9.57,4.66,20.79,2.25,11.22,3.9,19.68,4.95,25.39-1.12.4-2.39.79-3.8,1.16-1.41.37-2.82.72-4.21,1.04-1.4.32-2.24.52-2.53.59-.9-1.09-2.55-3.24-4.93-6.45s-4.45-5.89-6.2-8.07c-1.75-2.17-3.13-3.71-4.14-4.62.57,2.56,1.29,5.76,2.16,9.59.86,3.84,1.53,6.8,2,8.87s.8,3.45.97,4.12c-1.32,1.01-5.16,2.24-11.54,3.67-1.31-4-2.75-9-4.32-15.01-1.56-6-2.64-10.51-3.23-13.53h0Z"/>
      <path class="st0" d="M352.11,73.01l13.77-3.34c3.04,5.9,4.58,12.27,4.6,19.12.05,5.97-3.34,9.91-10.15,11.81-1.24.33-2.66.54-4.25.62-1.59.09-3.32.01-5.2-.24-1.88-.24-3.64-.94-5.27-2.09-1.64-1.15-2.81-2.68-3.52-4.59-2.18-5.51-4.27-13.14-6.29-22.89-.43-2.19-.49-4.24-.17-6.17.31-1.92.86-3.57,1.65-4.93s1.78-2.59,2.97-3.7,2.38-1.98,3.56-2.63,2.39-1.16,3.62-1.53c2.65-.8,4.84-.99,6.57-.55,1.73.44,3.29,1.37,4.69,2.79-.31,1.16-.72,2.47-1.22,3.93-.51,1.46-.93,2.62-1.27,3.48l-.49,1.36c-1.51-.67-3.24-.75-5.2-.23-1.1.29-1.98,1.2-2.65,2.74-.67,1.53-.82,3.2-.44,4.99.71,2.68,1.2,4.53,1.47,5.56s.74,2.49,1.39,4.39c.66,1.9,1.02,2.97,1.08,3.21.41,1.17,1.13,2,2.16,2.5s1.91.67,2.63.53c.68-.13,1.34-.51,1.96-1.13.63-.63.88-1.46.76-2.5-.07-.85-.35-2.47-.82-4.85-.44.07-1.09.21-1.96.44s-1.67.44-2.44.65c-.09-.54-.37-1.73-.83-3.58s-.7-2.9-.72-3.15v-.02Z"/>
    </g>
  </g>
  <g class="st1">
    <g class="st1">
      <path class="st0" d="M482.54,50.37c-2.82,5.65-7.02,13.87-12.6,24.65-5.58,10.78-9.24,17.64-10.96,20.57-.84-.31-2.4-.81-4.69-1.52-2.29-.7-4.84-1.47-7.63-2.3-2.8-.83-4.48-1.33-5.05-1.51.36-2.53,1.61-10.72,3.73-24.57,2.13-13.85,3.46-22.33,4-25.42,2.71.26,6.48,1.21,11.31,2.85-.21,1.54-1.05,6.96-2.5,16.26-1.46,9.3-2.39,15.62-2.79,18.96,1.17-1.97,3.89-6.94,8.14-14.92,4.26-7.98,7.11-13.58,8.57-16.81,2.99.71,6.48,1.96,10.48,3.76h-.01Z"/>
      <path class="st0" d="M482.74,73c1.13-1.67,2.7-3.91,4.69-6.71,2-2.8,3.67-5.17,5.01-7.11,1.34-1.94,2.35-3.48,3.01-4.62,5.39,1.65,8.74,2.79,10.05,3.39-.12,2.91-.22,7.39-.32,13.44-.1,6.05-.21,10.29-.34,12.74-.16,3.05-.51,7.6-1.04,13.64-.54,6.04-.88,9.74-1.03,11.09-4.53-1.08-8.1-2.17-10.71-3.28.18-1.6.43-4.17.74-7.73.31-3.55.59-5.8.83-6.76-2.93-.9-5.66-1.53-8.19-1.89-1.01,1.45-2.2,3.41-3.55,5.89s-2.16,4.15-2.42,5c-1.18-.21-3.2-.71-6.05-1.51-2.86-.8-4.74-1.42-5.64-1.85,5.83-9.74,10.82-17.65,14.96-23.73h0ZM491.24,79.42l3.76,1.15c.15-2.85.03-4.98-.37-6.4-.99,1.71-2.12,3.46-3.39,5.24h0Z"/>
      <path class="st0" d="M517.19,81.09c.21-.51,2.25-6.68,6.14-18.52,3.43.95,6.64,1.91,9.63,2.88s4.98,1.68,5.98,2.14c.71,13.2,1.21,20.67,1.5,22.42,1.23-2.67,2.76-6.3,4.58-10.89s2.89-7.48,3.2-8.68c4.25.99,7.28,2.05,9.11,3.18-.67,2.69-3.01,9.39-7.02,20.11s-7.08,18.78-9.2,24.18c-1.16-.25-2.44-.59-3.84-1.02s-2.77-.88-4.13-1.34-2.18-.75-2.46-.83c-.19-1.4-.45-4.1-.78-8.08s-.67-7.35-1.01-10.12c-.34-2.77-.7-4.8-1.07-6.11-.86,2.48-1.94,5.57-3.24,9.29-1.29,3.71-2.29,6.58-2.98,8.59-.7,2.01-1.14,3.35-1.35,4.01-1.65.17-5.57-.83-11.73-2.98,1-4.09,2.41-9.1,4.26-15.02,1.84-5.92,3.31-10.33,4.4-13.2h.01Z"/>
      <path class="st0" d="M573.93,102.21c.2-.66,1.15-4.13,2.85-10.42,1.69-6.28,2.93-10.52,3.7-12.71,8.08,2.48,14.33,4.71,18.74,6.68,1.23.53,2.22,1.37,2.96,2.5.74,1.13,1.22,2.3,1.45,3.51.22,1.21.28,2.64.15,4.31s-.29,3.07-.51,4.19-.5,2.43-.85,3.93c-2.49,10.3-4.68,17.44-6.57,21.42-.85,1.76-2.22,3.15-4.11,4.17s-3.87,1.65-5.93,1.87-4.19.2-6.38-.06c-2.49-.3-5.04-.85-7.64-1.65-2.6-.8-4.29-1.37-5.06-1.71.85-3.77,3.25-12.45,7.21-26.03h-.01ZM587.06,96.85c-.54,1.75-1.48,5.02-2.81,9.8-1.34,4.79-2.16,7.68-2.47,8.67.87.21,1.97.12,3.3-.27s2.25-1.06,2.74-1.99c1.12-2.14,2.18-5,3.17-8.57.4-1.48.24-2.94-.48-4.38-.72-1.44-1.88-2.53-3.46-3.27h.01Z"/>
      <path class="st0" d="M630.71,147.79c-2.04-.78-6.84-2.33-14.4-4.65-7.56-2.32-12.84-3.99-15.84-5.01.74-2.41,1.64-5.44,2.71-9.1,1.07-3.65,1.99-6.73,2.76-9.24s1.51-4.76,2.23-6.76c.92-2.51,2.19-6.57,3.81-12.17,1.62-5.61,2.51-8.62,2.69-9.03,1.68.41,4.87,1.18,9.57,2.32,4.7,1.13,8.88,2.17,12.54,3.11,3.67.94,6.17,1.67,7.51,2.19-.75,3.13-2.08,7.46-3.98,12.98-.98-.35-3.88-1.13-8.71-2.32-4.83-1.2-7.52-1.91-8.08-2.13-.17.57-.44,1.53-.81,2.89s-.61,2.23-.72,2.61l8.38,2.26c-1.21,4.96-1.94,7.84-2.18,8.64l-8.66-2.11c-1.19,3.72-2,6.34-2.41,7.87,9.4,2.57,14.78,4.09,16.13,4.56-1.68,8.69-2.53,13.06-2.54,13.11v-.02Z"/>
      <path class="st0" d="M662.38,128.49c2.19-6.47,4.48-13.11,6.88-19.92,8.03,2.67,13.49,4.34,16.38,5.02.02,2.64-.1,6.6-.35,11.88s-.35,8.26-.3,8.95c.59-.75,2.01-2.58,4.24-5.49,2.24-2.91,4.12-5.32,5.67-7.22,1.54-1.91,2.73-3.3,3.57-4.18,2.45.44,5.02,1.01,7.7,1.7,2.68.69,4.68,1.35,6,1.96-.33,1.09-1.74,5.59-4.22,13.52-2.48,7.93-4.7,15.06-6.64,21.39s-3.06,10.13-3.34,11.39c-.62-.19-1.8-.58-3.56-1.17s-3.37-1.11-4.84-1.56c-1.47-.45-2.69-.77-3.66-.97,2.68-11.95,4.45-18.99,5.31-21.1-.85.93-1.98,2.41-3.38,4.43-1.4,2.03-2.69,3.97-3.88,5.83s-2.37,3.71-3.53,5.55c-1.16,1.84-1.79,2.85-1.9,3.03-.76-.23-1.93-.68-3.5-1.35-1.58-.67-2.4-1.01-2.44-1.02-.36-2.38-.65-6.16-.87-11.32-.23-5.16-.28-8.61-.17-10.33-1.07,2.83-2.27,6.86-3.59,12.09s-2,7.92-2.04,8.06c-1.54-.73-3.59-1.54-6.16-2.43-2.57-.89-4.56-1.5-5.96-1.83,1.41-3.76,4.27-12.06,8.57-24.91h.01Z"/>
      <path class="st0" d="M713.21,143.61l6.33-20.63c1.71.16,5.67,1.5,11.88,4.03-2.63,6.9-5.68,16.83-9.13,29.78-.39,1.43-.95,3.34-1.68,5.73s-1.48,4.78-2.24,7.19c-.76,2.4-1.18,3.72-1.25,3.96-.8-.25-2.86-.8-6.16-1.66-3.31-.86-5.29-1.39-5.95-1.59.44-1.78,1.17-4.31,2.17-7.6,1.01-3.29,2.16-6.95,3.45-11,1.29-4.05,2.16-6.79,2.59-8.2h-.01Z"/>
      <path class="st0" d="M726.67,166.28c.79-5.6,1.81-9.79,3.07-12.56.76.23,1.85.58,3.29,1.05,1.43.47,2.65.85,3.64,1.16.99.3,1.76.51,2.29.62-1.2,3.92-.7,6.23,1.53,6.91,2.46.75,4.46-.96,6-5.14.73-2.05,2.09-6.27,4.08-12.67s3.18-10.49,3.57-12.29c4.35,1.33,7.82,2.5,10.41,3.5-5.47,17.82-9.31,29.42-11.52,34.79-1.42,3.44-3.46,6.05-6.12,7.82s-5.69,2.21-9.09,1.32c-3.59-.95-6.45-2.8-8.57-5.58-2.12-2.77-2.98-5.75-2.57-8.93h0Z"/>
      <path class="st0" d="M766.36,157.5c.21-.51,2.25-6.68,6.14-18.52,3.43.95,6.64,1.91,9.63,2.88s4.98,1.68,5.98,2.14c.71,13.2,1.21,20.67,1.5,22.42,1.23-2.67,2.76-6.3,4.58-10.89s2.89-7.48,3.2-8.68c4.25.99,7.28,2.05,9.11,3.18-.67,2.69-3.01,9.39-7.02,20.11s-7.08,18.78-9.2,24.18c-1.17-.25-2.44-.59-3.84-1.02-1.39-.43-2.77-.88-4.13-1.34s-2.18-.75-2.46-.83c-.19-1.4-.45-4.1-.78-8.08s-.67-7.35-1.01-10.12c-.34-2.77-.7-4.8-1.07-6.11-.86,2.48-1.94,5.57-3.24,9.29s-2.29,6.58-2.98,8.59-1.14,3.35-1.35,4.01c-1.65.17-5.56-.83-11.73-2.98,1-4.09,2.42-9.1,4.26-15.02,1.84-5.93,3.31-10.33,4.4-13.2h.01Z"/>
      <path class="st0" d="M829.61,208.79c-2.04-.78-6.84-2.33-14.4-4.65-7.56-2.32-12.84-3.99-15.84-5.01.74-2.41,1.64-5.44,2.71-9.1,1.07-3.65,1.99-6.73,2.76-9.24s1.51-4.76,2.23-6.76c.92-2.51,2.2-6.57,3.81-12.17,1.62-5.61,2.51-8.62,2.69-9.03,1.68.41,4.87,1.18,9.57,2.32,4.7,1.13,8.88,2.17,12.54,3.11,3.67.94,6.17,1.67,7.51,2.19-.75,3.13-2.08,7.46-3.98,12.98-.98-.35-3.88-1.13-8.71-2.32-4.83-1.2-7.52-1.91-8.08-2.13-.17.57-.45,1.53-.81,2.89s-.61,2.23-.72,2.61l8.38,2.26c-1.21,4.96-1.94,7.84-2.18,8.64l-8.66-2.11c-1.19,3.72-2,6.34-2.41,7.87,9.4,2.57,14.78,4.09,16.13,4.56-1.68,8.69-2.53,13.06-2.55,13.11v-.02Z"/>
      <path class="st0" d="M845.92,181.9c.21-.5,2.25-6.68,6.14-18.52,3.43.95,6.64,1.91,9.63,2.88s4.98,1.68,5.98,2.14c.71,13.2,1.21,20.67,1.5,22.42,1.23-2.67,2.76-6.3,4.58-10.89s2.89-7.48,3.2-8.68c4.25.99,7.28,2.05,9.11,3.18-.67,2.69-3.01,9.39-7.02,20.11s-7.08,18.78-9.2,24.18c-1.17-.25-2.44-.59-3.84-1.02-1.4-.43-2.77-.88-4.13-1.34s-2.18-.75-2.46-.83c-.19-1.4-.45-4.1-.78-8.08s-.67-7.35-1.01-10.12c-.34-2.77-.7-4.8-1.07-6.11-.86,2.48-1.94,5.57-3.24,9.29-1.29,3.71-2.29,6.58-2.98,8.59-.7,2.01-1.14,3.35-1.35,4.01-1.65.17-5.57-.83-11.73-2.98,1-4.09,2.42-9.1,4.26-15.02,1.84-5.93,3.31-10.33,4.4-13.2h.01Z"/>
    </g>
  </g>
</svg>