<?xml version="1.0" encoding="UTF-8"?>
<svg id="Layer_1" xmlns="http://www.w3.org/2000/svg" version="1.1" viewBox="0 0 595.28 326.23">
  <!-- Generator: Adobe Illustrator 30.1.0, SVG Export Plug-In . SVG Version: 2.1.1 Build 136)  -->
  <defs>
    <style>
      .st0 {
        fill: #ffeb00;
      }

      .st1 {
        isolation: isolate;
      }

      .st2 {
        fill: none;
        stroke: #ffeb00;
        stroke-miterlimit: 10;
        stroke-width: 6px;
      }
    </style>
  </defs>
  <g>
    <polyline class="st2" points="11.06 167.68 335.27 266.45 511.41 217.06"/>
    <polygon class="st2" points="584.22 204.1 517.52 259.89 502.55 174.24 584.22 204.1"/>
  </g>
  <g class="st1">
    <g class="st1">
      <path class="st0" d="M78.02,133.73c-3.79-1.61-5.94-4.26-6.42-7.94-.49-3.68.59-7.9,3.25-12.65,6.97-12.46,20.56-14.12,40.78-5.01-.55,1.79-1.29,3.85-2.23,6.2-.94,2.34-1.87,4.56-2.77,6.65-.9,2.09-1.42,3.34-1.54,3.76-5.23-2.8-9.25-3.81-12.05-3.01-2.3.65-2.48,2.21-.53,4.69,1.08,1.38,2.76,2.91,5.03,4.58,3.08,2.22,5.37,4.76,6.86,7.62,1.49,2.86,2.2,5.77,2.13,8.72-.08,2.95-.54,5.74-1.38,8.38-.85,2.64-2.07,5.22-3.66,7.73-1.95,3.17-5.18,5.5-9.7,7.01-4.52,1.51-9.72,1.9-15.58,1.15-5.86-.74-11.99-2.84-18.38-6.3.33-2.08,1.17-5.47,2.49-10.18,1.33-4.71,2.36-7.89,3.09-9.54,3.85,2.16,7.41,3.42,10.69,3.78,3.27.36,6.01.09,8.2-.82,2.2-.91,3.36-2.2,3.5-3.89.19-2.35-.64-4.29-2.5-5.84-1.86-1.54-4.95-3.24-9.27-5.09Z"/>
      <path class="st0" d="M122.21,185.04c6.59-24.75,10.72-39.96,12.38-45.62-8.01-1.85-12.61-2.92-13.8-3.21.25-.83,1.01-3.17,2.26-7.03,1.26-3.86,2.39-7.31,3.39-10.35,1-3.04,1.69-5.03,2.05-5.97.41.13,1.79.42,4.13.87,2.34.45,4.13.81,5.37,1.08,1.23.26,3.21.7,5.92,1.3,2.71.6,4.68,1.11,5.91,1.53,1.23.41,2.98.97,5.24,1.66,3.1,1.17,7.31,2.59,12.63,4.26,5.32,1.67,8.25,2.58,8.8,2.75-.55,1.56-1.5,4.41-2.84,8.55-1.34,4.14-2.5,7.68-3.47,10.61s-1.61,4.77-1.91,5.51c-.8-.32-5.68-1.96-14.62-4.93-1.21,3.69-2.28,7.03-3.23,10.01-.95,2.98-1.78,5.7-2.49,8.15-.71,2.45-1.24,4.23-1.57,5.33-2.51,7.96-4.45,14.54-5.82,19.76-2.83-.34-8.94-1.76-18.33-4.25Z"/>
      <path class="st0" d="M176.08,191.09c-1.87,3.15-3.02,5.33-3.47,6.55-2.67-.37-5.59-1.07-8.77-2.12-3.18-1.05-5.69-2-7.53-2.87,1.8-3.66,8.77-14.71,20.91-33.14,12.14-18.43,18.28-27.74,18.41-27.92,4.08,1.4,11.04,3.38,20.86,5.93-.85,6.96-2.67,20.33-5.45,40.12-2.78,19.79-4.34,30.35-4.67,31.68-2.97-.61-6.34-1.53-10.1-2.75-3.76-1.22-6.72-2.24-8.88-3.05.13-.94.39-2.83.78-5.68.38-2.85.75-5.39,1.09-7.62.34-2.22.58-3.81.72-4.74-.65-.35-1.54-.68-2.69-.99-1.15-.31-2.07-.54-2.78-.68-.71-.14-1.9-.32-3.56-.53-1.38,2.06-3.01,4.66-4.87,7.81ZM189.96,168.21c1.42.51,3.08.87,4.97,1.07.47-3.01.45-6.03-.05-9.04-2.49,3.45-4.12,6.11-4.92,7.97Z"/>
      <path class="st0" d="M225.35,173.84c5.3-16.35,8.46-26.66,9.47-30.94,3.13.58,6.07,1.24,8.82,1.96,2.75.73,5.81,1.76,9.2,3.1,3.39,1.34,6.27,2.8,8.64,4.39,2.37,1.59,4.35,3.59,5.95,5.99,1.59,2.41,2.38,5,2.36,7.77-.14,7.33-1.67,13.81-4.6,19.46-2.93,5.65-6.3,8.56-10.12,8.75.21,3,.99,8.5,2.34,16.51,1.35,8.01,1.98,12.9,1.88,14.68-.48-.15-2.22-.72-5.23-1.71-3.01-.99-5.83-1.9-8.48-2.71-2.65-.81-4.51-1.3-5.58-1.48-.61-2.67-1.25-7.11-1.9-13.33-.66-6.21-1.07-9.76-1.25-10.65-.69,1.52-1.44,3.47-2.24,5.86-.81,2.39-1.48,4.51-2.01,6.38-.53,1.87-1.08,3.77-1.63,5.7-.56,1.94-.84,2.94-.86,3.01-1.17-.13-2.74-.5-4.74-1.11-2-.61-5.54-1.81-10.63-3.59,6.15-22.56,9.69-35.23,10.62-38.04ZM246.12,166.77c-.11.34-.5,1.86-1.17,4.55-.67,2.69-1.32,4.54-1.93,5.56,1.36.72,2.89.74,4.61.06,1.71-.68,2.75-1.6,3.1-2.77.46-1.51.37-3.05-.29-4.6-.65-1.55-2.1-2.48-4.33-2.79Z"/>
      <path class="st0" d="M275.89,232.05c6.59-24.75,10.72-39.96,12.38-45.62-8.01-1.85-12.61-2.92-13.8-3.21.25-.83,1.01-3.17,2.27-7.03,1.25-3.86,2.39-7.31,3.39-10.35,1-3.04,1.69-5.03,2.05-5.97.41.13,1.79.42,4.13.87,2.34.46,4.13.81,5.37,1.08,1.23.26,3.21.7,5.92,1.3,2.71.6,4.68,1.11,5.91,1.53,1.23.41,2.98.97,5.24,1.66,3.1,1.17,7.31,2.59,12.63,4.26,5.32,1.67,8.25,2.58,8.8,2.75-.55,1.56-1.5,4.41-2.84,8.55-1.34,4.14-2.5,7.68-3.47,10.61-.97,2.94-1.61,4.77-1.91,5.51-.8-.32-5.68-1.96-14.62-4.93-1.21,3.69-2.28,7.03-3.23,10.01-.95,2.98-1.78,5.7-2.49,8.15-.71,2.45-1.24,4.23-1.57,5.33-2.51,7.96-4.45,14.54-5.82,19.76-2.83-.34-8.94-1.76-18.33-4.25Z"/>
    </g>
  </g>
</svg>