<?xml version="1.0" encoding="UTF-8"?>
<svg id="Layer_1" data-name="Layer 1" xmlns="http://www.w3.org/2000/svg" viewBox="0 0 243.44 132.63">
  <defs>
    <style>
      .cls-1 {
        fill: #ffeb00;
      }
    </style>
  </defs>
  <path class="cls-1" d="M109.98,0L0,5.5l2.06,64.94-2.06,62.2,116.57-8.24,126.87,5.77V5.5L109.98,0ZM61.37,69.61l-8.24,7.83-11.53-2.88-1.65-12.36,10.3-7,11.12,3.5v10.91ZM156.4,74.53l-5.57,6.33-19.24,13.67-41.02-8.35-3.54-21.27,3.54-14.68,19.75-19.75h38.48l7.6,9.88v34.17ZM210.48,69.61l-8.24,7.83-11.53-2.88-1.65-12.36,10.3-7,11.12,3.5v10.91Z"/>
  <path class="cls-1" d="M132.92,61.64h-5.23l-1.95-3.44v-8.36h8.69v-6.05l-6.68.95-2.01-.18v-3.71h-3.37v3.42l-5.34-.47-3.6,6.05v9.08l7,7.9,3.49.74v4.99l-10.49,2.65,2.46,5.3,8.03-1.31v4.51h4.5v-5.24l3.73-.61,4.16-5.77v-5.25l-3.41-5.18ZM122.14,61.64l-6.24-6.51,3.41-5.3h3.07v10.28l.78,1.52h-1.01ZM128.43,70.7v-2.19l2.98.63-2.98,1.56Z"/>
</svg>